<svg xmlns="http://www.w3.org/2000/svg" width="100" height="100" viewBox="0 0 124.519 124.163"><path d="M125.37,31.155v69.853c0,4.736,4.652,5.965,4.652,5.965l54.4,16.732a11.443,11.443,0,0,0,6.414,0l54.5-16.782s4.553-1.2,4.553-5.932V23.162c0-4.736-4.652-5.965-4.652-5.965L190.836.465a11.25,11.25,0,0,0-6.414,0l-54.5,16.765a6.24,6.24,0,0,0-4.536,5.932v7.992Z" transform="translate(-125.37 0)" fill="#fff"/><g transform="translate(22.067 21.535)"><g transform="translate(28.479 65.708)"><path d="M177.557,55.67c-1.4-.847-1.562.1-2.974,0s-1.728-2.941-3.506-3.14a6.316,6.316,0,0,0-3.572.947,6.293,6.293,0,0,0-3.556-.947c-1.795.2-2.11,3.041-3.523,3.14s-1.578-.847-2.974,0a4.023,4.023,0,0,0-1.3,4.952c.864,1.861,3.955,3.34,4.22,4.436s.98,2.725,2.758,2.841a20.969,20.969,0,0,0,4.387-.449,21.134,21.134,0,0,0,4.387.449c1.778-.1,2.476-1.745,2.758-2.841.266-1.1,3.34-2.575,4.22-4.436A4.026,4.026,0,0,0,177.557,55.67Zm-14.921,8.059c-1.08.366-2.958-.6-3.174-1.562s.582-1.23,0-1.795a4.2,4.2,0,0,1-1.329-1.894c-.216-.8-.5-1.4,0-1.4s.9,1.4,1.695,1.6,1.08,1.5,1.811,1.927C162.386,61.037,163.716,63.363,162.636,63.728Zm14.24-5.234a4.336,4.336,0,0,1-1.329,1.894c-.582.565.216.814,0,1.795-.216.964-2.094,1.927-3.174,1.562s.249-2.692,1-3.107c.731-.432,1.014-1.728,1.811-1.927s1.18-1.6,1.695-1.6C177.39,57.1,177.091,57.7,176.875,58.494Z" transform="translate(-155.79 -52.506)" fill="#b0db20"/></g><path d="M176.144,22.988s1.329-.216,1.678-.881c-3.556.249-4.553-.681-6.065-1.362a8.348,8.348,0,0,0-3.871-.316h-.465a8.348,8.348,0,0,0-3.871.316c-1.512.681-2.526,1.612-6.065,1.362.349.665,1.662.881,1.662.881a5.056,5.056,0,0,1-3.556,2.426,6.378,6.378,0,0,0,4.553-.382,2.222,2.222,0,0,1,.482,1.728c.881-.332,1.263-1.878,1.263-1.878s-.2,2.542-.8,2.875c.9-.083,1.529-1.2,1.529-1.2s-.482,2.409,1.08,3.423a4.762,4.762,0,0,1,.166-1.113c.864,1.961,2.659,1.795,3.788,3.041l.033.033.033-.033c1.13-1.246,2.941-1.08,3.805-3.041a5.376,5.376,0,0,1,.15,1.113c1.562-1,1.08-3.423,1.08-3.423s.631,1.113,1.529,1.2c-.6-.332-.8-2.875-.8-2.875s.366,1.529,1.263,1.878a2.271,2.271,0,0,1,.465-1.728,6.378,6.378,0,0,0,4.553.382A5.081,5.081,0,0,1,176.144,22.988Z" transform="translate(-127.444 -8.084)" fill="#b0db20"/><g transform="translate(0 17.481)"><path d="M175.684,34.57c.017-.349-1.579-.8-3.29.648-1.695,1.446-2.044,4.553-2.044,4.553s3.423.714,4.353-1.3a3.138,3.138,0,0,0-.6-3.174S174.4,34.753,175.684,34.57Z" transform="translate(-117.679 -16.377)" fill="none"/><path d="M152.12,34.57c1.263.183,1.578.714,1.578.714a3.153,3.153,0,0,0-.6,3.174c.914,2.011,4.337,1.3,4.337,1.3s-.349-3.107-2.044-4.553C153.7,33.773,152.1,34.222,152.12,34.57Z" transform="translate(-129.739 -16.378)" fill="none"/><path d="M175.022,54.019c-.465-1.977-.233-5.217-1.628-8.64a34.68,34.68,0,0,1-2.659-8.69c-.233-2.326-.233-4.52-1.678-5.915s-2.094-5.8-2.094-5.8a12.985,12.985,0,0,0-2.791,1.745,3.973,3.973,0,0,1-2.609,1.678c-1.213.116-2.492-.864-4.686-1.961-2.21-1.1-4.7-3.307-8.341-2.908A17.387,17.387,0,0,0,140.76,26.3c-1.728,1.1-2.775,3.074-1.628,4.7a23.731,23.731,0,0,0,4.52,4.752c.98.582,1.329,2.21,4.287,3.705a15.026,15.026,0,0,0,8.291,1.4c2.143-.233,4.054-.233,4.054-.233A11.372,11.372,0,0,0,160.8,43.7c.515,1.628,2.143,4.237,2.609,5.516s.166,3.772.066,5.8c-.116,2.027.05,8.109.515,9.5s.98,4.8.631,5.8a21.433,21.433,0,0,0-.282,7.078c.415,1.795.465,2.376.93,2.193.465-.166.282-3.423.814-4.752.515-1.329.881-1.5.881-2.841,0-1.329.166-2.143.93-2.094.748.066,1.1.515,1.977.415.864-.116,2.725-3.473,3.423-3.822s1.329-6.663,1.047-7.66C174.324,58.821,175.487,55.98,175.022,54.019Zm-22.082-15.2a13.708,13.708,0,0,1-11.664-8.989c1.047-.93,4.636-2.443,6.63-.681a2.766,2.766,0,0,0-1.263.914s3.041.183,3.871,1.944a1.957,1.957,0,0,0-1.146.249c4.071,1.479,4.137,2.875,10.1,2.758C159.07,35.775,158.057,39.081,152.939,38.815Zm9.072,6.763a3.138,3.138,0,0,1,.6-3.174s-.316-.532-1.578-.714c-.017-.349,1.578-.8,3.273.648s2.044,4.553,2.044,4.553S162.942,47.589,162.011,45.578Z" transform="translate(-138.651 -23.481)" fill="#b0db20"/><path d="M199.452,26.3a17.386,17.386,0,0,0-7.776-2.775c-3.655-.4-6.148,1.795-8.341,2.908-2.21,1.1-3.489,2.077-4.7,1.961a4.015,4.015,0,0,1-2.609-1.678,12.561,12.561,0,0,0-2.775-1.745s-.631,4.4-2.094,5.8c-1.446,1.4-1.446,3.589-1.678,5.915a34.824,34.824,0,0,1-2.675,8.69c-1.379,3.423-1.163,6.663-1.628,8.64s.7,4.8.7,4.8c-.282.98.349,7.311,1.047,7.66s2.559,3.705,3.423,3.822,1.213-.349,1.961-.415c.764-.05.93.764.93,2.094s.349,1.512.864,2.841.349,4.586.814,4.752.515-.4.93-2.193a21.481,21.481,0,0,0-.282-7.078c-.349-.98.183-4.4.631-5.8.465-1.4.631-7.477.515-9.5s-.415-4.52.066-5.8c.465-1.279,2.094-3.888,2.609-5.516a10.891,10.891,0,0,0,.532-3.057s1.911,0,4.054.233a15.026,15.026,0,0,0,8.291-1.4c2.958-1.512,3.307-3.124,4.287-3.705a23.731,23.731,0,0,0,4.52-4.752C202.227,29.378,201.18,27.4,199.452,26.3ZM178.2,45.578c-.93,2.011-4.353,1.3-4.353,1.3s.349-3.107,2.044-4.553c1.711-1.446,3.307-1,3.29-.648-1.279.183-1.579.714-1.579.714A3.174,3.174,0,0,1,178.2,45.578Zm9.072-6.763c-5.118.266-6.148-3.041-6.53-3.822,5.982.133,6.032-1.279,10.1-2.758a2.138,2.138,0,0,0-1.146-.249c.847-1.745,3.871-1.944,3.871-1.944a2.766,2.766,0,0,0-1.263-.914c1.994-1.761,5.583-.266,6.63.681A13.7,13.7,0,0,1,187.273,38.816Z" transform="translate(-121.176 -23.481)" fill="#b0db20"/></g><g transform="translate(24.075 38.232)"><path d="M171.81,36.684a.709.709,0,0,0,.714.714.723.723,0,0,0,.731-.714.723.723,0,0,0-1.446,0Z" transform="translate(-140.788 -35.97)" fill="#b0db20"/><g transform="translate(0 0)"><path d="M154.569,36.684a.72.72,0,0,1-.714.714.709.709,0,0,1-.714-.714.714.714,0,1,1,1.429,0Z" transform="translate(-153.14 -35.97)" fill="#b0db20"/></g></g><g transform="translate(7.668)"><path d="M165.771,28.3s-10.318-1.429-15.137-4.769-5.018-6.779-4.5-8.541c.5-1.761-.6-3.174-1.977-.681s-1.6,9.371,2.642,13.293c4.237,3.9,12,6.846,12,6.846a11.412,11.412,0,0,0,2.409-1.778c.7-.831,1.23-.9,1.728-2.094C163.395,29.393,165.771,28.3,165.771,28.3Z" transform="translate(-143.266 -12.96)" fill="#b0db20"/><path d="M168.87,28.3s10.318-1.429,15.137-4.769c4.835-3.34,5.018-6.779,4.5-8.541-.5-1.761.6-3.174,1.977-.681,1.4,2.492,1.612,9.371-2.625,13.293-4.237,3.9-12,6.846-12,6.846a11.412,11.412,0,0,1-2.409-1.778c-.7-.831-1.23-.9-1.728-2.094C171.246,29.393,168.87,28.3,168.87,28.3Z" transform="translate(-126.326 -12.96)" fill="#b0db20"/></g></g></svg>