<svg xmlns="http://www.w3.org/2000/svg" width="100" height="100" viewBox="0 0 124.519 124.163"><path d="M492.99,31.155v69.853c0,4.736,4.652,5.965,4.652,5.965l54.4,16.732a11.443,11.443,0,0,0,6.414,0l54.5-16.782s4.553-1.2,4.553-5.932V23.162c0-4.736-4.652-5.965-4.652-5.965L558.456.465a11.25,11.25,0,0,0-6.414,0l-54.5,16.765a6.24,6.24,0,0,0-4.536,5.932v7.992Z" transform="translate(-492.99 0)" fill="#fff"/><g transform="translate(22.398 19.69)"><path d="M537.4,57.161a17.427,17.427,0,0,0,17.43-17.43c0-9.621-17.43-27.881-17.43-27.881s-17.43,18.261-17.43,27.881a17.427,17.427,0,0,0,17.43,17.43ZM530.687,38.07h4.121V33.949a2.575,2.575,0,1,1,5.151,0V38.07H544.1a2.576,2.576,0,1,1,0,5.151h-4.137v4.137a2.575,2.575,0,1,1-5.151,0V43.221h-4.121a2.575,2.575,0,0,1,0-5.151Zm0,0" transform="translate(-497.539 -11.85)" fill="#b0db20"/><path d="M522.98,62.9a12.429,12.429,0,1,0,24.857,0c0-6.862-12.429-19.873-12.429-19.873S522.98,56.04,522.98,62.9Zm14.273-4.121v2.958h2.958a1.844,1.844,0,1,1,0,3.689h-2.958v2.941a1.836,1.836,0,1,1-3.672,0V65.412h-2.958a1.844,1.844,0,0,1,0-3.689h2.958V58.765a1.836,1.836,0,1,1,3.672.017Zm0,0" transform="translate(-495.547 8.778)" fill="#b0db20"/><path d="M506.47,53.212a13.293,13.293,0,1,0,26.585,0c0-7.328-13.293-21.252-13.293-21.252S506.47,45.867,506.47,53.212Zm15.253-4.42v3.157h3.14a1.961,1.961,0,1,1,0,3.921h-3.14v3.157a1.969,1.969,0,0,1-3.938,0V55.87h-3.157a1.961,1.961,0,0,1,0-3.921h3.157V48.792a1.969,1.969,0,0,1,3.938,0Zm0,0" transform="translate(-506.47 1.454)" fill="#b0db20"/><path d="M551.743,31.95S538.45,45.874,538.45,53.2a13.3,13.3,0,0,0,26.6,0c0-7.328-13.309-21.252-13.309-21.252Zm5.134,23.927H553.72v3.157a1.969,1.969,0,0,1-3.938,0V55.877h-3.157a1.961,1.961,0,1,1,0-3.921h3.157V48.8a1.969,1.969,0,0,1,3.938,0v3.157h3.157a1.961,1.961,0,1,1,0,3.921Zm0,0" transform="translate(-485.313 1.448)" fill="#b0db20"/></g><path d="M511.907,101.962a8.194,8.194,0,0,1-7.427-7.444,4.451,4.451,0,0,1,1.3-3.207l77.961-77.961a4.5,4.5,0,0,1,3.224-1.279,7.461,7.461,0,0,1,5.051,2.343,7.435,7.435,0,0,1,2.376,5.084,4.519,4.519,0,0,1-1.3,3.223l-77.961,77.961A4.5,4.5,0,0,1,511.907,101.962Z" transform="translate(-485.388 7.985)" fill="#fff"/><path d="M516.408,82.718l68.341-68.341c.7-.7,2.326-.216,3.606,1.063,1.313,1.313,1.795,2.924,1.08,3.639L521.11,87.4l-1.379,1.379-8.241,8.241c-.7.7-2.326.216-3.606-1.063-1.313-1.313-1.794-2.924-1.1-3.622l8.241-8.241Z" transform="translate(-484.073 9.3)" fill="#b0db20"/></svg>