<svg xmlns="http://www.w3.org/2000/svg" width="100" height="100" viewBox="0 0 124.519 124.179"><path d="M370.77,181.561v69.853c0,4.736,4.652,5.965,4.652,5.965l54.4,16.732a11.443,11.443,0,0,0,6.414,0l54.5-16.782s4.553-1.2,4.553-5.932V173.552c0-4.736-4.652-5.965-4.652-5.965l-54.4-16.732a11.25,11.25,0,0,0-6.414,0l-54.5,16.765a6.24,6.24,0,0,0-4.536,5.932v8.009Z" transform="translate(-370.77 -150.39)" fill="#fff"/><g transform="translate(21.822 23.345)"><path d="M410.633,247.286l-3.406-10.917c-.2-1.014,1.279-.366,2.924-.714,1.645-.332,2.758-1.512,2.958-.5l1.329,11.066c.5,2.343-3.556,2.193-3.805,1.063Zm-12.2-35.259c-8.873-2.011-9.4-7.909-9.4-7.909-.615,2.26,5.217,19.54,13.675,17.8,3.805-.748,5.666-7.693-4.27-9.886Zm-2.592-12.578c-8.873-1.977-9.388-7.876-9.388-7.876-.615,2.227,5.217,19.573,13.675,17.829,3.788-.781,5.649-7.71-4.287-9.953Zm-2.509-12.179c-8.856-1.961-9.388-7.876-9.388-7.876-.615,2.243,5.217,19.557,13.675,17.812,3.788-.781,5.649-7.693-4.287-9.936Zm18.477,32.816c8.424-1.745,6.945-19.956,5.516-21.8,0,0,1.844,5.616-5.516,10.983-8.275,5.948-3.805,11.6,0,10.817Zm-10.734,4.769c-8.873-1.994-9.388-7.876-9.388-7.876-.615,2.26,5.217,19.557,13.675,17.812,3.788-.781,5.649-7.693-4.287-9.936Zm13.376,8.059c8.424-1.728,6.962-19.939,5.533-21.767,0,0,1.844,5.616-5.516,10.95-8.275,6-3.8,11.6-.017,10.817Zm-5.234-25.389c8.424-1.728,6.945-19.989,5.516-21.8,0,0,1.844,5.616-5.516,10.95-8.258,6-3.788,11.648,0,10.85Zm-2.509-12.2c8.424-1.745,6.962-19.939,5.533-21.767,0,0,1.861,5.649-5.516,10.95-8.275,6-3.8,11.6-.017,10.817Zm-5.882-8.607c8.956-1.844-4.436-19.025-4.436-19.025-.781,2.044-4.536,20.886,4.436,19.025Zm36.9,56.527,3.456-10.584c.233-.98-1.3-.4-2.891-.781-1.662-.382-2.742-1.6-2.974-.582l-1.512,11.315c-.266,1.13,3.356,2.991,3.921.631Zm-.15-37.768c-7.178-5.55-5.184-11.133-5.184-11.133-1.479,1.794-3.473,19.956,4.9,21.933,3.772.914,8.408-4.569.282-10.8ZM440.541,193c-7.195-5.55-5.2-11.133-5.2-11.133-1.479,1.811-3.489,19.972,4.885,21.95,3.788.9,8.408-4.569.316-10.817Zm2.858-12.08c-7.195-5.516-5.2-11.133-5.2-11.133-1.479,1.778-3.489,19.939,4.9,21.933,3.788.9,8.408-4.586.3-10.8Zm2.941,37.519c8.408,1.977,14.738-15.17,14.19-17.447,0,0-.7,5.882-9.637,7.627-9.986,1.944-8.308,8.923-4.553,9.82Zm-11.764-.183c-7.195-5.533-5.2-11.116-5.2-11.116-1.479,1.795-3.489,19.956,4.918,21.933,3.772.881,8.391-4.6.282-10.817Zm8.757,12.944c8.408,2.01,14.722-15.137,14.19-17.413,0,0-.7,5.9-9.637,7.627-9.986,1.944-8.308,8.906-4.553,9.787Zm5.965-25.239c8.391,1.977,14.7-15.17,14.19-17.43,0,0-.7,5.882-9.621,7.627-10.036,1.944-8.341,8.923-4.569,9.8Zm2.841-12.113c8.391,1.994,14.705-15.137,14.19-17.413,0,0-.7,5.9-9.621,7.627-10,1.944-8.308,8.906-4.569,9.787Zm-1.728-10.285c8.923,2.094,3.988-19.125,3.988-19.125-1.529,1.529-12.894,17-3.988,19.125Zm0,0" transform="translate(-383.903 -164.44)" fill="#b0db20"/></g><path d="M388.617,250.618a8.194,8.194,0,0,1-7.427-7.444,4.518,4.518,0,0,1,1.3-3.223l77.961-77.961a4.5,4.5,0,0,1,3.224-1.279,7.412,7.412,0,0,1,5.051,2.359c2.675,2.675,3.14,6.248,1.08,8.291l-77.961,77.961A4.451,4.451,0,0,1,388.617,250.618Z" transform="translate(-363.876 -143.562)" fill="#fff"/><path d="M393.116,231.368l68.341-68.341c.7-.7,2.326-.216,3.606,1.063,1.313,1.313,1.794,2.924,1.08,3.639L397.8,236.071l-1.362,1.379-8.241,8.241c-.7.7-2.326.216-3.606-1.063-1.313-1.313-1.794-2.924-1.08-3.622l8.241-8.241Z" transform="translate(-362.559 -142.241)" fill="#b0db20"/></svg>