<svg xmlns="http://www.w3.org/2000/svg" width="100" height="100" viewBox="0 0 124.519 124.163"><path d="M615.53,31.155v69.853c0,4.736,4.652,5.965,4.652,5.965l54.4,16.732a11.443,11.443,0,0,0,6.414,0l54.5-16.782s4.553-1.2,4.553-5.932V23.162c0-4.736-4.652-5.965-4.652-5.965L681,.465a11.25,11.25,0,0,0-6.414,0l-54.5,16.765a6.24,6.24,0,0,0-4.536,5.932v7.992Z" transform="translate(-615.53 0)" fill="#fff"/><g transform="translate(11.98 30.722)"><path d="M677.39,24.838a11.255,11.255,0,1,0-19.424,11.249,12.684,12.684,0,0,1,1.18,9.637,11,11,0,0,0-.931,5.8,11.257,11.257,0,0,0,20.969,4.37l.083-.017a.7.7,0,0,1,.033-.166,11.858,11.858,0,0,0,.631-1.4c1.313-2.06,5.134-5.649,16.1-7.411,2.509-.4,3.672-.731,3.855-.98l4.1-.449V28.809l-8.607.914C681.876,30.4,678.22,26.184,677.39,24.838Z" transform="translate(-600.741 -18.489)" fill="#b0db20"/><path d="M659.245,59.635a11.265,11.265,0,0,0,13.525-17.6,11.075,11.075,0,0,0-4.636-3.024,12.7,12.7,0,0,1-6.713-7.062,11.254,11.254,0,0,0-22.149,3.855l-.05.033a1.373,1.373,0,0,1,.066.166c.083.5.183,1,.316,1.5.2,2.443-.748,7.61-8.507,15.586-1.778,1.811-2.542,2.775-2.542,3.107l-5.816,5.334V78.145h6.5l12.595-11.614C652.283,57.907,657.733,59.054,659.245,59.635Z" transform="translate(-622.74 -15.403)" fill="#b0db20"/><path d="M647.058,27.279s6.181,8.258,9.238,7.444c3.074-.814,2.393-13.957.449-15.386C654.785,17.891,642.9,22.576,647.058,27.279Z" transform="translate(-607.23 -18.106)" fill="#b0db20"/></g></svg>