<svg xmlns="http://www.w3.org/2000/svg" width="100" height="100" viewBox="0 0 124.519 124.179"><path d="M248.12,181.561v69.853c0,4.736,4.652,5.965,4.652,5.965l54.4,16.732a11.443,11.443,0,0,0,6.414,0l54.5-16.782s4.553-1.2,4.553-5.932V173.552c0-4.736-4.652-5.965-4.652-5.965l-54.4-16.732a11.25,11.25,0,0,0-6.414,0l-54.5,16.765a6.24,6.24,0,0,0-4.536,5.932v8.009Z" transform="translate(-248.12 -150.39)" fill="#fff"/><g transform="translate(24.874 32.268)"><path d="M275.368,200.387a2.588,2.588,0,0,0,3.489-1.147l8.607-17.231a2.59,2.59,0,0,0-4.636-2.31l-8.607,17.231a2.569,2.569,0,0,0,1.147,3.456Zm0,0" transform="translate(-255.911 -164.214)" fill="#b0db20"/><path d="M282.438,200.387a2.568,2.568,0,0,0,3.473-1.147l8.624-17.231a2.59,2.59,0,0,0-4.636-2.31l-8.607,17.231a2.569,2.569,0,0,0,1.146,3.456Zm0,0" transform="translate(-251.233 -164.214)" fill="#b0db20"/><path d="M289.508,200.387A2.588,2.588,0,0,0,293,199.241L301.6,182.01a2.59,2.59,0,0,0-4.636-2.31l-8.607,17.231a2.569,2.569,0,0,0,1.146,3.456Zm0,0" transform="translate(-246.556 -164.214)" fill="#b0db20"/><path d="M342.265,212.2v-.116L342.248,205v-.8a3.617,3.617,0,0,0-.017-.415v-.166a.621.621,0,0,0-.017-.183v-.083c-.017-.183-.033-.382-.05-.565-.017-.1-.017-.2-.033-.3-.017-.166-.05-.332-.066-.5-.017-.15-.05-.282-.066-.432a3.07,3.07,0,0,1-.066-.382,7.543,7.543,0,0,0-.2-.831,14.475,14.475,0,0,0-1.113-2.875,45.875,45.875,0,0,0-34.976-27.117c-.864-.133-1.745-.249-2.625-.332-1.462-.133-2.941-.216-4.436-.216a45.662,45.662,0,0,0-24.159,6.945c-.3.183-.6.382-.9.582-.066.05-.15.1-.216.15-.283.2-.548.4-.814.6a1.755,1.755,0,0,0-.2.166c-.2.15-.4.316-.6.482l-.282.233c-.216.2-.432.382-.648.582-.116.1-.233.216-.332.316-.133.116-.249.249-.366.366-.183.183-.366.382-.548.582-.1.116-.216.233-.316.349l-.382.432a3.49,3.49,0,0,0-.233.282l-.6.748c-.066.1-.15.2-.216.3-.116.15-.233.316-.332.465-.133.183-.249.366-.382.548-.116.166-.216.349-.332.515-.083.15-.183.282-.266.432-.083.133-.15.266-.233.4-.133.249-.283.5-.415.764a3.1,3.1,0,0,0-.166.332c-.15.282-.282.565-.415.847a.809.809,0,0,0-.05.116c-.133.3-.266.615-.382.914a1.722,1.722,0,0,1-.066.166c-.133.332-.249.681-.366,1.014,0,.033-.017.05-.017.083-.116.349-.233.7-.332,1.063,0,.017-.017.033-.017.05-.1.349-.183.7-.266,1.047a.236.236,0,0,1-.033.1c-.017.05-.017.1-.033.133-.066.282-.116.565-.166.847-.033.2-.066.4-.1.582-.017.133-.05.282-.066.415a24.467,24.467,0,0,0-.249,3.107V205.4a24.126,24.126,0,0,0,36.92,20.371,18.925,18.925,0,0,1,10.019-2.875,19.185,19.185,0,0,1,8.757,2.127,26.336,26.336,0,0,0,4.918,2.127,14.93,14.93,0,0,0,3.423.4,15.126,15.126,0,0,0,15.137-15.1V212.2Zm-73.99-15.187a20.007,20.007,0,0,1,.366-3.473c.017-.083.033-.15.05-.233l.2-.847c.017-.083.05-.183.066-.266.1-.349.2-.7.316-1.047,0-.017.017-.017.017-.033.116-.332.233-.665.366-.98l.1-.249c.116-.266.233-.532.349-.781.033-.083.066-.15.1-.216.15-.3.3-.6.465-.9.017-.017.017-.033.033-.05a21.221,21.221,0,0,1,1.246-1.927c.017-.017.033-.05.05-.066.216-.282.432-.565.665-.831.017-.033.05-.05.066-.083a18.642,18.642,0,0,1,1.579-1.662.229.229,0,0,1,.066-.05c.249-.233.5-.449.748-.665.066-.066.15-.116.216-.183.216-.183.432-.349.665-.515.083-.066.166-.116.249-.183.3-.216.615-.415.914-.615a40.529,40.529,0,0,1,58.7,18.444.776.776,0,0,0,.083.166,10.731,10.731,0,0,1,.764,1.944.719.719,0,0,0,.017.083c.033.15.066.3.1.432a8.2,8.2,0,0,1,.2,1.578v.083a8.067,8.067,0,0,1,0,.9v.066a11.865,11.865,0,0,1-.233,1.695,9.92,9.92,0,0,1-9.7,7.726h0a9.54,9.54,0,0,1-2.26-.266,25.581,25.581,0,0,1-3.373-1.479,1.06,1.06,0,0,0-.233-.133A24.248,24.248,0,0,0,310,209.638a23.987,23.987,0,0,0-12.761,3.672,18.965,18.965,0,0,1-28.995-15.685v-.515c.033-.017.033-.066.033-.1Zm58.853,25.372a9.441,9.441,0,0,1-2.26-.266,23.636,23.636,0,0,1-3.373-1.5,1.06,1.06,0,0,0-.233-.133,24.454,24.454,0,0,0-11.232-2.758,23.987,23.987,0,0,0-12.761,3.672,18.958,18.958,0,0,1-26.12-6.048c-.05-.083-.1-.15-.15-.233A24.151,24.151,0,0,0,300.01,217.7a18.925,18.925,0,0,1,10.019-2.875,19.134,19.134,0,0,1,8.757,2.127,25.87,25.87,0,0,0,4.918,2.127,14.93,14.93,0,0,0,3.423.4h0a15.172,15.172,0,0,0,9.105-3.024,9.91,9.91,0,0,1-9.105,5.932Zm0,0" transform="translate(-263.09 -169.81)" fill="#b0db20"/></g></svg>