<svg xmlns="http://www.w3.org/2000/svg" width="100" height="100" viewBox="0 0 124.519 124.179"><path d="M493.42,181.561v69.853c0,4.736,4.652,5.965,4.652,5.965l54.4,16.732a11.443,11.443,0,0,0,6.414,0l54.5-16.782s4.553-1.2,4.553-5.932V173.552c0-4.736-4.652-5.965-4.652-5.965l-54.4-16.732a11.25,11.25,0,0,0-6.414,0l-54.5,16.765a6.24,6.24,0,0,0-4.536,5.932v8.009Z" transform="translate(-493.42 -150.39)" fill="#fff"/><g transform="translate(31.809 19.889)"><path d="M580.749,193.083a18.142,18.142,0,0,0-28.862-14.622,18.549,18.549,0,0,0-6.414,8.358,3.489,3.489,0,0,1-2.642-1.047c-1.529-1.6-1.412-4.52-1.412-4.553V163.091a.738.738,0,0,0-.731-.731h-7.211a.738.738,0,0,0-.731.731v21.9c0,3.672,1.03,6.58,3.091,8.64a12.417,12.417,0,0,0,8.441,3.257c-.582,3.955-2.575,9.936-9.255,11.515-13.06,3.074-18.726,6.43-20.089,19.258-1.3,12.146-2.343,18.244-2.359,18.311a.714.714,0,0,0,.166.6.735.735,0,0,0,.565.266h6.563a.74.74,0,0,0,.731-.681q.025-.3.05-.7c.964-16.549,4.254-20.022,6.829-20.022a5.017,5.017,0,0,1,2.509.831,24.246,24.246,0,0,0,12.761,3.655,26.874,26.874,0,0,0,4.652-.415c8.225-1.4,15.12-4.171,20.454-8.241A32.19,32.19,0,0,0,577.675,209a34.712,34.712,0,0,0,3.074-15.918Zm-2.708,10.6" transform="translate(-512.564 -162.36)" fill="#b0db20"/><path d="M547.4,172.26a12.378,12.378,0,0,0-7.344,2.409,12.786,12.786,0,0,0-4.519,6.065.729.729,0,0,0,.449.93.605.605,0,0,0,.233.033.713.713,0,0,0,.681-.482,11.3,11.3,0,0,1,10.5-7.494.738.738,0,0,0,.731-.731.717.717,0,0,0-.731-.731Zm0,0" transform="translate(-497.393 -155.81)" fill="#b0db20"/><path d="M580.749,193.083a18.142,18.142,0,0,0-28.862-14.622,18.549,18.549,0,0,0-6.414,8.358,3.489,3.489,0,0,1-2.642-1.047c-1.529-1.6-1.412-4.52-1.412-4.553V163.091a.738.738,0,0,0-.731-.731h-7.211a.738.738,0,0,0-.731.731v21.9c0,3.672,1.03,6.58,3.091,8.64a12.417,12.417,0,0,0,8.441,3.257c-.582,3.955-2.575,9.936-9.255,11.515-13.06,3.074-18.726,6.43-20.089,19.258-1.3,12.146-2.343,18.244-2.359,18.311a.714.714,0,0,0,.166.6.735.735,0,0,0,.565.266h6.563a.74.74,0,0,0,.731-.681q.025-.3.05-.7c.964-16.549,4.254-20.022,6.829-20.022a5.017,5.017,0,0,1,2.509.831,24.246,24.246,0,0,0,12.761,3.655,26.874,26.874,0,0,0,4.652-.415c8.225-1.4,15.12-4.171,20.454-8.241A32.19,32.19,0,0,0,577.675,209a34.712,34.712,0,0,0,3.074-15.918Zm-6.032,18.327H562.97a.731.731,0,1,0,0,1.462h10.817c-5.4,8.009-14.339,13.126-26.685,15.2a25.774,25.774,0,0,1-4.42.382,22.8,22.8,0,0,1-12-3.439,6.344,6.344,0,0,0-3.273-1.047c-5.7,0-7.411,10.584-8.009,17.4H515.7a.731.731,0,0,0,0,1.462h3.589c-.066.98-.116,1.844-.166,2.526H514.1c.332-2.077,1.2-7.926,2.227-17.546a23.122,23.122,0,0,1,2.443-8.939H526.2a.731.731,0,0,0,0-1.462h-6.48a12.615,12.615,0,0,1,1.994-2.11h20.6a.731.731,0,1,0,0-1.462H523.773c2.825-1.678,6.58-2.858,11.531-4.038a12.371,12.371,0,0,0,8.059-5.932c.133-.216.249-.449.365-.681a16.673,16.673,0,0,1,5.616.93,18.34,18.34,0,0,0,6.148,1,15.569,15.569,0,0,0,5.9-1.03,15.964,15.964,0,0,1,10.834,0,15.205,15.205,0,0,0,5.35,1.03,35.242,35.242,0,0,1-1.313,3.323,26.483,26.483,0,0,1-1.545,2.974Zm3.323-7.726a14.14,14.14,0,0,1-5.317-.947,15.245,15.245,0,0,0-5.9-1.03,15.569,15.569,0,0,0-5.9,1.03,14.132,14.132,0,0,1-5.417.947,16.679,16.679,0,0,1-5.716-.93,18.01,18.01,0,0,0-5.367-.98,21.074,21.074,0,0,0,1.362-5.55.738.738,0,0,0-.2-.582.751.751,0,0,0-.582-.216s-.183.017-.5.017c-1.462,0-5.134-.282-7.693-2.841a8.006,8.006,0,0,1-1.1-1.379h6.248a.731.731,0,1,0,0-1.462h-7a10.336,10.336,0,0,1-.582-2.077h2.443a.731.731,0,0,0,0-1.462h-2.625q-.05-.6-.05-1.246V163.789h5.749v17.347c-.017.316-.1,3.606,1.811,5.6a5.12,5.12,0,0,0,4.27,1.5.7.7,0,0,0,.631-.482,17.1,17.1,0,0,1,15.918-11.365,16.735,16.735,0,0,1,14.9,9.155h-4.287a.731.731,0,0,0,0,1.462h4.952a16.611,16.611,0,0,1,1.163,6.115v.066a31.114,31.114,0,0,1-1.23,10.5Zm0,0" transform="translate(-512.564 -162.36)" fill="#fff"/><path d="M547.4,172.26a12.378,12.378,0,0,0-7.344,2.409,12.786,12.786,0,0,0-4.519,6.065.729.729,0,0,0,.449.93.605.605,0,0,0,.233.033.713.713,0,0,0,.681-.482,11.3,11.3,0,0,1,10.5-7.494.738.738,0,0,0,.731-.731.717.717,0,0,0-.731-.731Zm0,0" transform="translate(-497.393 -155.81)" fill="#fff"/></g></svg>