<svg xmlns="http://www.w3.org/2000/svg" width="100" height="100" viewBox="0 0 124.536 124.179"><path d="M370.45,31.155v69.853c0,4.736,4.652,5.965,4.652,5.965l54.417,16.749a11.443,11.443,0,0,0,6.414,0l54.5-16.782s4.553-1.2,4.553-5.932V23.162c0-4.736-4.652-5.965-4.652-5.965L435.916.465a11.25,11.25,0,0,0-6.414,0L375,17.231a6.24,6.24,0,0,0-4.536,5.932v7.992Z" transform="translate(-370.45 0)" fill="#fff"/><g transform="translate(23.345 21.268)"><path d="M454.253,43.492c-4.42.282-10.219,4.686-15.818,7.228-6.862,3.107-17.563.615-17.563.615,1.645-.781,8.341-2.359,9.687-2.974,7.178-3.157,6.563-9.737,3.157-9.67-4.52.083-7.161,1.18-16.167,2.409-6.829.93-14.9.582-18.776,2.06C393.306,45.253,384.5,59.294,384.5,59.294l13.625,13.193s8.424-8.291,12.528-8.291c9.338,0,9.72-.133,18.394-.6,3.689-.2,4.453-.349,6.58-1.063,11.249-3.805,23.312-13.924,23.545-15.154.5-2.808-2.576-4.021-4.918-3.888Zm0,0" transform="translate(-384.5 4.328)" fill="#b0db20"/><path d="M415.412,39.463a.561.561,0,0,0,.6-.249c3.124-5.035,7.843-11.133,14.007-15.27a55.544,55.544,0,0,0-12.262,16.765.567.567,0,0,0,.033.515.538.538,0,0,0,.415.282,10.014,10.014,0,0,0,1.246.083c3.938,0,7.843-2.393,10.451-4.4a35.275,35.275,0,0,0,7.61-8.125,30.9,30.9,0,0,0,4.752-14.506.564.564,0,0,0-.166-.449.53.53,0,0,0-.432-.166c-3.921.282-13.642,1.529-19.324,7.211a26.954,26.954,0,0,0-4.237,5.184c-2.675,4.22-3.755,8.59-3.124,12.661a.548.548,0,0,0,.432.465Zm0,0" transform="translate(-364.451 -12.047)" fill="#b0db20"/><path d="M410.5,41.753c2.476,1.911,6.214,4.2,9.953,4.2a9.17,9.17,0,0,0,1.18-.083.538.538,0,0,0,.4-.282.5.5,0,0,0,.017-.482,52.339,52.339,0,0,0-11.681-15.984c5.882,3.955,10.368,9.77,13.359,14.572a.541.541,0,0,0,1-.2c.6-3.871-.432-8.025-2.974-12.063a26.528,26.528,0,0,0-4.038-4.952c-5.417-5.4-14.688-6.613-18.427-6.862a.478.478,0,0,0-.415.166.5.5,0,0,0-.15.415,29.718,29.718,0,0,0,4.536,13.824,33.96,33.96,0,0,0,7.245,7.726Zm0,0" transform="translate(-375.094 -8.289)" fill="#b0db20"/><path d="M412.161,27.538c1.645,1.279,4.137,2.791,6.63,2.791a5.97,5.97,0,0,0,.781-.05.347.347,0,0,0,.266-.183.386.386,0,0,0,.017-.332,35.3,35.3,0,0,0-7.776-10.651,32.085,32.085,0,0,1,8.889,9.7.344.344,0,0,0,.366.166.393.393,0,0,0,.3-.3,11.7,11.7,0,0,0-1.994-8.025,16.3,16.3,0,0,0-2.692-3.29c-3.606-3.606-9.787-4.4-12.262-4.569a.451.451,0,0,0-.283.1.351.351,0,0,0-.1.282,19.77,19.77,0,0,0,3.024,9.205,22.331,22.331,0,0,0,4.835,5.151Zm0,0" transform="translate(-371.402 -12.8)" fill="#b0db20"/></g></svg>