<svg xmlns="http://www.w3.org/2000/svg" width="100" height="100" viewBox="0 0 124.519 124.179"><path d="M616.07,181.561v69.853c0,4.736,4.652,5.965,4.652,5.965l54.4,16.732a11.443,11.443,0,0,0,6.414,0l54.5-16.782s4.553-1.2,4.553-5.932V173.552c0-4.736-4.652-5.965-4.652-5.965l-54.4-16.732a11.25,11.25,0,0,0-6.414,0l-54.5,16.765a6.24,6.24,0,0,0-4.536,5.932v8.009Z" transform="translate(-616.07 -150.39)" fill="#fff"/><g transform="translate(28.608 32.749)"><path d="M700.353,173.739c-2.974-2.094-12.2-7.211-22.448.366a35.518,35.518,0,0,0-21.368,0c-10.252-7.577-19.457-2.459-22.448-.366a1.9,1.9,0,0,0-.764,1.927l3.473,16.7a26.167,26.167,0,0,0-1.512,8.773,26.964,26.964,0,0,0,7.926,18.909c1.1,1.23,6.53,7.444,9.371,13.309a3.79,3.79,0,0,0,3.39,2.143h3.788a3.765,3.765,0,0,0,3.772-3.755v-2.094a33.552,33.552,0,0,0,3.672.183c1.246,0,2.476-.066,3.689-.183v2.094a3.751,3.751,0,0,0,3.755,3.755h3.788a3.761,3.761,0,0,0,3.39-2.143c2.841-5.865,8.275-12.08,9.371-13.309a26.965,26.965,0,0,0,7.926-18.909,26.17,26.17,0,0,0-1.512-8.773l3.473-16.7a1.823,1.823,0,0,0-.731-1.927Zm-46.491,18.892v-4.47a1.886,1.886,0,0,1,1.878-1.878h.2a1.886,1.886,0,0,1,1.878,1.878v4.47a1.886,1.886,0,0,1-1.878,1.878h-.2a1.876,1.876,0,0,1-1.878-1.878Zm13.376,24.824c-7.062,0-12.794-4.436-12.794-9.9s5.733-9.9,12.794-9.9,12.794,4.436,12.794,9.9-5.732,9.9-12.794,9.9Zm13.542-24.824a1.886,1.886,0,0,1-1.878,1.878h-.2a1.886,1.886,0,0,1-1.878-1.878v-4.47a1.886,1.886,0,0,1,1.878-1.878h.2a1.886,1.886,0,0,1,1.878,1.878Zm0,0" transform="translate(-633.287 -170.099)" fill="#b0db20"/><path d="M654.178,193.718a2.516,2.516,0,1,1-2.509-2.708,2.619,2.619,0,0,1,2.509,2.708Zm0,0" transform="translate(-622.786 -156.266)" fill="#b0db20"/><path d="M660.278,193.718a2.516,2.516,0,1,1-2.509-2.708,2.619,2.619,0,0,1,2.509,2.708Zm0,0" transform="translate(-618.75 -156.266)" fill="#b0db20"/></g></svg>