<svg xmlns="http://www.w3.org/2000/svg" width="100" height="100" viewBox="0 0 124.519 124.163"><path d="M2.83,31.155v69.853c0,4.736,4.652,5.965,4.652,5.965l54.4,16.732a11.423,11.423,0,0,0,6.414,0l54.5-16.782s4.553-1.2,4.553-5.932V23.162c0-4.736-4.652-5.965-4.652-5.965L68.3.465a11.25,11.25,0,0,0-6.414,0L7.366,17.231A6.24,6.24,0,0,0,2.83,23.162Z" transform="translate(-2.83 0)" fill="#fff"/><path d="M75.016,44.623c3.207-9.753,7.577-23.113-1.429-28.8A17.624,17.624,0,0,0,64.05,12.77a21.128,21.128,0,0,0-8.557,2.177,12.159,12.159,0,0,1-4.187,1.3,12.127,12.127,0,0,1-4.2-1.3,21.464,21.464,0,0,0-8.541-2.177,17.666,17.666,0,0,0-9.537,3.057c-9.006,5.683-4.636,19.042-1.446,28.8a46.791,46.791,0,0,1,2.276,8.308,66.8,66.8,0,0,1-.332,10.7c-.449,5.766-.93,11.731.366,16.483,2.177,8.009,9.189,13.874,9.488,14.123a1.288,1.288,0,0,0,.781.282,1.158,1.158,0,0,0,.631-.166,1.217,1.217,0,0,0,.582-1.279c-.033-.15-2.692-14.555.648-23.761,2.791-7.66,7.527-11.648,9.288-11.648s6.48,4,9.272,11.648c3.34,9.205.665,23.611.631,23.761a1.217,1.217,0,0,0,.582,1.279,1.2,1.2,0,0,0,1.412-.116c.3-.249,7.328-6.115,9.5-14.123,1.3-4.752.831-10.717.366-16.5a68.362,68.362,0,0,1-.316-10.684A47.547,47.547,0,0,1,75.016,44.623ZM59.946,27.774a2.476,2.476,0,1,1-2.459,2.476A2.482,2.482,0,0,1,59.946,27.774Zm-17.015,0a2.476,2.476,0,1,1-2.476,2.476A2.482,2.482,0,0,1,42.931,27.774ZM69.633,41.7C63.319,46.916,57.354,48.66,52.2,48.66c-10.269,0-17.3-6.945-17.413-7.045a1.264,1.264,0,0,1,.017-1.795,1.249,1.249,0,0,1,1.795.017c.582.582,14.306,14.04,31.4-.083A1.268,1.268,0,1,1,69.633,41.7Z" transform="translate(10.954 8.448)" fill="#b0db20"/></svg>