<svg xmlns="http://www.w3.org/2000/svg" width="100" height="100" viewBox="0 0 124.519 124.163"><path d="M247.91,31.155v69.853c0,4.736,4.652,5.965,4.652,5.965l54.4,16.732a11.443,11.443,0,0,0,6.414,0l54.5-16.782s4.553-1.2,4.553-5.932V23.162c0-4.736-4.652-5.965-4.652-5.965L313.376.465a11.25,11.25,0,0,0-6.414,0l-54.5,16.765a6.24,6.24,0,0,0-4.536,5.932v7.992Z" transform="translate(-247.91 0)" fill="#fff"/><g transform="translate(27.981 26.639)"><path d="M312,16.593a1.305,1.305,0,0,0-1.628-.432A60.019,60.019,0,0,0,284.32,40.852,74.237,74.237,0,0,1,295.154,68.7c.283-11.614,2.575-36.655,16.682-50.412A1.314,1.314,0,0,0,312,16.593Zm0,0" transform="translate(-251.803 -16.033)" fill="#b0db20"/><path d="M272.806,22.506a1.322,1.322,0,0,0-.714-.216,1.377,1.377,0,0,0-.964.415,1.308,1.308,0,0,0-.066,1.695C285.268,42.611,281.33,74.032,280.2,81.26a1.324,1.324,0,0,0,.3,1.063,1.351,1.351,0,0,0,1,.465H299.79a1.333,1.333,0,0,0,1.313-1.329c-.449-35.392-17.829-52.074-28.3-58.953Zm0,0" transform="translate(-260.759 -11.893)" fill="#b0db20"/><path d="M265.714,41.561a.62.62,0,0,0-.831.9c6.729,8.64,4.868,23.528,4.337,26.951a.522.522,0,0,0,.15.482.629.629,0,0,0,.465.2h8.673a.624.624,0,0,0,.631-.615c-.216-16.765-8.457-24.658-13.426-27.915Zm0,0" transform="translate(-264.75 0.788)" fill="#b0db20"/><path d="M311.67,35.191a.84.84,0,0,0-1.1-.133c-6.862,4.486-18.211,15.4-18.493,38.532a.816.816,0,0,0,.249.6.838.838,0,0,0,.615.233h11.963a.867.867,0,0,0,.648-.282.856.856,0,0,0,.2-.681c-.748-4.736-3.323-25.273,5.965-37.17a.834.834,0,0,0-.05-1.1Zm0,0" transform="translate(-246.669 -3.542)" fill="#b0db20"/></g></svg>