<svg xmlns="http://www.w3.org/2000/svg" width="100" height="100" viewBox="0 0 124.519 124.179"><path d="M2.83,181.561v69.853c0,4.736,4.652,5.965,4.652,5.965l54.4,16.732a11.443,11.443,0,0,0,6.414,0l54.5-16.782s4.553-1.2,4.553-5.932V173.552c0-4.736-4.652-5.965-4.652-5.965L68.3,150.855a11.25,11.25,0,0,0-6.414,0l-54.5,16.765a6.24,6.24,0,0,0-4.536,5.932v8.009Z" transform="translate(-2.83 -150.39)" fill="#fff"/><g transform="translate(28.579 27.848)"><path d="M94,196.078a1.576,1.576,0,0,0-1.412-.9H87.972a34.218,34.218,0,1,0-4,23.362,3.115,3.115,0,0,0-5.4-3.107,28.068,28.068,0,1,1,3.024-20.255H77.006a1.54,1.54,0,0,0-1.412.9,1.523,1.523,0,0,0,.216,1.662l7.776,9.338a1.579,1.579,0,0,0,2.393,0l7.793-9.338A1.559,1.559,0,0,0,94,196.078Zm0,0" transform="translate(-20.03 -167.15)" fill="#b0db20"/><path d="M42.813,171.84a3.117,3.117,0,0,0-3.107,3.124v18.892a5.442,5.442,0,0,0,3.124,9.9,5.522,5.522,0,0,0,2.293-.515l10.834,6.248a3.119,3.119,0,1,0,3.124-5.4l-10.85-6.264a5.417,5.417,0,0,0-2.293-3.988V174.947a3.138,3.138,0,0,0-3.124-3.107Zm0,28.812a2.335,2.335,0,1,1,2.343-2.343,2.337,2.337,0,0,1-2.343,2.343Zm0,0" transform="translate(-8.552 -164.047)" fill="#b0db20"/></g></svg>