<svg xmlns="http://www.w3.org/2000/svg" width="100" height="100" viewBox="0 0 124.519 124.179"><path d="M125.48,181.561v69.853c0,4.736,4.652,5.965,4.652,5.965l54.4,16.732a11.443,11.443,0,0,0,6.414,0l54.5-16.782S250,256.133,250,251.4V173.552c0-4.736-4.652-5.965-4.652-5.965l-54.4-16.732a11.25,11.25,0,0,0-6.414,0l-54.5,16.765a6.24,6.24,0,0,0-4.536,5.932v8.009Z" transform="translate(-125.48 -150.39)" fill="#fff"/><g transform="translate(47.114 27.908)"><text transform="translate(0 68)" fill="#b0db20" font-size="90" font-family="Fester-Semi-condensedHeavy, Fester" font-weight="800"><tspan x="0" y="0">1</tspan></text></g></svg>