<svg xmlns="http://www.w3.org/2000/svg" width="1920" height="545.382" viewBox="0 0 1920 545.382"><g transform="translate(-196.561 -71.451)"><path d="M2116.561,616.833V163.318C1773.85-13.6,1361.537,119.455,1361.537,119.455c-42.7,13.2-63.981,17.226-102.471,32.309-131.111,51.379-298.824,142.109-363.091,162.909-143.992,46.609-267.589,161-267.589,161C504.012,578.6,319.009,608.759,196.561,616.833Z" fill="#b0db20"/><path d="M1184.616,209.077l1.922-25.887S1157,198.329,950.078,261.718c-60.341,18.486-125.964,35.567-220.92,52.818-175.218,31.828-283.641,76.971-496.59,301.8,0,0,165.8-3.821,368.287-68S1184.616,209.077,1184.616,209.077Z" fill="#b0db20" opacity="0.4"/></g></svg>