<?xml version="1.0" encoding="utf-8"?>
<!-- Generator: Adobe Illustrator 23.0.2, SVG Export Plug-In . SVG Version: 6.00 Build 0)  -->
<svg version="1.1" id="Layer_1" xmlns="http://www.w3.org/2000/svg" xmlns:xlink="http://www.w3.org/1999/xlink" x="0px" y="0px"
	 viewBox="0 0 175 175" style="enable-background:new 0 0 175 175;" xml:space="preserve">
<style type="text/css">
	.st0{fill:#FFFFFF;}
	.st1{fill:#B0DB20;}
</style>
<circle class="st0" cx="87.5" cy="87.5" r="87.5"/>
<g>
	<path class="st1" d="M151.51,57.48c-0.43-0.56-1.08-0.91-1.78-0.97L45.51,47.73V36.16c0-1.93-1.57-3.5-3.5-3.5H26.05
		c-1.93,0-3.5,1.57-3.5,3.5c0,1.93,1.57,3.5,3.5,3.5h12.46v74.04c0,1.93,1.57,3.5,3.5,3.5h98.1c1.93,0,3.5-1.57,3.5-3.5
		s-1.57-3.5-3.5-3.5h-94.6V99.23l96.97,0.39h0.01c1.2,0,2.24-0.86,2.46-2.05l7.03-38.12C152.11,58.76,151.94,58.04,151.51,57.48z"/>
	
		<ellipse transform="matrix(0.7071 -0.7071 0.7071 0.7071 -78.4766 73.3807)" class="st1" cx="49.34" cy="131.42" rx="10.79" ry="10.79"/>
	<circle class="st1" cx="133.39" cy="131.42" r="10.79"/>
</g>
</svg>
