<svg xmlns="http://www.w3.org/2000/svg" width="149.746" height="118.559" viewBox="0 0 149.746 118.559"><g transform="translate(-1128.583 -328.385)"><path d="M34.774,1.641a.407.407,0,0,0-.225.127c-3.491,4.6-5.448,11.446-5.814,17.162a.336.336,0,0,0,.253.366,11.547,11.547,0,0,0,1.056,1.816,12.11,12.11,0,0,0,4.942,4.2.3.3,0,0,0,.408-.183c7.476,2.013-.267,14.177-2.351,17.95-1.633,2.942-9.644,18.372-13.726,11.84l-.042-.042a.311.311,0,0,0-.155-.2,21.937,21.937,0,0,0-3-1.14,19.855,19.855,0,0,0-2.8-.943.261.261,0,0,0-.1.028.367.367,0,0,0-.549-.084,54.316,54.316,0,0,0-12.3,12.7.321.321,0,0,0-.253.366.141.141,0,0,1-.056.07.3.3,0,0,0,.183.465,41.65,41.65,0,0,0,2.041,5.843.308.308,0,0,0,.2.479c.014.028.014.042.028.07a.277.277,0,0,0,.408.113h.014c-.211.31.282.648.521.338h0a15.754,15.754,0,0,0,5.167,1.957.322.322,0,0,0,.563.1.014.014,0,0,1,.014-.014,17.393,17.393,0,0,0,2.267.211.3.3,0,0,0,.535.084.3.3,0,0,1,.056-.084q.57,0,1.14-.042a.3.3,0,0,0,.465-.028h0a16.667,16.667,0,0,0,5.336-1.436.265.265,0,0,0,.338-.113c.014-.028.028-.042.042-.07a14.365,14.365,0,0,0,2.8-1.746c2.914-2.337,5.181-5.392,7.447-8.32,2.478-3.21,4.829-6.49,6.983-9.911A130.975,130.975,0,0,0,46.938,33.515a89.236,89.236,0,0,0,3.787-11.178c.746-2.858,1.7-6.068,1.478-9.052a11.5,11.5,0,0,0-3.689-7.279A31.137,31.137,0,0,0,42.053.444a.472.472,0,0,0-.788-.3c-1.253.141-2.506.282-3.745.436h-.042c-.873.1-1.76.211-2.647.338A.373.373,0,0,0,34.774,1.641Zm-32,69.646c-.113-.394-.225-.8-.338-1.2a34.374,34.374,0,0,1,9.827-11.277c.324-.239-.07-.732-.408-.493A34.758,34.758,0,0,0,2.182,69.246c-.127-.436-.267-.873-.422-1.3a41.885,41.885,0,0,1,9.728-10.39c.324-.253-.084-.732-.408-.493A42.464,42.464,0,0,0,1.507,67.19c-.2-.535-.422-1.056-.662-1.563A70.438,70.438,0,0,1,13.079,53.21a.014.014,0,0,0,.014.014,6.367,6.367,0,0,0,.7.324c-.676.577-1.352,1.154-2.027,1.718a.32.32,0,0,0,.408.493L14.473,53.8c.352.113.69.225,1.042.338-.69.732-1.394,1.464-2.084,2.2-.282.3.127.788.408.493.746-.774,1.478-1.563,2.224-2.337a.375.375,0,0,0,.084-.141c.31.113.634.225.957.338-.774.7-1.563,1.408-2.337,2.112-.3.267.1.76.408.493.859-.788,1.732-1.563,2.59-2.351a.014.014,0,0,0,.014-.014,2.838,2.838,0,0,0,.324.1A78.85,78.85,0,0,0,2.774,71.287Zm36.956-34.7a9.8,9.8,0,0,0-4.28-13.769c.028-.282.056-.577.084-.859,2.872,2.464,5.125,4.97,5.955,8.827a13.114,13.114,0,0,1-2.168,9.982.283.283,0,0,0,.465.324,14.763,14.763,0,0,0,2.52-6.406.318.318,0,0,0,.422-.155c.352-.746.718-1.506,1.07-2.253.169-.366-.422-.591-.591-.225-.267.563-.535,1.14-.817,1.7a14.92,14.92,0,0,0,.028-2.379.309.309,0,0,0,.2-.141c.324-.591.634-1.169.957-1.76.2-.352-.324-.718-.507-.366-.239.451-.493.9-.732,1.366a13.3,13.3,0,0,0-1.014-3.618c.451-.69.9-1.394,1.352-2.084.225-.338-.3-.7-.507-.366-.38.591-.76,1.183-1.154,1.774-.127-.239-.267-.465-.408-.7l.028-.028c.479-.788.957-1.577,1.436-2.379.211-.352-.3-.718-.507-.366-.436.718-.873,1.45-1.323,2.168-.141-.2-.3-.394-.451-.591.014-.014.028-.028.028-.042.31-.591.634-1.183.943-1.76.2-.352-.394-.577-.591-.225-.267.507-.535,1-.8,1.506-.169-.2-.366-.366-.549-.549.422-.7.831-1.394,1.253-2.1.211-.352-.31-.718-.521-.366-.408.676-.8,1.337-1.211,2.013-.2-.169-.422-.324-.634-.479.451-.563.9-1.112,1.352-1.675.253-.324-.253-.69-.521-.366-.451.549-.9,1.112-1.352,1.661-.155-.1-.31-.183-.479-.282.408-.7.831-1.408,1.239-2.112.2-.352-.31-.718-.507-.366-.422.732-.859,1.45-1.281,2.182-.141-.07-.282-.169-.422-.239a.9.9,0,0,0-.1-.028A60.127,60.127,0,0,1,41.687,1.219a22.046,22.046,0,0,1,2.689,1.816c-.014.028-.042.056-.056.084C43.855,4.4,43.4,5.7,42.939,6.977a.317.317,0,0,0,.591.225c.451-1.253.9-2.52,1.352-3.773a26.358,26.358,0,0,1,3.182,3.083.354.354,0,0,0-.31.183c-.436.9-.859,1.8-1.3,2.689-.183.366.408.591.591.225.436-.9.859-1.8,1.3-2.689a.106.106,0,0,0,.014-.056,16.739,16.739,0,0,1,1.563,2.21A.243.243,0,0,0,49.6,9.2c-.493.915-1,1.83-1.492,2.745-.2.352.324.718.521.366.493-.915,1-1.83,1.492-2.745a.261.261,0,0,0,.028-.1c.07.113.141.239.2.352a8.994,8.994,0,0,1,.69,1.957.258.258,0,0,0-.45.07c-.366.788-.718,1.577-1.084,2.379-.169.366.422.591.591.225.352-.774.718-1.563,1.07-2.337a9.854,9.854,0,0,1,.183,1.7c-.1.338-.183.662-.282,1a.33.33,0,0,0,.253.408,38.224,38.224,0,0,1-1.492,7.222,106.111,106.111,0,0,1-8.855,21.793,133.634,133.634,0,0,1-14.3,21.681,28.49,28.49,0,0,1-6.575,6.363c.141-.253.3-.507.451-.76.2-.352-.31-.718-.507-.366-.352.591-.69,1.183-1.042,1.788-.38.2-.76.38-1.154.549.38-.676.746-1.352,1.126-2.041.2-.352-.324-.718-.521-.366-.422.774-.845,1.535-1.267,2.309a.347.347,0,0,0,.014.352,10.467,10.467,0,0,1-1.183.352c.38-.662.746-1.337,1.126-2,.2-.352-.31-.718-.521-.366-.436.76-.859,1.535-1.3,2.295a.326.326,0,0,0-.028.225c-.366.07-.746.127-1.126.169.422-.591.831-1.2,1.253-1.788.239-.338-.282-.7-.507-.366-.521.746-1.028,1.478-1.549,2.224-.3.014-.577.042-.873.042.436-.7.873-1.422,1.3-2.126.211-.352-.3-.718-.521-.366-.507.831-1.014,1.647-1.52,2.478-.282,0-.549-.014-.831-.028.493-.732,1-1.45,1.492-2.182a.319.319,0,0,0-.521-.366c-.563.831-1.14,1.661-1.7,2.492-.155-.042-.324-.056-.493-.084.465-.634.943-1.267,1.408-1.9.239-.324-.267-.69-.521-.366-.535.732-1.084,1.45-1.619,2.182-.38-.07-.746-.155-1.112-.239.507-.648,1.014-1.309,1.52-1.957.253-.324-.267-.69-.507-.366-.563.718-1.126,1.45-1.689,2.168-.183-.056-.366-.113-.563-.183.648-.859,1.3-1.732,1.943-2.59.239-.324-.267-.69-.521-.366-.69.915-1.38,1.844-2.07,2.759-.3-.113-.577-.225-.859-.352.929-1.014,1.872-2.041,2.816-3.055.267-.3-.239-.662-.521-.366-.971,1.056-1.943,2.112-2.9,3.168-.225-.113-.451-.239-.676-.366.7-.845,1.394-1.7,2.1-2.548.253-.31-.253-.676-.507-.366-.7.859-1.422,1.732-2.126,2.59a2.277,2.277,0,0,0-.253-.141,122.012,122.012,0,0,1,11-12.29.561.561,0,0,0,.211.422c.253.2.521.366.788.535a.247.247,0,0,0-.07.056c-.8,1.112-1.591,2.224-2.393,3.323a.318.318,0,0,0,.521.366c.8-1.112,1.591-2.224,2.393-3.323a.83.83,0,0,0,.056-.113,5.823,5.823,0,0,0,.605.282.354.354,0,0,0-.169.1c-.774.859-1.535,1.718-2.309,2.576-.267.3.239.662.507.366.774-.859,1.535-1.718,2.309-2.576a.274.274,0,0,0,.056-.282c.155.056.324.113.493.169a.774.774,0,0,0-.127.1c-.746,1.042-1.506,2.084-2.253,3.125a.318.318,0,0,0,.521.366c.746-1.042,1.506-2.084,2.253-3.125a.3.3,0,0,0,0-.352c.324.084.648.169.971.225a.317.317,0,0,0-.2.113c-.732.957-1.45,1.915-2.182,2.886-.239.324.267.69.521.366.732-.957,1.45-1.915,2.182-2.886a.29.29,0,0,0-.127-.451c.225.028.436.084.662.1-.436.774-.859,1.535-1.3,2.309-.2.352.31.718.521.366.465-.845.943-1.675,1.408-2.52a.315.315,0,0,0,.042-.141,12.233,12.233,0,0,0,4.857-.887c4.744-1.915,7.9-6.265,10.77-10.277a.277.277,0,0,0-.451-.324c-4.421,5.983-12.234,14.613-20.174,8.588a.616.616,0,0,0-.239-.113c.07-.07.141-.127.225-.2a9.862,9.862,0,0,0,13.684-2.154c.239-.324-.267-.69-.521-.366a9.238,9.238,0,0,1-12.7,2.084c1.126-1.042,2.281-2.055,3.477-3.041h0c1.549,2.6,4.829,2.041,6.828.2,3.407-3.125,5.814-8.053,8.025-12.065,1.746-3.154,7.856-13.079,4.913-17.345a9.147,9.147,0,0,1,.577,9.982C39.026,36.57,39.533,36.936,39.73,36.584ZM35.295,24.406c.028-.31.07-.619.1-.929a9.229,9.229,0,0,1,2.928,2.337,4.914,4.914,0,0,0-2.844-1.422A.355.355,0,0,0,35.295,24.406ZM34.971,1.669c.648-.07,1.3-.141,1.929-.225-.436.774-.873,1.549-1.3,2.323-.2.352.31.718.521.366.521-.929,1.042-1.858,1.549-2.788,1.056-.127,2.126-.267,3.182-.422a51.724,51.724,0,0,0-6.195,23.384c-.014-.014-.028-.014-.042-.028a.292.292,0,0,0-.169-.2c-.141-.07-.267-.155-.408-.225a54.509,54.509,0,0,1,4.59-19.133c.169-.366-.422-.591-.591-.225a55.109,55.109,0,0,0-4.6,18.936c-.3-.225-.563-.465-.845-.7A83.684,83.684,0,0,1,36.309,6.371c.127-.38-.465-.605-.591-.225a84.626,84.626,0,0,0-3.689,16.035,16.871,16.871,0,0,1-1.323-1.675c.648-2.942,1.281-5.885,1.929-8.827.084-.394-.549-.465-.634-.07-.605,2.745-1.2,5.491-1.8,8.236a2.194,2.194,0,0,0-.225-.282.338.338,0,0,0-.225-.127c-.1-.2-.2-.38-.282-.577a55.389,55.389,0,0,1,2.112-8.94c.957-2.731,2.407-5.181,3.59-7.8A.3.3,0,0,0,34.971,1.669Z" transform="translate(1226.093 328.37)" fill="#2c2c2c"/><g transform="matrix(0.899, -0.438, 0.438, 0.899, 1128.583, 407.56)"><path d="M.732,3.447A2.454,2.454,0,0,0,.065,5.941,22.4,22.4,0,0,0,.148,9.186c.371,5.423.8,10.837,1.224,16.25.222,2.855.454,5.71.723,8.556a17.912,17.912,0,0,0,1.057,5.321c1.483,3.569,4.867,4.524,8.454,4.505,10.985-.074,22.026-.973,32.992-1.483,2.725-.13,5.451-.241,8.176-.38a11.065,11.065,0,0,0,5.071-1.066c3.569-2.123,2.735-7.082,2.568-10.531-.3-6.081-.463-12.172-.7-18.262-.12-3.263.667-9.641-3.541-10.577a.4.4,0,0,0-.426-.269c-.028-.009-.046-.019-.074-.028A169.388,169.388,0,0,0,27.828.138C23.323.3,18.818.6,14.341,1.121A81.694,81.694,0,0,0,1.631,3.132,1.5,1.5,0,0,0,.732,3.447ZM57.251,39.879a8.109,8.109,0,0,1-3.346.834,11.506,11.506,0,0,0,.908-1.353.214.214,0,0,0-.334-.26A9.408,9.408,0,0,0,53.2,40.759c-.352.019-.7.028-1.048.046a6.859,6.859,0,0,0,.575-.853c.074-.139-.093-.25-.213-.158a8.442,8.442,0,0,0-.955.955c-.028.028-.046.056-.074.083-.973.046-1.947.093-2.911.13.056-.056.111-.121.167-.176q.528-.556,1.029-1.14a.164.164,0,0,0-.232-.232q-.584.5-1.14,1.029c-.185.176-.38.352-.556.547-.51.019-1.02.046-1.53.074.056-.093.1-.176.158-.26a7.067,7.067,0,0,0,.7-1.372c.037-.13-.121-.195-.213-.121a6.459,6.459,0,0,0-1.02,1.177,7.186,7.186,0,0,0-.426.612c-.158.009-.315.019-.473.019l-1.094.056c.028-.046.046-.093.074-.139.269-.473.547-.955.779-1.446.046-.1-.093-.241-.176-.13-.324.417-.612.853-.9,1.289-.093.148-.2.3-.306.454-.714.037-1.418.065-2.132.1a6.666,6.666,0,0,0,.482-.528,8.111,8.111,0,0,0,.853-1.159c.046-.083-.056-.2-.148-.148a7.755,7.755,0,0,0-1.149.983,3.77,3.77,0,0,0-.714.881l-1.789.083c.185-.176.352-.38.519-.547a6.443,6.443,0,0,0,1.038-1.307.089.089,0,0,0-.121-.121,6.719,6.719,0,0,0-1.316,1.029,3.743,3.743,0,0,0-.89.983l-1.205.056c.046-.056.093-.111.139-.158a5.762,5.762,0,0,0,.862-1.14c.065-.13-.074-.287-.2-.2a5.681,5.681,0,0,0-1.066.936,5.786,5.786,0,0,0-.556.6l-1.733.083a6.231,6.231,0,0,0,1.14-1.3c.074-.093-.028-.269-.139-.185-.306.232-.612.464-.9.723a2.066,2.066,0,0,0-.64.779c-.649.028-1.3.065-1.956.093a6.369,6.369,0,0,0,1.771-1.984.068.068,0,0,0-.093-.093,6.2,6.2,0,0,0-2,2.012.074.074,0,0,0-.009.074l-1.771.083c.065-.074.139-.148.2-.213a9.339,9.339,0,0,0,.853-1.048c.046-.065-.046-.158-.111-.111a9.176,9.176,0,0,0-1.066.834,5.427,5.427,0,0,0-.565.565l-1.715.083q.32-.431.612-.89c.093-.139-.121-.306-.241-.185-.278.287-.565.565-.834.871l-.2.232c-.5.028-1,.046-1.5.074.111-.13.222-.278.334-.408.278-.334.519-.7.788-1.038.056-.074-.056-.148-.121-.093-.334.306-.686.593-1.01.908a3.055,3.055,0,0,0-.593.658l-1.7.083.056-.056c.343-.343.677-.7,1.01-1.057.1-.1-.046-.241-.158-.158-.389.306-.779.593-1.159.908-.148.13-.315.25-.464.389-.445.019-.9.046-1.344.065a9.608,9.608,0,0,0,.779-1.242.087.087,0,0,0-.139-.1,9.2,9.2,0,0,0-1.168,1.085l-.278.306c-.5.028-1.02.065-1.548.1a9.1,9.1,0,0,0,.806-1.233.077.077,0,0,0-.121-.093A8.618,8.618,0,0,0,17.956,42.2c-.074.083-.158.176-.25.269-.649.056-1.3.121-1.965.176.093-.111.185-.222.278-.324a13.125,13.125,0,0,0,1.112-1.455c.046-.074-.056-.13-.111-.083a14.075,14.075,0,0,0-1.428,1.251c-.2.2-.454.436-.658.677-.565.037-1.122.074-1.687.093.148-.195.278-.4.408-.565a8.42,8.42,0,0,0,.9-1.289.06.06,0,0,0-.093-.074,8.855,8.855,0,0,0-1.112,1.168,5.119,5.119,0,0,0-.677.788c-.575.009-1.149-.009-1.706-.046a2.34,2.34,0,0,1,.241-.269A8.266,8.266,0,0,0,12.3,41.139a.083.083,0,0,0-.111-.111,7.779,7.779,0,0,0-1.344,1.122c-.167.167-.408.352-.6.565-.3-.028-.593-.074-.881-.121.083-.121.158-.241.232-.334a5.8,5.8,0,0,0,1.038-1.6.058.058,0,0,0-.083-.065,5.69,5.69,0,0,0-1.335,1.372c-.13.158-.306.324-.464.51-.148-.037-.315-.056-.464-.093a4.263,4.263,0,0,1-.519-.176c.185-.241.371-.482.538-.732a2.922,2.922,0,0,0,.584-1.112.085.085,0,0,0-.121-.093,2.98,2.98,0,0,0-.927.844c-.232.269-.454.556-.667.844a5.659,5.659,0,0,1-.621-.343,6.112,6.112,0,0,0,1.381-1.474c.019-.028-.009-.083-.046-.065A6.84,6.84,0,0,0,6.22,41.38c-.074-.056-.139-.121-.213-.176a1.025,1.025,0,0,1-.028-.38,1.566,1.566,0,0,1,.111-.408c3.143-2.79,5.886-6.285,8.7-9.344,2.9-3.161,5.933-6.313,8.584-9.7.519.5,1.029,1,1.548,1.5A13.47,13.47,0,0,0,23.9,23.906a6,6,0,0,0-1.214,1.353c-.019.046.019.111.074.093a5.919,5.919,0,0,0,1.483-1.01,13.183,13.183,0,0,0,1.224-.955c.4.389.8.769,1.205,1.159-.408.167-.732.677-1.01.983-.482.519-.927,1.057-1.381,1.6-.019.028.009.074.037.056.547-.4,1.094-.8,1.622-1.233.343-.287.918-.6,1.112-1.038.278.26.547.519.825.788a8.124,8.124,0,0,0-.946,1.029,15.414,15.414,0,0,0-1.279,1.52.068.068,0,0,0,.093.093,18.21,18.21,0,0,0,1.53-1.27,8.277,8.277,0,0,0,1.048-.955c.38.362.769.714,1.149,1.066-.121.121-.241.241-.352.334a9.182,9.182,0,0,0-1.187,1.214.137.137,0,0,0,.167.213,9.888,9.888,0,0,0,1.307-.9c.148-.121.362-.26.556-.408l.519.464c-.074.093-.158.176-.232.269a5.93,5.93,0,0,0-.714.881c-.074.13.083.315.213.213a6.179,6.179,0,0,0,.853-.853c.065-.074.13-.148.195-.213.306.278.612.556.927.825a.378.378,0,0,0,.528,0c2.568-2.957,5.163-5.886,7.768-8.816.121.167.25.334.389.491a5.452,5.452,0,0,0-.612.732c-.408.519-.825,1.02-1.279,1.5-.046.056.028.13.074.074.445-.426.9-.834,1.381-1.214a6.4,6.4,0,0,0,.806-.667c.315.334.649.658,1,.964q-.362.375-.7.751a8.726,8.726,0,0,0-.955,1.149c-.056.083.056.185.139.139a8.726,8.726,0,0,0,1.149-.955l.779-.723,1.261,1.094c-.222.222-.426.491-.593.677A5.829,5.829,0,0,0,41.752,25.8a.056.056,0,0,0,.074.074,6.293,6.293,0,0,0,1.39-1.094c.195-.176.473-.38.7-.6.362.343.714.7,1.066,1.038a6.688,6.688,0,0,0-.593.547,12.5,12.5,0,0,0-1.085,1.131c-.074.083.019.241.13.167a13.027,13.027,0,0,0,1.214-.918,6.832,6.832,0,0,0,.686-.593c.38.371.76.732,1.131,1.1a6.863,6.863,0,0,0-.593.538c-.426.38-.825.779-1.214,1.2-.083.093.028.241.13.176a15.489,15.489,0,0,0,1.289-.918,8.289,8.289,0,0,0,.76-.6c.324.324.64.658.964.992-.176.158-.343.324-.5.464a17.063,17.063,0,0,0-1.418,1.418.084.084,0,0,0,.1.13A15.516,15.516,0,0,0,47.527,29c.2-.167.473-.334.7-.528.185.195.38.38.556.575.056.065.111.121.176.185-.065.074-.13.139-.185.2A15.238,15.238,0,0,1,47.657,30.5a.047.047,0,0,0,.056.074,14.8,14.8,0,0,1,1.3-.844c.083-.046.185-.1.278-.158.25.269.5.547.751.816a8.824,8.824,0,0,0-.871.9,4.931,4.931,0,0,0-.964,1.233.029.029,0,0,0,.037.037,5.174,5.174,0,0,0,1.251-.946,9.492,9.492,0,0,0,.9-.834c.454.5.908,1,1.353,1.511a4.763,4.763,0,0,0-.788.834c-.389.426-.76.862-1.131,1.307a.092.092,0,0,0,.13.13c.445-.371.881-.742,1.307-1.131a5.672,5.672,0,0,0,.816-.76c.306.352.621.7.918,1.066a3.122,3.122,0,0,0-.621.64,10.19,10.19,0,0,0-.806.992c-.148.2.167.417.334.26a12.189,12.189,0,0,0,.946-1.01,3.107,3.107,0,0,0,.445-.547c.806.955,1.594,1.928,2.355,2.92a5.529,5.529,0,0,0-.742.463,11.273,11.273,0,0,0-1,.751c-.111.093.028.25.148.195a13.02,13.02,0,0,0,1.214-.677,7.276,7.276,0,0,0,.612-.436c.612.806,1.224,1.613,1.817,2.438A.862.862,0,0,0,57.251,39.879ZM55.713,2.391c3.189.334,2.939,4.505,3.041,6.8q.139,3.309.287,6.619c.185,4.125.389,8.25.556,12.366.121,3.041,1.085,8.25-1.242,10.818a93.619,93.619,0,0,0-8.538-10.577q-2.378-2.5-4.978-4.765a20.714,20.714,0,0,0-4.644-3.532C45.4,14.256,50.633,8.388,55.713,2.391ZM14.35,1.9c4.626-.426,9.261-.742,13.905-.871A225.754,225.754,0,0,1,54.869,2.122C50.661,6.785,46.61,11.586,42.475,16.3c-2.086,2.382-4.134,4.793-6.211,7.184a29.18,29.18,0,0,1-3.439,3.866c-.7.547-.621.871-1.511.362a.869.869,0,0,1-.111-.083.134.134,0,0,0-.111-.083,4.923,4.923,0,0,1-.742-.667.148.148,0,0,0-.111-.121c-.269-.306-.538-.612-.788-.853C22.035,18.7,15.008,10.5,6,5.246a.172.172,0,0,0-.2-.213.861.861,0,0,1-.121.037Q4.491,4.388,3.254,3.79a2.7,2.7,0,0,0-.445-.343A.934.934,0,0,0,2.6,3.336C6.517,3.012,10.429,2.261,14.35,1.9Zm-9.5,3.819c-.25.232-.5.464-.769.7a23.8,23.8,0,0,0-1.965,1.78c-.056.065.019.176.093.13.677-.436,1.3-.955,1.928-1.455A12.194,12.194,0,0,1,5.312,5.95c.13-.083.241-.158.343-.232.408.287.816.584,1.224.881-.862.723-1.733,1.437-2.531,2.216-.009.009,0,.028.019.019,1.02-.575,1.993-1.251,2.976-1.891.5.371.992.751,1.474,1.131-.908.871-1.937,1.65-2.874,2.475-.037.028.009.093.046.065C7.119,9.936,8.232,9.148,9.4,8.537c.51.408,1.01.816,1.511,1.233a16.13,16.13,0,0,0-1.335,1.085c-.769.621-1.539,1.242-2.262,1.919a.071.071,0,0,0,.083.111c.862-.5,1.678-1.048,2.5-1.6a10.619,10.619,0,0,0,1.539-1.066c.343.3.7.584,1.029.881-1.381.964-2.679,2.1-3.949,3.18-.037.037.009.093.056.074a50.376,50.376,0,0,0,4.487-2.735c.51.445,1.02.9,1.52,1.353-1.381,1.02-2.651,2.178-3.949,3.309-.028.028.009.083.046.056,1.5-.927,3.031-1.808,4.44-2.874.38.352.769.7,1.149,1.057-1.214.992-2.392,2.039-3.513,3.124a.047.047,0,0,0,.056.074c1.372-.834,2.716-1.733,4-2.688.408.389.825.779,1.233,1.168a10.674,10.674,0,0,0-1.289,1.094c-.7.612-1.353,1.279-2.049,1.9-.056.046.019.148.083.111.769-.528,1.576-.992,2.336-1.52a9.845,9.845,0,0,0,1.455-1.057c.362.352.732.7,1.094,1.057-.306.278-.575.621-.853.871-.742.658-1.465,1.335-2.151,2.058a.071.071,0,0,0,.083.111c.751-.51,1.465-1.066,2.178-1.632.343-.269.862-.556,1.27-.9.371.362.751.723,1.122,1.094a7.942,7.942,0,0,0-1.4,1.326A13.125,13.125,0,0,0,18.2,22.562c-.046.065.037.139.1.1A12.676,12.676,0,0,0,20.32,21.1a7.916,7.916,0,0,0,1.446-1.289c.352.343.7.686,1.048,1.029C19.476,23.962,16.445,27.5,13.386,30.9c-2.735,3.041-5.905,6.026-8.287,9.381-1.511-1.993-1.724-4.941-1.965-7.583Q2.48,25.631,1.78,18.576q-.334-3.421-.714-6.841C.927,10.511.8,9.288.658,8.064A4.587,4.587,0,0,0,.667,6.636C.612,5.848.454,4.652,1.3,4.18,2.54,3.484,3.569,5.7,4.848,5.719Z" transform="translate(0 0)" fill="#2c2c2c"/><path d="M1.357.01C.782-.1-.117.7.013,1.308a.107.107,0,0,0,.176.046C.4,1.179.495.882.708.687S1.2.409,1.4.214A.116.116,0,0,0,1.357.01Z" transform="translate(52.863 35.335)" fill="#2c2c2c"/><path d="M14.428,12.292C10.081,7.805,4.908,3.856,0,0,0,0-.005,0,0,.009A144.96,144.96,0,0,0,14.261,12.524C14.391,12.607,14.54,12.4,14.428,12.292Z" transform="translate(13.187 9)" fill="#2c2c2c"/><path d="M12.193.215c.1-.139-.111-.287-.222-.176C7.622,4.275,3.794,9.3,0,14.037c-.009.009.009.028.019.019C4.174,9.633,8.605,5.119,12.193.215Z" transform="translate(34.028 10.157)" fill="#2c2c2c"/></g></g></svg>