<svg xmlns="http://www.w3.org/2000/svg" width="167.954" height="75.642" viewBox="0 0 167.954 75.642"><path d="M165.35,48.572c-5.988-10.556,0-21.494,0-21.494l-.007-.007a16.764,16.764,0,0,0,2.6-8.93c0-9.835-8.592-17.816-19.31-18.111V.015c-.081-.007-.169.007-.25,0-.118,0-.235-.015-.36-.015s-.213.015-.324.015C134.226-.28,123.03,15.131,123.03,15.131H44.909S33.713-.28,20.237.015c-.11,0-.213-.015-.324-.015s-.235.015-.353.015c-.088.007-.169-.007-.25,0V.029C8.592.324,0,8.305,0,18.14a16.764,16.764,0,0,0,2.6,8.93l-.007.007s5.98,10.938,0,21.494H2.6A16.783,16.783,0,0,0,0,57.5c0,9.835,8.592,17.816,19.31,18.111v.015c.081.007.162-.007.25,0,.118,0,.235.015.353.015s.213-.015.324-.015c13.476.294,24.672-15.117,24.672-15.117h78.129s11.2,15.411,24.672,15.117c.11,0,.213.015.324.015s.235-.015.36-.015c.081-.007.162.007.25,0v-.015c10.718-.294,19.31-8.276,19.31-18.111a16.914,16.914,0,0,0-2.6-8.93Z" fill="#2c2c2c"/></svg>