<svg xmlns="http://www.w3.org/2000/svg" width="42.23" height="42.117" viewBox="0 0 42.23 42.117"><g transform="translate(-1309.475 -783.814)"><g transform="translate(1309.475 783.814)"><path d="M0,10.565V34.257a2.159,2.159,0,0,0,1.578,2.025l18.45,5.677a3.86,3.86,0,0,0,2.176,0L40.69,36.271a2.121,2.121,0,0,0,1.541-2.014V7.858a2.159,2.159,0,0,0-1.578-2.025L22.2.155a3.86,3.86,0,0,0-2.176,0L1.541,5.844A2.117,2.117,0,0,0,0,7.858Z" transform="translate(0 0.001)" fill="#fff"/></g><path d="M66.5,37.15V34.832a1.223,1.223,0,0,1,1.28-1.378h3.238V28.5H66.549c-4.954,0-6.066,3.673-6.066,6.041V37.15H57.61v5.773h2.9V57.348h5.775V42.923h4.276l.193-2.272.338-3.5H66.5Z" transform="translate(1266.275 761.949)" fill="#b0db20" fill-rule="evenodd"/></g></svg>