<svg xmlns="http://www.w3.org/2000/svg" width="42.232" height="42.117" viewBox="0 0 42.232 42.117"><g transform="translate(-1369.204 -783.814)"><g transform="translate(1369.204 783.814)"><path d="M228.742,10.565V34.257a2.159,2.159,0,0,0,1.578,2.025l18.45,5.677a3.86,3.86,0,0,0,2.176,0l18.485-5.689a2.12,2.12,0,0,0,1.541-2.014V7.858a2.159,2.159,0,0,0-1.578-2.025L250.942.155a3.86,3.86,0,0,0-2.176,0L230.281,5.844a2.117,2.117,0,0,0-1.541,2.014v2.707Z" transform="translate(-228.74 0.001)" fill="#fff"/></g><g transform="translate(1376.909 791.34)"><path d="M281.2,59.393H269.543a7.71,7.71,0,0,1-7.7-7.7V40.033a7.71,7.71,0,0,1,7.7-7.7H281.2a7.71,7.71,0,0,1,7.7,7.7V51.69A7.712,7.712,0,0,1,281.2,59.393ZM269.543,34.651a5.389,5.389,0,0,0-5.384,5.382V51.69a5.39,5.39,0,0,0,5.384,5.384H281.2a5.39,5.39,0,0,0,5.384-5.384V40.033a5.388,5.388,0,0,0-5.384-5.382Z" transform="translate(-261.84 -32.33)" fill="#b0db20"/><g transform="translate(6.602 6.602)"><path d="M297.13,74.55a6.93,6.93,0,1,1,6.93-6.93A6.936,6.936,0,0,1,297.13,74.55Zm0-11.539a4.609,4.609,0,1,0,4.609,4.609A4.614,4.614,0,0,0,297.13,63.011Z" transform="translate(-290.2 -60.69)" fill="#b0db20"/></g><g transform="translate(19.093 4.539)"><path d="M347.191,53.5a1.666,1.666,0,1,1-1.664-1.667A1.664,1.664,0,0,1,347.191,53.5Z" transform="translate(-343.86 -51.83)" fill="#b0db20"/></g></g></g></svg>