<svg xmlns="http://www.w3.org/2000/svg" width="40" height="40" viewBox="0 0 52.267 52.127"><g transform="translate(0 0.001)"><g transform="translate(0 -0.001)"><path d="M0,13.076V42.4a2.672,2.672,0,0,0,1.953,2.506l22.835,7.027a4.778,4.778,0,0,0,2.694,0L50.36,44.891A2.624,2.624,0,0,0,52.267,42.4V9.726a2.672,2.672,0,0,0-1.953-2.506L27.479.192a4.778,4.778,0,0,0-2.694,0L1.907,7.233A2.621,2.621,0,0,0,0,9.726Z" transform="translate(0 0.001)" fill="#b0db20"/></g><path d="M68.613,39.206V36.336A1.514,1.514,0,0,1,70.2,34.631H74.2V28.5H68.673c-6.131,0-7.508,4.546-7.508,7.476v3.23H57.61v7.145H61.2V64.2h7.148V46.351H73.64l.239-2.812L74.3,39.2H68.613Z" transform="translate(-39.012 -19.29)" fill="#fefefe" fill-rule="evenodd"/></g></svg>