<svg xmlns="http://www.w3.org/2000/svg" width="42" height="42" viewBox="0 0 42 42"><g transform="translate(-2054 -52)"><circle cx="21" cy="21" r="21" transform="translate(2054 52)" fill="#fff"/><g transform="translate(-165.546 491.34)"><g transform="translate(2230.57 -426.242)"><path d="M2247.227-412.656v10.792h22.768l1.616-8.832Z" transform="translate(-2247.227 412.656)" fill="#b0db20"/></g><g transform="translate(2229.97 -426.869)"><path d="M2268.006-403.314h0l-22.788-.094a.579.579,0,0,1-.577-.582l.041-10.792a.578.578,0,0,1,.188-.425.58.58,0,0,1,.44-.15l24.376,2.054a.58.58,0,0,1,.412.226.583.583,0,0,1,.109.457l-1.63,8.832A.579.579,0,0,1,2268.006-403.314Zm-22.207-1.25,21.725.089,1.425-7.727-23.114-1.948Z" transform="translate(-2244.638 415.359)" fill="#b0db20"/></g><g transform="translate(2225.546 -430.34)"><path d="M2252.786-410.751h-22.731a.811.811,0,0,1-.811-.811v-17.156h-2.888a.811.811,0,0,1-.811-.811.811.811,0,0,1,.811-.811h3.7a.812.812,0,0,1,.812.811v17.156h21.919a.811.811,0,0,1,.811.811A.811.811,0,0,1,2252.786-410.751Z" transform="translate(-2225.546 430.34)" fill="#b0db20"/></g><g transform="translate(2229.256 -409.955)"><ellipse cx="2.499" cy="2.499" rx="2.499" ry="2.499" transform="translate(0)" fill="#b0db20"/></g><g transform="translate(2248.73 -409.955)"><ellipse cx="2.499" cy="2.499" rx="2.499" ry="2.499" fill="#b0db20"/></g></g></g></svg>