<svg xmlns="http://www.w3.org/2000/svg" width="42" height="42" viewBox="0 0 42 42"><g transform="translate(156 -186)"><circle cx="21" cy="21" r="21" transform="translate(-156 186)" fill="#fff"/><g transform="translate(-148 194)"><path d="M10.922,6.52a4.392,4.392,0,1,0,4.392,4.392A4.394,4.394,0,0,0,10.922,6.52Z" transform="translate(1.98 1.977)" fill="#afe139"/><path d="M18.453,0H7.337A7.353,7.353,0,0,0,0,7.337V18.453A7.344,7.344,0,0,0,7.337,25.79H18.453a7.344,7.344,0,0,0,7.337-7.337V7.337A7.344,7.344,0,0,0,18.453,0ZM12.9,19.5a6.607,6.607,0,1,1,6.607-6.607A6.616,6.616,0,0,1,12.9,19.5ZM19.782,7.506a1.59,1.59,0,1,1,1.59-1.59A1.6,1.6,0,0,1,19.782,7.506Z" fill="#afe139"/></g></g></svg>