<svg xmlns="http://www.w3.org/2000/svg" xmlns:xlink="http://www.w3.org/1999/xlink" width="42" height="42" viewBox="0 0 42 42"><defs><clipPath id="a"><rect width="42" height="42" fill="none"/></clipPath><clipPath id="b"><rect width="20.726" height="27.198" fill="none"/></clipPath></defs><g clip-path="url(#a)"><g transform="translate(156 -72)"><circle cx="21" cy="21" r="21" transform="translate(-156 72)" fill="#fff"/><g transform="translate(-145 78.902)" clip-path="url(#b)"><g transform="translate(-44 -78.902)"><path d="M13.642,11.193a6.078,6.078,0,1,0-6.557,0A7.794,7.794,0,0,0,0,18.943v6.313l.016.1.436.133A35.5,35.5,0,0,0,11.039,27.2a21.754,21.754,0,0,0,9.24-1.735l.4-.208h.043V18.943A7.794,7.794,0,0,0,13.642,11.193Z" transform="translate(44 78.902)" fill="#b0db20"/></g></g></g></g></svg>