<svg xmlns="http://www.w3.org/2000/svg" width="42" height="42" viewBox="0 0 42 42"><g transform="translate(156 -19)"><circle cx="21" cy="21" r="21" transform="translate(-156 19)" fill="#fff"/><path d="M28.113,13.448A1.355,1.355,0,0,0,28,11.506L15.279.374A1.58,1.58,0,0,0,13.213.4L.443,12.1a1.349,1.349,0,0,0-.06,1.942l.319.334a1.4,1.4,0,0,0,1.917.149l.956-.856V26.178a1.39,1.39,0,0,0,1.389,1.389H9.942a1.39,1.39,0,0,0,1.389-1.389V17.426h6.342v8.752a1.314,1.314,0,0,0,1.3,1.389H24.25a1.39,1.39,0,0,0,1.389-1.389V13.841s.264.229.587.518,1.006.055,1.523-.513Z" transform="translate(-149.641 24.9)" fill="#b0db20"/></g></svg>