<svg xmlns="http://www.w3.org/2000/svg" width="18.716" height="18.674" viewBox="0 0 18.716 18.674"><path d="M378.16,490.82l-2.89-2.891a1.507,1.507,0,0,0-2.124.04l-1.456,1.456-.287-.16a13.63,13.63,0,0,1-6.041-6.043c-.055-.1-.107-.19-.157-.281l.977-.975.481-.481a1.505,1.505,0,0,0,.039-2.124l-2.891-2.891a1.5,1.5,0,0,0-2.125.04l-.813.819.021.022a4.721,4.721,0,0,0-.67,1.184,4.869,4.869,0,0,0-.3,1.2c-.383,3.164,1.064,6.055,4.987,9.98,5.424,5.423,9.8,5.014,9.985,4.993a4.877,4.877,0,0,0,1.2-.3,4.664,4.664,0,0,0,1.179-.668l.018.016.827-.809a1.51,1.51,0,0,0,.037-2.126Zm0,0" transform="translate(-359.864 -476.05)" fill="#020202"/></svg>