<svg xmlns="http://www.w3.org/2000/svg" width="19.662" height="19.662" viewBox="0 0 19.662 19.662"><g transform="translate(-1606.913 -1217.114)"><path d="M1625.807,1217.114h-18.126a.768.768,0,0,0-.768.768v18.126a.768.768,0,0,0,.768.768h18.126a.768.768,0,0,0,.768-.768v-18.126a.768.768,0,0,0-.768-.768Zm-.768,18.126h-16.59v-16.59h16.59Zm-14.982-12.858a.768.768,0,0,1,1.086-1.087l.5.5,1.642-1.642a.768.768,0,0,1,1.086,1.086l-2.185,2.185a.768.768,0,0,1-1.086,0Zm5.919-.6a.768.768,0,0,1,.768-.768h6.145a.768.768,0,1,1,0,1.536h-6.145a.768.768,0,0,1-.768-.768Zm-5.919,10.912a.768.768,0,0,1,1.086-1.086l.5.5,1.642-1.642a.768.768,0,0,1,1.086,1.086l-2.185,2.186a.768.768,0,0,1-1.086,0Zm5.919-.6a.768.768,0,0,1,.768-.768h6.145a.768.768,0,0,1,0,1.536h-6.145a.768.768,0,0,1-.768-.768Zm-5.919-4.563a.768.768,0,1,1,1.086-1.086l.5.5,1.642-1.643a.768.768,0,0,1,1.086,1.086l-2.185,2.185a.768.768,0,0,1-1.086,0Zm5.919-.6a.768.768,0,0,1,.768-.768h6.145a.768.768,0,0,1,0,1.536h-6.145a.768.768,0,0,1-.768-.768Zm0,0"/></g></svg>