<svg xmlns="http://www.w3.org/2000/svg" width="40" height="40" viewBox="0 0 52.27 52.127"><g transform="translate(-1195.767 -5604.153)"><g transform="translate(1195.767 5604.153)"><path d="M228.743,13.076V42.4a2.672,2.672,0,0,0,1.953,2.506l22.835,7.027a4.778,4.778,0,0,0,2.694,0L279.1,44.891A2.624,2.624,0,0,0,281.01,42.4V9.726a2.672,2.672,0,0,0-1.953-2.506L256.219.192a4.778,4.778,0,0,0-2.694,0L230.647,7.233a2.621,2.621,0,0,0-1.907,2.492v3.351Z" transform="translate(-228.74 0.001)" fill="#b0db20"/></g><g transform="translate(1205.303 5613.467)"><path d="M285.8,65.825H271.373a9.543,9.543,0,0,1-9.533-9.533V41.863a9.543,9.543,0,0,1,9.533-9.533H285.8a9.543,9.543,0,0,1,9.533,9.533V56.291A9.544,9.544,0,0,1,285.8,65.825ZM271.373,35.2a6.67,6.67,0,0,0-6.664,6.661V56.291a6.671,6.671,0,0,0,6.664,6.664H285.8a6.671,6.671,0,0,0,6.664-6.664V41.863A6.668,6.668,0,0,0,285.8,35.2Z" transform="translate(-261.84 -32.33)" fill="#fff"/><g transform="translate(8.171 8.171)"><path d="M298.777,77.844a8.577,8.577,0,1,1,8.577-8.577A8.585,8.585,0,0,1,298.777,77.844Zm0-14.281a5.7,5.7,0,1,0,5.7,5.7A5.71,5.71,0,0,0,298.777,63.562Z" transform="translate(-290.2 -60.69)" fill="#fff"/></g><g transform="translate(23.63 5.618)"><path d="M347.983,53.893a2.061,2.061,0,1,1-2.06-2.063A2.06,2.06,0,0,1,347.983,53.893Z" transform="translate(-343.86 -51.83)" fill="#fff"/></g></g></g></svg>