<svg xmlns="http://www.w3.org/2000/svg" width="97.718" height="97.455" viewBox="0 0 97.718 97.455"><g transform="translate(0 0.001)"><g transform="translate(0 -0.001)"><path d="M0,24.448V79.27a5,5,0,0,0,3.652,4.686L46.344,97.093a8.932,8.932,0,0,0,5.036,0L94.152,83.929a4.907,4.907,0,0,0,3.566-4.659V18.184A5,5,0,0,0,94.066,13.5L51.369.36a8.932,8.932,0,0,0-5.036,0L3.566,13.524A4.9,4.9,0,0,0,0,18.184Z" transform="translate(0 0.001)" fill="#b0db20"/></g><g transform="translate(3.474 3.468)"><path d="M51.846,7.086a7.321,7.321,0,0,1,2.133.307L93.659,19.6a4,4,0,0,1,2.914,3.727V80.065a3.893,3.893,0,0,1-2.855,3.711L53.973,96.009a7.244,7.244,0,0,1-2.144.3A7.32,7.32,0,0,1,49.7,96L10.021,83.793a3.968,3.968,0,0,1-2.914-3.727V23.331A3.893,3.893,0,0,1,9.962,19.62L49.7,7.388a7.243,7.243,0,0,1,2.144-.3m0-.646a7.931,7.931,0,0,0-2.354.334L9.763,19A4.553,4.553,0,0,0,6.45,23.326V80.06a4.639,4.639,0,0,0,3.393,4.352L49.5,96.617a8.367,8.367,0,0,0,4.681,0L93.907,84.39A4.555,4.555,0,0,0,97.22,80.06V23.331a4.639,4.639,0,0,0-3.393-4.352L54.167,6.774a7.994,7.994,0,0,0-2.321-.334Z" transform="translate(-6.45 -6.44)" fill="#010203"/></g><g transform="translate(12.554 20.257)"><g transform="translate(34.915 17.856)"><path d="M89.956,76.049h0l-.081-.005a1.7,1.7,0,0,1-.361-.038,1.484,1.484,0,0,1-.991-.894,5.377,5.377,0,0,1-.253-.646,4.314,4.314,0,0,1-.135-1.449c0-.108.005-.215.005-.329a1.447,1.447,0,0,1,.2-.781,1.094,1.094,0,0,0,.108-.539.224.224,0,0,1,.07-.162.24.24,0,0,1,.167-.054l.092.005a2.25,2.25,0,0,0,.8-.189.4.4,0,0,0,.162-.124.227.227,0,0,1,.178-.086h0a.2.2,0,0,1,.172.092.442.442,0,0,0,.162.124,2.34,2.34,0,0,0,.8.194l.075-.005a.2.2,0,0,1,.172.054.223.223,0,0,1,.081.156,1.071,1.071,0,0,0,.1.544,1.672,1.672,0,0,1,.167.436,1.783,1.783,0,0,1,.032.345c-.005.108,0,.215,0,.323a4.47,4.47,0,0,1-.145,1.449,4.349,4.349,0,0,1-.259.646,1.493,1.493,0,0,1-1,.889A1.533,1.533,0,0,1,89.956,76.049Zm-.054-.436h.054a1.63,1.63,0,0,0,.248-.032,1.108,1.108,0,0,0,.7-.663,4.475,4.475,0,0,0,.232-.582,3.939,3.939,0,0,0,.124-1.309c0-.108-.005-.221-.005-.329a1.267,1.267,0,0,0-.022-.253,1.521,1.521,0,0,0-.129-.334,1.244,1.244,0,0,1-.14-.517,2.865,2.865,0,0,1-.889-.232,1.07,1.07,0,0,1-.156-.086,1.07,1.07,0,0,1-.156.086,2.906,2.906,0,0,1-.889.226,1.346,1.346,0,0,1-.145.517,1.264,1.264,0,0,0-.135.334,1.18,1.18,0,0,0-.022.248c0,.113,0,.226-.005.334a3.911,3.911,0,0,0,.118,1.309,4.39,4.39,0,0,0,.232.592,1.094,1.094,0,0,0,.7.663,1.3,1.3,0,0,0,.248.032C89.864,75.613,89.88,75.613,89.9,75.613Z" transform="translate(-88.13 -70.76)" fill="#010103"/></g><g transform="translate(50.924 7.562)"><path d="M129.463,54.86c0,.065.027.108.016.113.065.048.038.065.048.081l.086.226c.022.065.032.108.048.156s.032.118.054.178.032.145.048.215.032.156.048.237.027.172.038.259.022.189.027.28.005.2.005.3a3.027,3.027,0,0,1-.011.312c-.005.113-.022.221-.032.329s-.038.226-.059.334-.059.232-.092.345-.081.237-.129.35-.108.232-.167.345a3.671,3.671,0,0,1-.21.345,19.561,19.561,0,0,1-2.176,3.334,2.525,2.525,0,0,0-.711,1.147,3.821,3.821,0,0,1-1.465,2.208,12.858,12.858,0,0,0-1.115.862,2.45,2.45,0,0,1-1.686.862,1.688,1.688,0,0,1-.8-.2,1.619,1.619,0,0,1-.189.011,1.654,1.654,0,0,1-1.675-1.3h0s-.447-1.088-1.04-2.289a3.2,3.2,0,0,1-.194-2.655h0a2.306,2.306,0,0,0-.248-1.32l-.016-.075A17.632,17.632,0,0,1,118,56.686c.027-.172.038-.345.048-.522a6.531,6.531,0,0,1,.081-.711,9.848,9.848,0,0,1,.329-1.277,3.219,3.219,0,0,1,.183-.409c.032-.065.065-.135.1-.21a.409.409,0,0,0,.032-.1,1.37,1.37,0,0,1,.2-.318,4.1,4.1,0,0,1,.609-.614s.964-1.2,3.663-.8c0,0,.754.162,1.519.355,0,0,.668.108,1.589.361a5.75,5.75,0,0,1,1.713.689,3.107,3.107,0,0,1,1.374,1.616m-2.375-1.562a10.279,10.279,0,0,0-1.589-.442c-.786-.135-2.16-.42-2.16-.42a4.669,4.669,0,0,0-2.068-.075,2.733,2.733,0,0,0-1.524.749c-.156.043-.382.415-.479.49-.032.022-.032.032-.054.1a1.026,1.026,0,0,1-.054.151c-.038.086-.075.156-.108.226a2.633,2.633,0,0,0-.156.35,8.157,8.157,0,0,0-.312,1.212,5.544,5.544,0,0,0-.075.663c-.016.183-.027.366-.054.549a17.626,17.626,0,0,0-.129,3.032,2.646,2.646,0,0,1,.248,1.578,2.782,2.782,0,0,0,.151,2.316c.614,1.25,1.066,2.359,1.072,2.37a1.228,1.228,0,0,0,1.26,1.007c.108,0,.183-.011.194-.011l.075-.016.07.038a1.292,1.292,0,0,0,.646.183,2.094,2.094,0,0,0,1.379-.733,13.289,13.289,0,0,1,1.185-.921,3.389,3.389,0,0,0,1.277-1.944,2.914,2.914,0,0,1,.835-1.357,19.353,19.353,0,0,0,2.074-3.2l.038-.059c.07-.1.129-.2.189-.312a3.2,3.2,0,0,0,.145-.307,3.078,3.078,0,0,0,.113-.312c.032-.1.059-.2.086-.307s.038-.2.054-.3.022-.2.032-.3.011-.189.011-.28-.005-.183-.011-.275-.011-.167-.022-.253-.022-.162-.038-.242-.027-.145-.043-.215l-.048-.194c-.016-.054-.027-.113-.048-.167l-.135-.355C128.844,53.82,127.066,53.19,127.066,53.19Z" transform="translate(-117.851 -51.649)" fill="#010103"/></g><g transform="translate(53 20.289)"><path d="M123.485,77.579a.738.738,0,0,1-.372-.075.143.143,0,0,1-.032-.027c-.022-.027-.081-.011-.081-.011-.07.032-.339-.065-.431-.1-1.233-.5-.786-2-.781-2.014a.1.1,0,0,1,.135-.07.1.1,0,0,1,.07.135c-.016.054-.393,1.33.652,1.751a1.538,1.538,0,0,0,.285.092.3.3,0,0,1,.3.059.488.488,0,0,0,.35.032,1.421,1.421,0,0,0,1.244-1.217.107.107,0,0,1,.21.038,1.661,1.661,0,0,1-1.427,1.4A.4.4,0,0,1,123.485,77.579Z" transform="translate(-121.705 -75.278)" fill="#010103"/></g><g transform="translate(51.99 17.912)"><path d="M124.624,74.552a.691.691,0,0,1-.469-.2,2.085,2.085,0,0,1-.366-.652c-.113-.242-.49-1-.49-1a.524.524,0,0,0-.323-.307.641.641,0,0,0-.431.086.08.08,0,0,1-.038.016,4.323,4.323,0,0,0-1.018.619c-.5.544-.851.329-.926.275a.9.9,0,0,1-.463-.652,3.024,3.024,0,0,1-.048-.339c-.027-.221-.048-.463-.07-.759-.005-.075-.011-.145-.016-.215h-.027a.109.109,0,0,1-.108-.113c0-.059.016-.178.022-.248V71.03c.011-.118.07-.156.118-.162a.157.157,0,0,1,.151.059.128.128,0,0,1,.027.075.41.41,0,0,1,.005.075l-.1.038v.005l.1-.005v.059c.011.145.016.3.027.452.022.3.038.533.065.749.016.113.027.221.048.329a.683.683,0,0,0,.355.5.074.074,0,0,1,.022.016c.011.005.242.194.652-.259a4.756,4.756,0,0,1,1.1-.668.791.791,0,0,1,.587-.108.738.738,0,0,1,.469.42s.377.759.5,1.013a2,2,0,0,0,.323.587.443.443,0,0,0,.334.129.762.762,0,0,0,.522-.372,11.44,11.44,0,0,0,.716-1.233c.075-.135.162-.248.269-.2s.075.189,0,.409A.1.1,0,0,1,126,73c-.011,0-.016-.005-.027-.011-.269.522-.63,1.072-.646,1.1a.954.954,0,0,1-.689.458C124.645,74.552,124.635,74.552,124.624,74.552Z" transform="translate(-119.83 -70.866)" fill="#010103"/></g><g transform="translate(53.785 15.744)"><g transform="translate(0.055 0.055)"><path d="M124.21,67.819c.189-.226.469.07.469.07.307.7-.366.77-.366.77a.913.913,0,0,1-.781-.318c-.409-.189-.226.167-.226.167a2.261,2.261,0,0,0,1.336,1.26l.512-1.643-.339,1.675a1.579,1.579,0,0,0,1.659-.5c.2-.355-.334-.221-.334-.221-.592.027-.743-.291-.743-.291a.5.5,0,0,1,.269-.652c.479-.151.382.215.382.215a.373.373,0,0,0,.21.512c.609.162.587-.5.587-.5a1.224,1.224,0,0,0-.733-1.072,4.433,4.433,0,0,0-1.476-.35,1.318,1.318,0,0,0-1.072.533.6.6,0,0,0-.065.619.411.411,0,0,0,.555,0C124.07,68.1,124.113,68.051,124.21,67.819Z" transform="translate(-123.264 -66.943)" fill="#010103"/></g><path d="M125.219,69.856a2.283,2.283,0,0,1-.458-.048L124.7,69.8l.124-.619-.194.619-.054-.016a2.3,2.3,0,0,1-1.368-1.293c-.011-.022-.081-.162-.027-.248a.126.126,0,0,1,.118-.059.484.484,0,0,1,.2.065l.016.005.011.016a.847.847,0,0,0,.733.291.489.489,0,0,0,.339-.2.527.527,0,0,0-.027-.479.426.426,0,0,0-.253-.135.143.143,0,0,0-.118.059,1.5,1.5,0,0,1-.145.3.4.4,0,0,1-.3.135h0a.553.553,0,0,1-.334-.124l-.011-.016a.637.637,0,0,1,.065-.684,1.448,1.448,0,0,1,1-.566,1.045,1.045,0,0,1,.129.011,4.423,4.423,0,0,1,1.487.355,1.285,1.285,0,0,1,.765,1.126.707.707,0,0,1-.156.452.483.483,0,0,1-.5.1.428.428,0,0,1-.253-.582.179.179,0,0,0-.016-.135c-.038-.054-.145-.054-.3-.005a.441.441,0,0,0-.232.571c.005.005.129.259.619.259h.065a.79.79,0,0,1,.2-.027.238.238,0,0,1,.221.086.249.249,0,0,1-.038.242A1.509,1.509,0,0,1,125.219,69.856Zm-.382-.145a2.357,2.357,0,0,0,.382.038,1.431,1.431,0,0,0,1.163-.517c.048-.081.038-.113.032-.124s-.027-.032-.118-.032a1.179,1.179,0,0,0-.189.022c-.032,0-.054.005-.081.005-.571,0-.716-.312-.727-.323a.556.556,0,0,1,.3-.722c.221-.07.35-.048.426.043a.3.3,0,0,1,.038.237c-.1.345.14.431.172.442a.388.388,0,0,0,.388-.065.6.6,0,0,0,.124-.377,1.169,1.169,0,0,0-.695-1.018,4.435,4.435,0,0,0-1.454-.345.967.967,0,0,0-.118-.011,1.363,1.363,0,0,0-.9.522.532.532,0,0,0-.07.549.475.475,0,0,0,.259.1h0a.283.283,0,0,0,.215-.1h0a1.528,1.528,0,0,0,.129-.269l.011-.016a.273.273,0,0,1,.21-.1.549.549,0,0,1,.339.172l.011.016a.631.631,0,0,1,.022.587.6.6,0,0,1-.436.259,1,1,0,0,1-.824-.329c-.129-.054-.167-.043-.167-.043a.236.236,0,0,0,.032.14,2.278,2.278,0,0,0,1.244,1.217l.49-1.589.113.027Z" transform="translate(-123.163 -66.84)" fill="#010103"/></g><g transform="translate(52.878 11.318)"><path d="M121.587,63.846h-.011a.109.109,0,0,1-.1-.118,4.877,4.877,0,0,1,1.891-3.28,3.365,3.365,0,0,0,1.406-1.745.1.1,0,0,1,.129-.075.108.108,0,0,1,.075.135,3.559,3.559,0,0,1-1.5,1.869,4.747,4.747,0,0,0-1.8,3.124A.089.089,0,0,1,121.587,63.846Z" transform="translate(-121.479 -58.622)" fill="#010103"/></g><g transform="translate(57.797 11.654)"><path d="M131.267,65.432a.157.157,0,0,1-.048-.011.1.1,0,0,1-.043-.145A4.188,4.188,0,0,0,131.1,61.8a4.6,4.6,0,0,1-.463-2.462.105.105,0,0,1,.124-.092.109.109,0,0,1,.092.124,4.423,4.423,0,0,0,.442,2.338,4.347,4.347,0,0,1,.075,3.673A.131.131,0,0,1,131.267,65.432Z" transform="translate(-130.611 -59.247)" fill="#010103"/></g><g transform="translate(53.667 19.289)"><path d="M123.345,74.546c.086.022.178.048.264.065.054.016.178.022.2.092.005.022-.016.065-.022.092-.005.043-.016.092-.022.14-.011.07-.027.178.043.226.118.086.226-.07.253-.167.016-.065.027-.248.075-.291.016-.016.1-.005.129,0a1.057,1.057,0,0,1,.226.048,2.383,2.383,0,0,1,.329.07,1.21,1.21,0,0,0,.3.065c.07,0,.178-.011.162-.1a.2.2,0,0,0-.027-.059.478.478,0,0,1-.011-.081c-.016-.059-.032-.113-.048-.172-.011-.038-.011-.081-.022-.113-.016-.048-.059-.086-.075-.14a.82.82,0,0,0-.124-.291,1.743,1.743,0,0,0-.194-.2c-.059-.048-.124-.108-.189-.156a.611.611,0,0,0-.4-.14.963.963,0,0,0-.469.232.828.828,0,0,1-.065.07c-.027.022-.075.038-.108.065a2.224,2.224,0,0,1-.291.183c-.108.065-.355.145-.318.312C122.974,74.433,123.216,74.514,123.345,74.546Z" transform="translate(-122.943 -73.421)" fill="#010103"/></g><g transform="translate(46.894 8.122)"><path d="M112.869,63.053h0c-.786,0-1.013-.937-1.023-1.492v-.022a2.332,2.332,0,0,0-.167-1.013c-.259-.512-.883-2.068-.959-2.257a2.524,2.524,0,0,1,.372-3.054c1.756-1.718,5.16-2.488,5.3-2.521a.29.29,0,0,1,.323.162.284.284,0,0,1-.086.35c-1.088.824-1.487,2.666-1.637,4.067a18.045,18.045,0,0,0-.054,2.919v.059a4.024,4.024,0,0,1-1.007,2.316l-.016.016A1.709,1.709,0,0,1,112.869,63.053Zm-.447-1.5c.005.092.059.926.447.926h0a1.2,1.2,0,0,0,.679-.334,3.567,3.567,0,0,0,.819-1.939c-.032-.442-.3-4.519,1.19-6.684a10.794,10.794,0,0,0-4.072,2.111,1.946,1.946,0,0,0-.253,2.375l.016.032c.005.022.689,1.718.948,2.235A2.858,2.858,0,0,1,112.422,61.555Z" transform="translate(-110.369 -52.689)" fill="#010103"/></g><g transform="translate(60.843 10.11)"><path d="M137.513,67.352a1.018,1.018,0,0,1-.706-.28,1.512,1.512,0,0,1-.533-1.347c.011-.092.016-.183.022-.275a4.856,4.856,0,0,1,.054-.549,3.307,3.307,0,0,1,.124-.452c.032-.1.065-.2.086-.3.038-.14.086-.28.135-.42a3.749,3.749,0,0,0,.118-.372.539.539,0,0,0,.005-.226.8.8,0,0,1,.022-.4,9.043,9.043,0,0,1,.469-1.228c.059-.14.124-.28.183-.426.048-.118.108-.242.172-.377a4.5,4.5,0,0,0,.388-1.05,4.808,4.808,0,0,0,.011-1.282l-.022-.2a2.409,2.409,0,0,0-.145-.765l-.048-.118c-.038-.092-.07-.189-.113-.275a.525.525,0,0,0-.194-.226l-.081-.07.275-.334.21.178c.162.151.323.285.49.42a5.215,5.215,0,0,1,1.427,1.589c.151.291.28.6.42.91.07.167.145.339.221.506a4.835,4.835,0,0,1,.42,1.637,7.091,7.091,0,0,1-.027,1.072c-.016.194-.027.393-.032.592a2.082,2.082,0,0,1-.522,1.611,2.5,2.5,0,0,1-.458.318c-.059.032-.113.065-.167.1-.194.124-.372.259-.555.4l-.3.226a1.163,1.163,0,0,0-.393.382,5.286,5.286,0,0,1-.415.587.606.606,0,0,0-.065.1.63.63,0,0,1-.415.35Zm.867-9.857a4.3,4.3,0,0,1,.092.636l.022.2a5.7,5.7,0,0,1-.011,1.4,4.416,4.416,0,0,1-.426,1.163c-.059.129-.118.253-.162.366-.059.145-.124.285-.183.431a8.83,8.83,0,0,0-.447,1.169.466.466,0,0,0-.011.226.912.912,0,0,1-.016.393c-.038.14-.086.275-.135.409s-.086.248-.118.377c-.027.108-.059.215-.092.323a3.369,3.369,0,0,0-.113.4c-.027.167-.038.334-.048.5-.005.1-.011.189-.022.285a1.074,1.074,0,0,0,.366.964.728.728,0,0,0,.4.194l.022.215-.005-.215c.043-.005.07-.054.129-.151.032-.048.059-.1.092-.14a4.3,4.3,0,0,0,.382-.539,1.617,1.617,0,0,1,.512-.517l.3-.221c.189-.145.377-.291.582-.42.059-.032.118-.07.178-.1a2.278,2.278,0,0,0,.382-.264,1.693,1.693,0,0,0,.388-1.309c.005-.2.022-.409.032-.609a7.074,7.074,0,0,0,.027-1.007,4.623,4.623,0,0,0-.382-1.487l-.226-.517c-.129-.3-.259-.6-.4-.883A4.37,4.37,0,0,0,138.38,57.495Z" transform="translate(-136.267 -56.38)" fill="#010103"/></g><g transform="translate(53.227 11.575)"><path d="M123.254,59.2a.729.729,0,0,0-.894.135,3.027,3.027,0,0,0-.226.269s-.054.065.14.14a.349.349,0,0,1,.135.194s.14.28.63.178a1.644,1.644,0,0,1,.275.005.169.169,0,0,0,.162-.032C123.486,60.086,123.685,59.466,123.254,59.2Zm-.35.275a.052.052,0,0,1-.065.027.074.074,0,0,0-.092.043.041.041,0,0,1-.043.032h-.016a.051.051,0,0,1-.032-.059.167.167,0,0,1,.215-.1A.041.041,0,0,1,122.9,59.472Z" transform="translate(-122.127 -59.1)" fill="#010103"/><g transform="translate(5.718 1.309)"><path d="M134.152,62.252a.746.746,0,0,0-.237-.528.609.609,0,0,0-.7-.14.931.931,0,0,0-.426.442c-.151.2.108.275.108.275.162.092.226.135.226.135a.907.907,0,0,0,.587.194,1.207,1.207,0,0,0,.269-.07s.14.032.167-.075A.844.844,0,0,0,134.152,62.252Zm-.415-.1h0a.048.048,0,0,1-.048-.048.053.053,0,0,0-.022-.048.066.066,0,0,0-.048-.022h-.005a.044.044,0,0,1-.043-.048.047.047,0,0,1,.043-.048h.005a.166.166,0,0,1,.162.162A.043.043,0,0,1,133.738,62.155Z" transform="translate(-132.742 -61.53)" fill="#010103"/></g></g><g transform="translate(52.669 10.726)"><g transform="translate(0 0.046)"><path d="M121.171,58.708a.087.087,0,0,1-.059-.027.078.078,0,0,1,.005-.113c.2-.194.641-.695.641-.7a.817.817,0,0,1,.6-.259c.856.167.835.582.835.6a.081.081,0,0,1-.162-.011c0-.011-.016-.291-.7-.426h0a.613.613,0,0,0-.458.2c-.016.016-.447.506-.652.706A.075.075,0,0,1,121.171,58.708Z" transform="translate(-121.09 -57.609)" fill="#010103"/></g><g transform="translate(6.659 1.469)"><path d="M134.992,61.92h-.011a.087.087,0,0,1-.07-.092.2.2,0,0,0-.022-.059c-.011-.027-.022-.054-.032-.075a.855.855,0,0,1-.032-.2v-.027a1.041,1.041,0,0,0-.005-.129v-.172l-.011-.07a.59.59,0,0,0-.452-.614,1.26,1.26,0,0,0-.264-.07.134.134,0,0,0-.043.005.307.307,0,0,1-.07.005.149.149,0,0,1-.048-.005.217.217,0,0,0-.059,0l-.027.005c-.221.043-.329.048-.377-.022a.079.079,0,0,1,.022-.113.092.092,0,0,1,.092,0,.854.854,0,0,0,.232-.027l.027-.005a.359.359,0,0,1,.108,0c.011,0,.027.005.043.005s.027-.005.038-.005a.436.436,0,0,1,.086-.005,1.2,1.2,0,0,1,.3.081.923.923,0,0,1,.35.2.949.949,0,0,1,.2.528l.011.07a.349.349,0,0,1,.005.129v.07a1.129,1.129,0,0,1,.005.135v.027a.679.679,0,0,0,.027.151c.005.022.016.043.022.059a.279.279,0,0,1,.038.145A.086.086,0,0,1,134.992,61.92Z" transform="translate(-133.452 -60.25)" fill="#010103"/></g><g transform="translate(1.12)"><path d="M124.085,58.26a.157.157,0,0,1-.048-.011.082.082,0,0,1-.038-.108.1.1,0,0,1,.054-.043,1.094,1.094,0,0,0,.054-.264c.011-.086-.022-.129-.108-.14a.616.616,0,0,0-.194.016,1,1,0,0,1-.183.022h-.178a.593.593,0,0,1-.1-.011.252.252,0,0,0-.086-.011.081.081,0,0,1-.092-.07.084.084,0,0,1,.07-.092.361.361,0,0,1,.135.011,1.046,1.046,0,0,0,.129.011h.118a.835.835,0,0,0,.156-.022.76.76,0,0,1,.248-.022.27.27,0,0,1,.242.323c-.043.339-.108.377-.135.393A.087.087,0,0,1,124.085,58.26Z" transform="translate(-123.169 -57.524)" fill="#010103"/></g><g transform="translate(6.628 1.107)"><path d="M134.572,60.247a.051.051,0,0,1-.038-.011c-.054-.027-.108-.048-.162-.07a1.13,1.13,0,0,1-.458-.307c-.092-.1-.145-.118-.172-.118a.07.07,0,0,0-.059.027.3.3,0,0,0-.059.124.489.489,0,0,1-.092.183.08.08,0,0,1-.113-.113.408.408,0,0,0,.054-.118.424.424,0,0,1,.1-.194.217.217,0,0,1,.172-.07.445.445,0,0,1,.291.172.95.95,0,0,0,.4.269,1.53,1.53,0,0,1,.172.075.085.085,0,0,1,.032.113A.092.092,0,0,1,134.572,60.247Z" transform="translate(-133.395 -59.579)" fill="#010103"/></g></g><g transform="translate(52.995 12.226)"><path d="M123.3,61.15a.182.182,0,0,1-.108-.048.377.377,0,0,0-.054-.043.226.226,0,0,0-.086-.065.651.651,0,0,0-.2,0,.94.94,0,0,1-.355-.016l-.054-.016a.975.975,0,0,1-.42-.183.992.992,0,0,1-.151-.151c-.011-.022-.027-.043-.043-.07a.4.4,0,0,0-.059-.086.076.076,0,0,1-.065-.092.084.084,0,0,1,.092-.07c.086.016.135.1.178.167l.032.048a.892.892,0,0,0,.124.124.986.986,0,0,0,.361.151l.054.016a.655.655,0,0,0,.275.011.846.846,0,0,1,.285,0,.552.552,0,0,1,.156.1.27.27,0,0,1,.043.038l.005.005c0-.005.011-.011.011-.011a.069.069,0,0,1,.027-.1.084.084,0,0,1,.113.038.165.165,0,0,1-.059.215A.134.134,0,0,1,123.3,61.15Z" transform="translate(-121.696 -60.309)" fill="#010103"/></g><g transform="translate(58.729 13.704)"><path d="M133.58,63.687h-.032a1.149,1.149,0,0,1-.307-.059l-.07-.016a.928.928,0,0,1-.264-.129l-.043-.027c-.022-.011-.038-.027-.059-.038-.07-.048-.145-.1-.21-.086a.277.277,0,0,1-.226-.092.141.141,0,0,1-.011-.145.087.087,0,0,1,.113-.032.08.08,0,0,1,.038.092c.022.011.054.022.059.016a.448.448,0,0,1,.323.113c.022.016.038.027.054.038l.048.032a.808.808,0,0,0,.215.108l.075.022a.947.947,0,0,0,.269.048.881.881,0,0,0,.485-.113.081.081,0,1,1,.092.135A1.12,1.12,0,0,1,133.58,63.687Z" transform="translate(-132.342 -63.052)" fill="#010103"/></g><g transform="translate(29.408)"><g transform="translate(8.485 0.038)"><path d="M98.022,49.352h-.027a.214.214,0,0,1-.145-.075.209.209,0,0,1-.048-.156,2.08,2.08,0,0,0-.092-1.088,3.117,3.117,0,0,0-.345-.463c-.1-.113-.189-.221-.264-.329a2.448,2.448,0,0,0-.442-.442,3.448,3.448,0,0,1-.431-.415l-.092-.108c-.189-.226-.377-.452-.549-.684a2.724,2.724,0,0,1-.329-.733,1.511,1.511,0,0,0-.409-.765,1.426,1.426,0,0,0-.894-.135.209.209,0,0,1-.215-.081.3.3,0,0,1-.054-.329.324.324,0,0,1,.21-.167,3.2,3.2,0,0,1,.329-1.207c.065-.151.124-.3.167-.431a5.742,5.742,0,0,1,.646-1.476,16.244,16.244,0,0,1,1.18-1.514l.048-.059c.355-.409.883-1.018,1.5-1.018a.91.91,0,0,1,.571.2,2.967,2.967,0,0,1,.883,1.594,3.337,3.337,0,0,1,.108.808c.005.092.011.189.022.28q.032.372.081.743c.022.2.048.393.07.592a5.433,5.433,0,0,1,.005,1.255,1.845,1.845,0,0,1-.092.4c.032.129.059.264.086.393.038.162.07.323.113.479l.059.194a2.734,2.734,0,0,1,.151.711,1.765,1.765,0,0,1-.189.943,1.723,1.723,0,0,1-.614.6c-.059.038-.113.075-.172.118-.1.07-.113.194-.129.415l-.016.14a1.723,1.723,0,0,1-.038.221.523.523,0,0,1-.005.092.867.867,0,0,1-.2.442.4.4,0,0,0-.124.264.556.556,0,0,0,.016.118c.032.189.081.442-.1.592A.439.439,0,0,1,98.022,49.352ZM94.338,43.5a1.525,1.525,0,0,1,.765.237,1.821,1.821,0,0,1,.56.975,2.275,2.275,0,0,0,.264.609c.167.232.35.447.533.663l.092.108a2.7,2.7,0,0,0,.382.361,2.91,2.91,0,0,1,.512.517c.07.1.156.2.242.3a2.966,2.966,0,0,1,.4.544c.022.048.043.1.065.151a.348.348,0,0,0,.081-.178.462.462,0,0,1,.011-.118c.016-.065.027-.129.038-.194l.011-.124a.89.89,0,0,1,.312-.727c.059-.043.124-.086.183-.124a1.31,1.31,0,0,0,.474-.447,1.288,1.288,0,0,0,.135-.711,2.392,2.392,0,0,0-.135-.6l-.059-.2c-.048-.167-.086-.334-.118-.506-.027-.145-.065-.291-.1-.436A.212.212,0,0,1,99,43.47a1.656,1.656,0,0,0,.092-.366,4.976,4.976,0,0,0-.011-1.163c-.016-.194-.043-.388-.065-.582-.032-.253-.065-.506-.081-.754-.011-.1-.016-.2-.022-.291a3.427,3.427,0,0,0-.1-.711,2.571,2.571,0,0,0-.727-1.368c-.5-.372-1.137.35-1.492.754l-.059.054a16.057,16.057,0,0,0-1.147,1.47,5.151,5.151,0,0,0-.587,1.341c-.059.172-.118.329-.189.485a2.56,2.56,0,0,0-.291,1.1A.436.436,0,0,0,94.338,43.5Z" transform="translate(-93.658 -37.68)" fill="#010103"/></g><path d="M79.691,49.287a.366.366,0,0,1-.242-.1c-.172-.151-.129-.4-.092-.587.011-.043.016-.086.022-.118.005-.1-.038-.156-.118-.269a.889.889,0,0,1-.2-.442.523.523,0,0,1-.005-.092c-.016-.075-.027-.151-.038-.221L79,47.321c-.016-.215-.032-.339-.129-.415-.059-.043-.113-.081-.167-.113a1.619,1.619,0,0,1-.614-.609,1.807,1.807,0,0,1-.183-.937,2.976,2.976,0,0,1,.156-.711l.059-.194c.043-.156.075-.312.113-.469.032-.135.059-.269.092-.4a1.761,1.761,0,0,1-.086-.4,5.491,5.491,0,0,1,.016-1.255c.022-.189.048-.382.07-.576.032-.253.065-.506.086-.759.011-.1.016-.194.022-.285a3.6,3.6,0,0,1,.113-.8,2.982,2.982,0,0,1,.894-1.589.921.921,0,0,1,.571-.2c.625,0,1.153.619,1.5,1.029l.048.054a14.467,14.467,0,0,1,1.169,1.524,5.381,5.381,0,0,1,.63,1.449c.054.162.113.312.172.463a3.115,3.115,0,0,1,.318,1.212.324.324,0,0,1,.21.167.309.309,0,0,1-.054.323.228.228,0,0,1-.221.081,1.453,1.453,0,0,0-.889.129,1.516,1.516,0,0,0-.415.765,2.69,2.69,0,0,1-.329.727c-.178.237-.372.469-.566.695l-.081.1a3.1,3.1,0,0,1-.436.409,2.454,2.454,0,0,0-.447.436c-.075.108-.172.215-.269.329a2.619,2.619,0,0,0-.35.463,2.129,2.129,0,0,0-.1,1.088.2.2,0,0,1-.048.156.227.227,0,0,1-.151.075Zm.318-11.241a.518.518,0,0,0-.312.113,2.654,2.654,0,0,0-.738,1.363,3.431,3.431,0,0,0-.1.706c-.005.1-.011.2-.022.3-.022.253-.054.512-.086.77-.027.189-.048.377-.07.566a5.321,5.321,0,0,0-.016,1.163,1.99,1.99,0,0,0,.086.366.212.212,0,0,1,.005.129c-.038.145-.07.291-.1.442-.038.167-.075.339-.124.5l-.065.2a2.213,2.213,0,0,0-.135.6,1.358,1.358,0,0,0,.129.716,1.226,1.226,0,0,0,.474.447c.059.038.118.081.178.124a.885.885,0,0,1,.307.733l.011.124a1.323,1.323,0,0,0,.032.194.133.133,0,0,1,.005.065.386.386,0,0,0,.086.226c.022-.048.038-.1.065-.145a3.235,3.235,0,0,1,.4-.544c.086-.1.172-.2.242-.3a3.128,3.128,0,0,1,.517-.517,3.031,3.031,0,0,0,.382-.361l.086-.1c.183-.221.377-.436.544-.668a2.118,2.118,0,0,0,.269-.609,1.87,1.87,0,0,1,.566-.97,1.485,1.485,0,0,1,.765-.232.229.229,0,0,0,.011-.059,2.614,2.614,0,0,0-.28-1.1c-.065-.162-.129-.318-.178-.463a5.12,5.12,0,0,0-.587-1.368,14.5,14.5,0,0,0-1.142-1.481l-.027-.054C80.9,38.6,80.434,38.046,80.008,38.046Z" transform="translate(-77.905 -37.61)" fill="#010103"/><g transform="translate(11.504 13.078)"><path d="M99.558,62.515h0a.3.3,0,0,1-.242-.167c-.07-.113-.081-.35.038-.431a.163.163,0,0,1,.086-.027.5.5,0,0,1,.291.178.265.265,0,0,1-.172.447Zm-.124-.479c-.038.022-.043.167,0,.237s.081.1.118.1a.113.113,0,0,0,.07-.038.106.106,0,0,0,0-.167A.369.369,0,0,0,99.434,62.035Z" transform="translate(-99.263 -61.89)" fill="#010103"/></g><g transform="translate(8.448 14.903)"><path d="M93.967,69.982a.051.051,0,0,1-.038-.011.1.1,0,0,1-.065-.075,1.427,1.427,0,0,0-.14-.361,1.386,1.386,0,0,1-.135-.689.11.11,0,0,1,.1-.108c.786-.075.959-.856,1.12-1.616.032-.145.065-.291.1-.426l.016-.054a1.435,1.435,0,0,1,.226-.549,1.133,1.133,0,0,1,.334-.269,1.841,1.841,0,0,0,.2-.135.571.571,0,0,0,.178-.329.1.1,0,0,1,.1-.081.113.113,0,0,1,.108.081,2.334,2.334,0,0,1-.285,1.567,3.787,3.787,0,0,0-.4.975c-.054.183-.113.377-.183.56a3.586,3.586,0,0,1-1.1,1.46l-.054.038A.162.162,0,0,1,93.967,69.982Zm-.167-1.04a1.019,1.019,0,0,0,.113.49,2.343,2.343,0,0,1,.113.253,3.27,3.27,0,0,0,.959-1.3c.065-.172.124-.361.178-.544a4.056,4.056,0,0,1,.42-1.029,2.455,2.455,0,0,0,.3-1.029.5.5,0,0,1-.075.075,2.049,2.049,0,0,1-.221.156,1.012,1.012,0,0,0-.275.221,1.3,1.3,0,0,0-.189.469l-.011.054c-.032.129-.065.269-.1.415C94.856,67.9,94.662,68.8,93.8,68.942Z" transform="translate(-93.59 -65.279)" fill="#010103"/></g><g transform="translate(3.648 14.888)"><path d="M86.79,69.958a.123.123,0,0,1-.059-.016.411.411,0,0,1-.059-.043,3.526,3.526,0,0,1-1.093-1.465c-.07-.183-.129-.377-.183-.56a4.049,4.049,0,0,0-.388-.975,2.313,2.313,0,0,1-.28-1.573.105.105,0,0,1,.108-.075.109.109,0,0,1,.1.086.6.6,0,0,0,.178.329,2.127,2.127,0,0,0,.2.14,1.228,1.228,0,0,1,.334.275,1.447,1.447,0,0,1,.226.56l.011.043c.038.129.065.28.1.426.156.759.318,1.54,1.11,1.621a.11.11,0,0,1,.1.108,1.379,1.379,0,0,1-.145.684,1.426,1.426,0,0,0-.14.361.112.112,0,0,1-.065.075Zm-1.9-4.212a2.415,2.415,0,0,0,.291,1.034,4,4,0,0,1,.415,1.034c.054.183.108.372.178.544a3.221,3.221,0,0,0,.948,1.309,2.129,2.129,0,0,1,.113-.248,1.11,1.11,0,0,0,.118-.49c-.862-.151-1.05-1.05-1.2-1.777-.027-.145-.059-.285-.092-.42l-.011-.043a1.26,1.26,0,0,0-.189-.479,1.142,1.142,0,0,0-.275-.226,2.051,2.051,0,0,1-.221-.156A1.1,1.1,0,0,1,84.894,65.746Z" transform="translate(-84.678 -65.25)" fill="#010103"/></g><g transform="translate(3.635 9.62)"><path d="M90.846,56.133a.812.812,0,0,0-.452.2h0c.075,0,.151-.011.221-.016a1.752,1.752,0,0,1,.237-.016.8.8,0,0,1,.463.129,1.323,1.323,0,0,1,.566.765c.048.5-.84.754-1.093.786a1.14,1.14,0,0,1-.269-.011.643.643,0,0,0-.269,0c-.151.065-.178.312-.178.42a2.861,2.861,0,0,0,.215.943c.032.092.059.178.086.259l.027.092c.075.253.178.6.4.652.1.027.178-.075.275-.194a.758.758,0,0,1,.393-.3.418.418,0,0,1,.42.108.55.55,0,0,1,.113.431l-.011.118a2.318,2.318,0,0,1-.054.388.761.761,0,0,1-.248.442,2.051,2.051,0,0,1-.221.156,1.012,1.012,0,0,0-.275.221,1.3,1.3,0,0,0-.189.469L91,62.224c-.032.129-.065.269-.1.415-.162.754-.366,1.7-1.309,1.783a.309.309,0,0,1-.065.005h-.059a2.526,2.526,0,0,1-.943-.226.9.9,0,0,1-.2-.124.768.768,0,0,1-.2.124,2.57,2.57,0,0,1-1,.221l-.065-.005c-.943-.1-1.142-1.034-1.3-1.788-.027-.145-.059-.285-.092-.42l-.011-.043a1.3,1.3,0,0,0-.189-.479,1.142,1.142,0,0,0-.275-.226,2.051,2.051,0,0,1-.221-.156.788.788,0,0,1-.248-.447,2.53,2.53,0,0,1-.054-.4l-.011-.113a.557.557,0,0,1,.113-.431.418.418,0,0,1,.42-.108.76.76,0,0,1,.4.307c.1.118.172.215.269.194.232-.054.334-.4.409-.652l.027-.086c.027-.086.054-.172.086-.264a2.955,2.955,0,0,0,.221-.937c0-.129-.027-.361-.178-.42a.63.63,0,0,0-.269-.005,1.1,1.1,0,0,1-.264.011c-.259-.032-1.142-.3-1.093-.792a1.319,1.319,0,0,1,.571-.759,1.039,1.039,0,0,1,.695-.113,1.469,1.469,0,0,0,.221.016h0a.864.864,0,0,0-.452-.2.13.13,0,0,1-.032-.21.434.434,0,0,0,.124-.145c.032-.043.065-.086.092-.118a.553.553,0,0,1,.355-.151c.447-.054.619.312.765.609.038.075.075.151.113.215a2.559,2.559,0,0,1,.242.528c.059.162.172.35.28.377.081.027.124-.027.2-.145a.454.454,0,0,1,.366-.269.446.446,0,0,1,.366.269c.075.113.118.172.194.151a.61.61,0,0,0,.28-.377,2.911,2.911,0,0,1,.248-.528,2.02,2.02,0,0,0,.113-.215c.145-.291.329-.663.765-.6a.562.562,0,0,1,.355.156.832.832,0,0,1,.092.118c.038.054.092.129.124.14C90.878,55.923,90.986,56.046,90.846,56.133Zm-2.532,7.611.086.118a.571.571,0,0,0,.2.156,2.272,2.272,0,0,0,.851.2l.086-.005c.8-.075.975-.856,1.137-1.616.032-.145.065-.291.1-.426l.016-.054a1.435,1.435,0,0,1,.226-.549,1.133,1.133,0,0,1,.334-.269,1.841,1.841,0,0,0,.2-.135.571.571,0,0,0,.178-.329,2.571,2.571,0,0,0,.054-.355l.011-.124a.311.311,0,0,0-.059-.264.2.2,0,0,0-.21-.043c-.108.022-.189.124-.275.232-.124.151-.28.318-.5.264-.35-.086-.479-.517-.56-.8l-.027-.086c-.022-.081-.054-.167-.086-.253a2.991,2.991,0,0,1-.226-1.018c.011-.318.118-.539.312-.614a.888.888,0,0,1,.382-.016.7.7,0,0,0,.21.011c.329-.038.932-.291.9-.544a1.13,1.13,0,0,0-.469-.6.832.832,0,0,0-.555-.081,1.819,1.819,0,0,1-.42.005l-.092-.016V56.44a.357.357,0,0,1,.118-.253,1.057,1.057,0,0,1,.377-.221.412.412,0,0,1-.043-.059c-.027-.032-.048-.07-.065-.092a.37.37,0,0,0-.232-.1c-.264-.032-.388.167-.544.485a2.34,2.34,0,0,1-.124.232,2.514,2.514,0,0,0-.226.49c-.027.07-.172.436-.426.512a.338.338,0,0,1-.1.016c-.172,0-.264-.14-.339-.253s-.113-.167-.183-.167-.113.065-.183.167-.167.253-.339.253a.366.366,0,0,1-.1-.016c-.253-.075-.4-.442-.42-.512a2.668,2.668,0,0,0-.226-.49c-.043-.07-.081-.151-.124-.232-.156-.323-.275-.528-.544-.49a.34.34,0,0,0-.226.092.6.6,0,0,0-.065.086.411.411,0,0,1-.043.059,1.056,1.056,0,0,1,.377.221.37.37,0,0,1,.118.253v.092l-.092.016a1.814,1.814,0,0,1-.42-.005.881.881,0,0,0-.56.075,1.121,1.121,0,0,0-.474.6c-.027.253.576.512.9.555a.917.917,0,0,0,.21-.011.743.743,0,0,1,.382.022c.194.075.307.3.312.614a3.134,3.134,0,0,1-.232,1.013c-.032.092-.059.172-.086.253l-.027.086c-.086.285-.215.716-.571.8a.416.416,0,0,1-.081.011.567.567,0,0,1-.409-.28c-.086-.108-.167-.21-.275-.232a.2.2,0,0,0-.21.043.353.353,0,0,0-.059.264l.011.113a2.8,2.8,0,0,0,.048.372.6.6,0,0,0,.178.329,2.127,2.127,0,0,0,.2.14,1.228,1.228,0,0,1,.334.275,1.447,1.447,0,0,1,.226.56l.011.043c.038.129.065.28.1.426.156.759.318,1.54,1.11,1.621l.054.005h.048a2.378,2.378,0,0,0,.851-.2.517.517,0,0,0,.2-.156Z" transform="translate(-84.653 -55.47)" fill="#010103"/></g><g transform="translate(7.072 18.084)"><path d="M91.232,74.7a.233.233,0,0,1-.027-.005.082.082,0,0,1-.043-.1.9.9,0,0,0,.038-.382.953.953,0,0,1-.005-.124V73.1c0-.194-.011-.388-.022-.582-.005-.14-.011-.285-.016-.426v-.081a1.221,1.221,0,0,0-.1-.614.081.081,0,0,1-.005-.092c-.005-.005-.005-.011-.011-.016a.077.077,0,0,1,.054-.1.433.433,0,0,1,.189.005.087.087,0,0,1,.065.07,14.547,14.547,0,0,1,.081,1.573,10.768,10.768,0,0,1-.048,1.077c-.005.07-.005.145-.005.226a1.256,1.256,0,0,1-.07.517A.077.077,0,0,1,91.232,74.7Z" transform="translate(-91.035 -71.185)" fill="#010103"/></g><g transform="translate(9.055 10.724)"><path d="M95.381,58.657a.92.92,0,0,1-.345-.059,1,1,0,0,1-.108-.054.7.7,0,0,0-.118-.054.071.071,0,0,1-.065-.016.077.077,0,0,1-.027-.081c.038-.124.237-.749.447-.829a.752.752,0,0,1,.264-.043.826.826,0,0,1,.544.178,1.187,1.187,0,0,1,.259.334c.016.022.027.043.032.048a.088.088,0,0,1,.022.086.86.86,0,0,1-.512.42A1.081,1.081,0,0,1,95.381,58.657Zm-.5-.291c.027.011.065.032.108.054s.07.032.1.048a.769.769,0,0,0,.28.048,1.144,1.144,0,0,0,.355-.059.848.848,0,0,0,.409-.3c-.005-.011-.016-.027-.027-.048a1.176,1.176,0,0,0-.232-.3.724.724,0,0,0-.447-.135.594.594,0,0,0-.21.032C95.133,57.735,94.982,58.059,94.885,58.366Z" transform="translate(-94.717 -57.52)" fill="#010103"/></g><g transform="translate(5.905 6.519)"><path d="M90.285,53.051c-.016,0-.038-.005-.059-.005-.113-.022-.129-.172-.151-.329a1,1,0,0,0-.027-.162c-.011-.038-.022-.086-.032-.14a.955.955,0,0,0-.065-.226.89.89,0,0,0-.517-.307c-.038-.011-.075-.027-.113-.038-.156-.059-.183-.081-.215-.178-.011-.022-.022-.059-.048-.108s-.048-.07-.07-.1a.465.465,0,0,1-.108-.2.7.7,0,0,1,.291-.695c.054-.054.113-.108.167-.172.038-.043.075-.1.113-.145.215-.269.431-.555.813-.522a.127.127,0,0,1,.065,0h.048c.35,0,.56.269.765.528l.113.145c.054.065.108.118.162.172a.707.707,0,0,1,.285.695.465.465,0,0,1-.108.2c-.022.032-.048.065-.07.1s-.038.081-.048.1c-.038.1-.065.118-.221.172-.038.011-.075.027-.113.038a.872.872,0,0,0-.522.307.885.885,0,0,0-.065.226c-.011.054-.022.1-.032.14a1.037,1.037,0,0,0-.027.156c-.022.156-.043.307-.156.334A.237.237,0,0,1,90.285,53.051Zm-.07-3.194c-.28,0-.452.221-.652.474-.038.048-.075.1-.118.145a1.929,1.929,0,0,1-.178.183c-.172.167-.3.285-.248.571a.325.325,0,0,0,.075.14.82.82,0,0,1,.086.124c.027.054.043.1.054.124.016.048.016.048.135.092.038.011.07.027.108.038a.707.707,0,0,1,.679.636c.005.048.022.1.027.129a1.417,1.417,0,0,1,.032.183.757.757,0,0,0,.048.21H90.3a.619.619,0,0,0,.043-.21c.011-.07.022-.135.032-.183.011-.032.022-.081.032-.129a1,1,0,0,1,.081-.269,1.03,1.03,0,0,1,.6-.366c.038-.011.075-.027.108-.038.118-.038.118-.038.135-.092a.953.953,0,0,1,.054-.118.615.615,0,0,1,.086-.124.325.325,0,0,0,.075-.14c.048-.285-.075-.4-.248-.571-.054-.059-.113-.113-.172-.183a1.331,1.331,0,0,1-.113-.145c-.2-.269-.393-.5-.689-.474h-.038a.085.085,0,0,0-.038,0A.105.105,0,0,0,90.215,49.857Z" transform="translate(-88.867 -49.713)" fill="#010103"/></g><g transform="translate(2.57 13.046)"><path d="M82.932,62.46a.234.234,0,0,1-.172-.086A.246.246,0,0,1,82.765,62a.506.506,0,0,1,.291-.172.149.149,0,0,1,.086.027c.118.081.108.318.032.431A.3.3,0,0,1,82.932,62.46Zm.124-.479a.39.39,0,0,0-.194.124.1.1,0,0,0-.005.167.092.092,0,0,0,.07.038c.038,0,.081-.038.124-.1a.24.24,0,0,0,.005-.226Z" transform="translate(-82.677 -61.83)" fill="#010103"/></g><g transform="translate(4.002 10.724)"><path d="M86.253,58.646h0a1.333,1.333,0,0,1-.409-.07.863.863,0,0,1-.506-.42.088.088,0,0,1,.022-.086.365.365,0,0,1,.032-.048,1.292,1.292,0,0,1,.259-.329.846.846,0,0,1,.539-.172.806.806,0,0,1,.269.043c.2.081.388.657.436.819a.1.1,0,0,1,.011.043.065.065,0,0,1-.07.07h-.022a.7.7,0,0,0-.118.054c-.038.016-.075.038-.108.048A1.153,1.153,0,0,1,86.253,58.646Zm-.77-.512a.848.848,0,0,0,.409.3,1.041,1.041,0,0,0,.361.065h0a.946.946,0,0,0,.28-.043c.032-.016.065-.032.1-.048s.081-.038.108-.054a1.6,1.6,0,0,0-.334-.668.605.605,0,0,0-.215-.032.7.7,0,0,0-.447.14,1.168,1.168,0,0,0-.232.291A.127.127,0,0,0,85.483,58.134Z" transform="translate(-85.335 -57.52)" fill="#010103"/></g><g transform="translate(4.236 10.817)"><g transform="translate(5.085 0.016)"><path d="M96.271,58.033a.589.589,0,0,0-.512-.307c-.291-.027-.393.075-.447.156a1.213,1.213,0,0,0-.1.221s.027.528.42.539c.42.016.528-.151.582-.264A.48.48,0,0,0,96.271,58.033Zm-.323.135a.092.092,0,0,1-.092-.1.094.094,0,0,1,.092-.092.091.091,0,0,1,.092.092A.1.1,0,0,1,95.948,58.168Z" transform="translate(-95.21 -57.722)" fill="#010103"/></g><path d="M86.3,57.7a.576.576,0,0,0-.512.3.455.455,0,0,0,.054.339c.054.113.162.28.582.269.388-.011.426-.539.426-.539a1.415,1.415,0,0,0-.1-.221C86.691,57.772,86.594,57.669,86.3,57.7Zm-.189.442a.092.092,0,0,1-.092-.1.1.1,0,0,1,.092-.1.1.1,0,1,1,0,.194Z" transform="translate(-85.769 -57.692)" fill="#010103"/></g><g transform="translate(5.892 15.448)"><g transform="translate(0.059 0.059)"><path d="M91.322,67.622c.382-.005.4-.684.237-.921-.183-.259-1.013-.323-1.336-.3-.312-.027-.98.032-1.163.291-.172.237-.156.916.226.921.183.005.426-.226.5.065.059.248-.167.28-.339.232-.081-.022-.194-.145-.275-.07s.043.242.081.312a1.112,1.112,0,0,0,.6.463.831.831,0,0,0,.339.054.114.114,0,0,1,.226,0,.825.825,0,0,0,.339-.048,1.112,1.112,0,0,0,.6-.463c.043-.065.178-.226.086-.307-.075-.075-.194.043-.275.065-.172.048-.4.016-.339-.232.075-.3.312-.065.5-.065" transform="translate(-88.955 -66.399)" fill="#010103"/></g><path d="M90.41,68.682a.157.157,0,0,1-.075-.016.328.328,0,0,1-.086-.065.477.477,0,0,1-.092.065.148.148,0,0,1-.07.011,1.064,1.064,0,0,1-.307-.065,1.178,1.178,0,0,1-.63-.485l-.022-.027c-.054-.081-.167-.248-.054-.355a.13.13,0,0,1,.1-.038.346.346,0,0,1,.162.059.24.24,0,0,0,.065.032.5.5,0,0,0,.124.022.187.187,0,0,0,.14-.048.155.155,0,0,0,.011-.135c-.027-.1-.065-.1-.092-.1a.446.446,0,0,0-.145.038.674.674,0,0,1-.2.048.348.348,0,0,1-.318-.21.9.9,0,0,1,.043-.8,1.46,1.46,0,0,1,1.061-.323,1.267,1.267,0,0,1,.151.005c.237-.022,1.158.022,1.374.323a.9.9,0,0,1,.032.8.347.347,0,0,1-.312.21.707.707,0,0,1-.2-.048.446.446,0,0,0-.145-.038c-.022,0-.065,0-.092.1a.138.138,0,0,0,.016.135.175.175,0,0,0,.135.048.48.48,0,0,0,.118-.016.719.719,0,0,0,.065-.032.346.346,0,0,1,.162-.059.135.135,0,0,1,.1.043c.113.108-.005.275-.059.35l-.016.027a1.191,1.191,0,0,1-.636.485A1.318,1.318,0,0,1,90.41,68.682Zm-.022-.113h.027a1.129,1.129,0,0,0,.275-.054,1.1,1.1,0,0,0,.571-.436l.022-.032c.038-.054.113-.167.07-.2-.027-.027-.081.005-.124.038a.457.457,0,0,1-.092.043.356.356,0,0,1-.372-.07.257.257,0,0,1-.032-.232c.032-.124.1-.189.2-.189a.566.566,0,0,1,.183.043.482.482,0,0,0,.162.043.227.227,0,0,0,.215-.151.789.789,0,0,0-.027-.684,1.794,1.794,0,0,0-1.142-.28,1.084,1.084,0,0,0-.14.005,1.411,1.411,0,0,0-.151-.005,1.428,1.428,0,0,0-.97.269.789.789,0,0,0-.027.684.24.24,0,0,0,.215.151h0a.634.634,0,0,0,.162-.038.6.6,0,0,1,.183-.043c.1,0,.172.065.2.189a.262.262,0,0,1-.032.226.369.369,0,0,1-.377.07.7.7,0,0,1-.092-.043c-.048-.027-.1-.065-.129-.038-.043.043.032.156.07.2a.318.318,0,0,0,.022.032,1.093,1.093,0,0,0,.566.442,1.254,1.254,0,0,0,.275.059h.027a.322.322,0,0,0,.1-.081l.043-.054.043.059a.216.216,0,0,0,.081.075Z" transform="translate(-88.845 -66.29)" fill="#010103"/></g><g transform="translate(9.827 1.897)"><path d="M98.363,47.675h0a.108.108,0,0,1-.092-.043.34.34,0,0,0-.108-.129,1.454,1.454,0,0,0-.242-.118,2.228,2.228,0,0,1-.232-.108,1.211,1.211,0,0,1-.506-.695,2.007,2.007,0,0,0-.172-.361c-.048-.075-.092-.151-.135-.226a2.485,2.485,0,0,0-.372-.533,1.119,1.119,0,0,1-.092-.172c-.043-.113-.081-.232-.118-.35-.027-.1-.065-.2-.1-.3a1,1,0,0,1,.022-.668,1.322,1.322,0,0,1,.248-.426,1.259,1.259,0,0,0,.194-.312,5.14,5.14,0,0,1,1.056-1.686,1.137,1.137,0,0,1,.937-.4h0a1.134,1.134,0,0,0,.135-.011,1.2,1.2,0,0,1,.312,0,.474.474,0,0,1,.275.318c.016.032.027.07.048.108a4.571,4.571,0,0,1,.194,2.37l-.022.242a1.091,1.091,0,0,1-.075.259,1.03,1.03,0,0,0-.075.3c.005.011.022.022.081.038a.326.326,0,0,1,.221.151.124.124,0,0,1,.011.075.311.311,0,0,1-.027.075,2.716,2.716,0,0,0-.118.431c-.011.065-.027.129-.043.2a1.377,1.377,0,0,1-.215.426c-.032.048-.07.108-.1.162a.71.71,0,0,0-.07.259,1.232,1.232,0,0,1-.054.259,1.516,1.516,0,0,1-.393.5,2.131,2.131,0,0,0-.242.259l-.043.059A.11.11,0,0,1,98.363,47.675Zm.3-6.324a.954.954,0,0,0-.8.345,4.874,4.874,0,0,0-1.007,1.611,1.469,1.469,0,0,1-.221.355,1.1,1.1,0,0,0-.215.366.736.736,0,0,0-.022.533c.038.1.07.2.1.3s.075.226.113.334c.016.038.038.081.059.124a2.556,2.556,0,0,1,.388.555c.043.07.081.145.129.221a2.613,2.613,0,0,1,.189.393,1.022,1.022,0,0,0,.42.592c.059.032.135.065.2.1a1.238,1.238,0,0,1,.28.14.5.5,0,0,1,.081.07c.07-.086.151-.162.226-.242a1.285,1.285,0,0,0,.339-.426.7.7,0,0,0,.043-.21.844.844,0,0,1,.092-.334c.038-.059.075-.118.113-.172a1.116,1.116,0,0,0,.183-.355c.016-.065.027-.129.043-.194a2.357,2.357,0,0,1,.129-.469.171.171,0,0,0-.075-.027.29.29,0,0,1-.21-.162c-.043-.1.005-.242.07-.442a1.661,1.661,0,0,0,.065-.21L99.4,43.9a4.426,4.426,0,0,0-.172-2.262,1.1,1.1,0,0,1-.048-.118c-.048-.113-.081-.178-.14-.2a1.171,1.171,0,0,0-.232.005.367.367,0,0,1-.145.022Z" transform="translate(-96.149 -41.131)" fill="#010103"/></g><g transform="translate(1.236 1.86)"><path d="M81.584,47.654a.091.091,0,0,1-.081-.038l-.054-.07a2.642,2.642,0,0,0-.242-.264,1.5,1.5,0,0,1-.388-.5.853.853,0,0,1-.054-.264.7.7,0,0,0-.065-.259c-.032-.054-.07-.108-.1-.162a1.259,1.259,0,0,1-.21-.426c-.016-.07-.027-.14-.043-.2a1.987,1.987,0,0,0-.113-.426.475.475,0,0,1-.027-.081.088.088,0,0,1,.011-.081.335.335,0,0,1,.226-.151c.054-.022.075-.027.081-.043a1.058,1.058,0,0,0-.075-.3,1.463,1.463,0,0,1-.07-.259l-.022-.242a4.614,4.614,0,0,1,.21-2.381c.016-.038.032-.07.048-.108a.456.456,0,0,1,.28-.318.861.861,0,0,1,.312,0c.048.005.092.011.124.011a1.132,1.132,0,0,1,.948.415,5.141,5.141,0,0,1,1.05,1.7,1.366,1.366,0,0,0,.194.312,1.32,1.32,0,0,1,.248.436,1,1,0,0,1,.022.668c-.038.1-.07.2-.1.3-.038.118-.075.237-.124.35-.022.048-.048.1-.075.151a.074.074,0,0,1-.016.022,2.432,2.432,0,0,0-.382.539c-.043.07-.086.145-.129.221a2.454,2.454,0,0,0-.172.361,1.245,1.245,0,0,1-.512.695,1.879,1.879,0,0,1-.237.108,1.454,1.454,0,0,0-.242.118.389.389,0,0,0-.108.129.122.122,0,0,1-.081.054A.094.094,0,0,0,81.584,47.654Zm-1.169-2.7a2.357,2.357,0,0,1,.129.469c.011.065.027.129.043.194a1.186,1.186,0,0,0,.178.361c.038.054.075.113.113.172a.782.782,0,0,1,.092.334.909.909,0,0,0,.043.21,1.358,1.358,0,0,0,.339.426,3.321,3.321,0,0,1,.232.248.345.345,0,0,1,.081-.07,1.754,1.754,0,0,1,.285-.14,1.455,1.455,0,0,0,.2-.092,1.031,1.031,0,0,0,.426-.592,2.889,2.889,0,0,1,.189-.393c.048-.075.086-.145.129-.215a2.562,2.562,0,0,1,.4-.571.539.539,0,0,0,.054-.113c.043-.108.081-.226.118-.339a2.862,2.862,0,0,1,.108-.3A.78.78,0,0,0,83.561,44a1.245,1.245,0,0,0-.21-.366,1.5,1.5,0,0,1-.221-.361,4.8,4.8,0,0,0-1-1.627.948.948,0,0,0-.8-.355c-.038,0-.092-.005-.145-.011a1.226,1.226,0,0,0-.237-.005c-.059.022-.092.081-.14.2-.016.038-.032.081-.048.118a4.4,4.4,0,0,0-.189,2.273l.022.242a1.482,1.482,0,0,0,.059.21c.07.2.113.345.07.442a.266.266,0,0,1-.215.162A.365.365,0,0,0,80.415,44.956Z" transform="translate(-80.2 -41.064)" fill="#010103"/></g><g transform="translate(0.762 5.839)"><path d="M85.892,65.756l-.081-.005a1.7,1.7,0,0,1-.361-.038,1.419,1.419,0,0,1-.926-.776,1.675,1.675,0,0,1-.172-.022,1.959,1.959,0,0,1-.813-.436c-.145-.14-.285-.307-.426-.469l-.21-.242a1.627,1.627,0,0,1-.194-.28,1.086,1.086,0,0,0-.178-.242c-.059-.054-.124-.108-.189-.162a2.408,2.408,0,0,1-.215-.183c-.2-.183-.377-.377-.56-.571a8.7,8.7,0,0,0-.711-.7,1.525,1.525,0,0,1-.512-.679,2.445,2.445,0,0,1-.081-.355,1.242,1.242,0,0,0-.129-.447,1.3,1.3,0,0,0-.264-.291,1.965,1.965,0,0,1-.329-.366,1.516,1.516,0,0,1-.172-.873c0-.215-.011-.393-.027-.56a3.037,3.037,0,0,1,.118-1.336c.054-.14.1-.285.14-.426a4.388,4.388,0,0,1,.42-1.013,1.34,1.34,0,0,0,.129-.964l-.022-.215a2.477,2.477,0,0,1,.145-1.352,3.235,3.235,0,0,1,.4-.544c.086-.1.172-.2.242-.3a3.129,3.129,0,0,1,.517-.517,3.031,3.031,0,0,0,.382-.361l.086-.1c.183-.221.377-.436.544-.668a2.118,2.118,0,0,0,.269-.609,1.87,1.87,0,0,1,.566-.97,1.675,1.675,0,0,1,.9-.237,1.65,1.65,0,0,1,.339.032l.183.043.005.189a.206.206,0,0,0,.005.081s.027.022.135.022a2.724,2.724,0,0,0,.506-.081,2.251,2.251,0,0,1,.436-.07l.07.005a.7.7,0,0,1,.092-.005,2.236,2.236,0,0,1,.442.07,2.724,2.724,0,0,0,.506.081.233.233,0,0,0,.129-.022s.011-.016.005-.075l-.011-.167L87.2,48.5a1.5,1.5,0,0,1,.366-.043,1.619,1.619,0,0,1,.916.248,1.821,1.821,0,0,1,.56.975,2.275,2.275,0,0,0,.264.609c.167.232.35.447.533.663l.092.108a2.7,2.7,0,0,0,.382.361,2.91,2.91,0,0,1,.512.517c.07.1.156.2.242.3a2.966,2.966,0,0,1,.4.544,2.475,2.475,0,0,1,.14,1.33l-.022.232a1.339,1.339,0,0,0,.124.964,4.25,4.25,0,0,1,.409,1.013c.043.145.086.285.14.431a3.036,3.036,0,0,1,.108,1.336c-.011.172-.022.345-.022.533a1.58,1.58,0,0,1-.183.9,1.761,1.761,0,0,1-.329.361,1.488,1.488,0,0,0-.269.291,1.457,1.457,0,0,0-.129.447,2.617,2.617,0,0,1-.081.355,1.517,1.517,0,0,1-.517.673,7.9,7.9,0,0,0-.716.695c-.183.194-.361.382-.56.566-.07.065-.145.124-.221.183s-.129.1-.189.162a1.086,1.086,0,0,0-.178.242,1.659,1.659,0,0,1-.2.28l-.2.237a6.192,6.192,0,0,1-.431.474,2.012,2.012,0,0,1-.813.431,1.673,1.673,0,0,1-.172.022,1.409,1.409,0,0,1-.932.765A1.076,1.076,0,0,1,85.892,65.756Zm-.075-.442.075.005a1.63,1.63,0,0,0,.248-.032,1.108,1.108,0,0,0,.7-.663L86.9,64.5l.145.011a.541.541,0,0,0,.189-.011,1.569,1.569,0,0,0,.614-.323,5.179,5.179,0,0,0,.4-.436c.07-.081.14-.167.215-.248a1.333,1.333,0,0,0,.145-.21,1.425,1.425,0,0,1,.253-.339c.065-.059.14-.118.21-.178s.135-.108.194-.167c.189-.172.366-.355.539-.544a8.988,8.988,0,0,1,.759-.738,1.186,1.186,0,0,0,.382-.474,2.392,2.392,0,0,0,.065-.3,1.687,1.687,0,0,1,.189-.592,1.971,1.971,0,0,1,.339-.388,1.356,1.356,0,0,0,.259-.275,1.181,1.181,0,0,0,.113-.641c0-.226.016-.409.027-.592A2.628,2.628,0,0,0,91.86,56.9c-.054-.151-.1-.3-.145-.447a4.161,4.161,0,0,0-.366-.921,1.775,1.775,0,0,1-.183-1.239l.022-.2a2.09,2.09,0,0,0-.092-1.11,3.117,3.117,0,0,0-.345-.463c-.1-.113-.189-.221-.264-.329a2.448,2.448,0,0,0-.442-.442,3.447,3.447,0,0,1-.431-.415l-.092-.108c-.189-.226-.377-.452-.549-.684a2.723,2.723,0,0,1-.329-.733,1.511,1.511,0,0,0-.409-.765,1.3,1.3,0,0,0-.754-.156.48.48,0,0,1-.108.2c-.194.21-.657.156-1.05.065a2.024,2.024,0,0,0-.345-.065.381.381,0,0,1-.081.005l-.07-.005a1.1,1.1,0,0,0-.355.059c-.388.086-.851.135-1.045-.075a.422.422,0,0,1-.108-.2,1.329,1.329,0,0,0-.754.145,1.516,1.516,0,0,0-.415.765,2.69,2.69,0,0,1-.329.727c-.178.237-.372.469-.566.695l-.081.1a3.1,3.1,0,0,1-.436.409,2.454,2.454,0,0,0-.447.436c-.075.108-.172.215-.269.329a2.619,2.619,0,0,0-.35.463,2.129,2.129,0,0,0-.1,1.088l.027.221a1.787,1.787,0,0,1-.189,1.239,4.146,4.146,0,0,0-.377.916c-.048.151-.092.3-.145.442A2.618,2.618,0,0,0,79.794,58c.011.183.027.366.022.56a1.287,1.287,0,0,0,.108.673,1.486,1.486,0,0,0,.253.275,1.365,1.365,0,0,1,.522.98,2.722,2.722,0,0,0,.065.3,1.155,1.155,0,0,0,.377.479,8.892,8.892,0,0,1,.754.738c.172.189.345.372.533.544.065.059.129.113.2.167s.14.113.21.178a1.425,1.425,0,0,1,.253.339,1.334,1.334,0,0,0,.145.21c.07.081.145.167.215.253.129.151.259.3.393.436a1.6,1.6,0,0,0,.609.329.472.472,0,0,0,.129.016l.2-.016.065.129a1.118,1.118,0,0,0,.7.668,1.3,1.3,0,0,0,.248.032Z" transform="translate(-79.321 -48.45)" fill="#010103"/></g></g><g transform="translate(16.779 16.25)"><g transform="translate(0)"><path d="M55.816,75.025a1.29,1.29,0,0,1-.765-.264,3.352,3.352,0,0,1-.361-.474,3.288,3.288,0,0,1-.2-1.734c.011-.118.28-3.054,1.589-4.164a2.861,2.861,0,0,1,1.546-.609h.059a3.652,3.652,0,0,1,2.4.856,9.01,9.01,0,0,1,2.1,2.44c.022.043.641,1.217-.027,1.8a1.4,1.4,0,0,1-1.605-.167,2.081,2.081,0,0,1-.253-.275c-.011-.016-.91-1.212-1.858-1.158a.338.338,0,0,1-.167,0,.429.429,0,0,1-.156-.075.638.638,0,0,1-.124-.14.526.526,0,0,1-.086.318l-.022.032c-.016.022-.032.048-.065.092h0l-.059.086a2.862,2.862,0,0,0-.533,1.524c-.005.065-.092,1.293-.743,1.707A1.132,1.132,0,0,1,55.816,75.025ZM57.685,68h-.048a2.643,2.643,0,0,0-1.417.555c-1.25,1.05-1.519,4-1.519,4.024a3.17,3.17,0,0,0,.172,1.605,3.964,3.964,0,0,0,.318.415,1.018,1.018,0,0,0,.619.2,1.192,1.192,0,0,0,.56-.151c.56-.361.646-1.519.646-1.53a3.045,3.045,0,0,1,.571-1.643c.043-.065.07-.1.07-.1a.213.213,0,0,0,.043-.065.189.189,0,0,1,.027-.043A.3.3,0,0,0,57.761,71L57.308,69.7c-.065-.269-.059-.339-.022-.393a.131.131,0,0,1,.1-.048c.048,0,.113,0,.264.3l.479,1.287a.543.543,0,0,0,.135.189.719.719,0,0,0,.065.032.277.277,0,0,0,.092-.005.724.724,0,0,1,.1-.005c1.034,0,1.928,1.2,1.966,1.25a2.213,2.213,0,0,0,.215.242,1.175,1.175,0,0,0,.77.291,1.141,1.141,0,0,0,.566-.14c.528-.463-.032-1.519-.038-1.53a8.823,8.823,0,0,0-2.047-2.37A3.648,3.648,0,0,0,57.685,68Z" transform="translate(-54.458 -67.78)" fill="#010103"/></g></g><g transform="translate(15.387 14.77)"><g transform="translate(0 2.432)"><path d="M52.1,69.785a.8.8,0,0,0-.2.695.757.757,0,0,0,.786.318s.8-.21.571-.943A.768.768,0,0,0,52.1,69.785Zm.8.043c-.043.043-.135.1-.2.075a.153.153,0,0,1-.065-.215C52.739,69.537,53.079,69.661,52.906,69.828Z" transform="translate(-51.875 -69.546)" fill="#010103"/></g><g transform="translate(6.039)"><path d="M64.376,65.219a.84.84,0,0,0-.937-.07.813.813,0,0,0-.35.8.728.728,0,0,0,.991.232A.792.792,0,0,0,64.376,65.219Zm-.684.237a.211.211,0,0,1-.366.022c-.1-.167.059-.307.237-.253A.2.2,0,0,1,63.692,65.456Z" transform="translate(-63.086 -65.031)" fill="#010103"/></g></g><g transform="translate(18.49 12.227)"><g transform="translate(0)"><path d="M58.5,60.849a.992.992,0,0,1-.178-.016,1.376,1.376,0,0,1-.652-.334.109.109,0,0,1,.145-.162,1.125,1.125,0,0,0,.544.28,1.23,1.23,0,0,0,.345,0,1.352,1.352,0,0,1,.3-.011.108.108,0,0,1,.1.113.112.112,0,0,1-.113.1,2.207,2.207,0,0,0-.264.011C58.656,60.838,58.58,60.849,58.5,60.849Z" transform="translate(-57.635 -60.31)" fill="#010103"/></g></g><g transform="translate(7.927 11.923)"><path d="M44.572,66.809a.212.212,0,0,1-.145-.054,4.61,4.61,0,0,0-1.476-.323.715.715,0,0,1-.167.011A.941.941,0,0,1,41.862,66a9,9,0,0,1-.759-.948,1.479,1.479,0,0,0-.652-.506.211.211,0,0,1-.075-.043c-.625-.517-1.584-1.325-1.584-1.325a2.385,2.385,0,0,1-.765-1.357c-.016-.3.038-.932.038-.959a.123.123,0,0,1,.016-.059,1.89,1.89,0,0,1,2.1-1.029l.043-.005c1.821,0,4.815,1.627,4.939,1.7a.206.206,0,0,1,.113.167.217.217,0,0,1-.065.183,4.177,4.177,0,0,0-.813,1.546,6.859,6.859,0,0,0-.108.937,3.113,3.113,0,0,0,.458,2.171.216.216,0,0,1-.038.285A.2.2,0,0,1,44.572,66.809ZM42.95,66a8.344,8.344,0,0,1,1.158.183,3.16,3.16,0,0,1-.242-1.944h0a7.357,7.357,0,0,1,.118-.991,5.226,5.226,0,0,1,.738-1.53,12.853,12.853,0,0,0-4.487-1.514H40.16a2.793,2.793,0,0,0-.339-.022,1.3,1.3,0,0,0-1.314.749c-.011.129-.048.63-.038.84a1.891,1.891,0,0,0,.592,1.061c.022.016.948.8,1.573,1.314a1.874,1.874,0,0,1,.829.652,7.43,7.43,0,0,0,.738.916.208.208,0,0,1,.065.1h0C42.25,65.818,42.374,66.055,42.95,66Z" transform="translate(-38.024 -59.745)" fill="#010103"/></g><g transform="translate(10.173 13.439)"><path d="M44.411,67h-.016c-.113-.005-.194-.118-.232-.183a1.657,1.657,0,0,1-.129-.28c-.022-.054-.043-.108-.065-.156a1.773,1.773,0,0,0-.609-.8l-.059-.038c-.2-.129-.5-.329-.458-.652a.362.362,0,0,1,.329-.3c.113-.022.388-.07.442-.167.005-.005.016-.027,0-.065a.707.707,0,0,0-.3-.3L43.231,64a2.866,2.866,0,0,1-.248-.2l-.086-.07c-.043-.038-.092-.07-.135-.1a1.5,1.5,0,0,1-.269-.226c-.129-.151-.388-.442-.269-.684a.342.342,0,0,1,.339-.162c.048,0,.092.005.129.005.3.027.582.075.856.124.151.027.3.054.447.075a.9.9,0,0,0,.167.011,1.31,1.31,0,0,1,.2.016l.1.022a1.56,1.56,0,0,0,.221.032,1.2,1.2,0,0,1,.652.162,1.029,1.029,0,0,1,.307,1.05,2.806,2.806,0,0,0,.022,1.12c.1.646-.183.883-.426.97-.086.027-.108.075-.156.178a.927.927,0,0,1-.145.242c-.022.022-.043.054-.07.086C44.761,66.8,44.594,67,44.411,67ZM42.569,62.77c-.054,0-.129.011-.145.043-.054.113.156.355.226.431a1.437,1.437,0,0,0,.242.2c.054.038.1.075.151.113l.086.075a2.467,2.467,0,0,0,.232.183l.075.054a.9.9,0,0,1,.382.4.287.287,0,0,1-.011.248c-.1.189-.415.242-.582.275-.075.016-.156.043-.162.118-.022.189.189.334.361.447l.059.038a2.01,2.01,0,0,1,.684.883c.027.054.048.113.07.167a1.5,1.5,0,0,0,.113.248c.027.043.048.07.065.075.081-.005.226-.183.291-.269.032-.038.059-.075.081-.1a.584.584,0,0,0,.108-.183.436.436,0,0,1,.28-.291c.092-.032.372-.129.285-.716A3.163,3.163,0,0,1,45.44,64a.827.827,0,0,0-.226-.835.993.993,0,0,0-.517-.118c-.108-.011-.183-.022-.269-.038L44.33,63a1.7,1.7,0,0,0-.172-.016,1.178,1.178,0,0,1-.194-.016c-.151-.022-.3-.048-.452-.075-.269-.048-.544-.1-.813-.118A1.031,1.031,0,0,1,42.569,62.77Z" transform="translate(-42.194 -62.56)" fill="#010103"/></g><g transform="translate(20.338 5.807)"><path d="M64.4,57.552c-.118,0-.221-.145-.221-.264a2.37,2.37,0,0,0-.835-1.729,4.588,4.588,0,0,0-1.169-.873.193.193,0,0,1-.075-.054,1.14,1.14,0,0,0-.8-.248.23.23,0,0,1-.178-.081.219.219,0,0,1-.059-.178,14.658,14.658,0,0,1,1.476-4.363c.022-.038.743-1.18,1.562-1.347h0c-.016,0,.625-.226,1.282.641.005.005.145.2.248.372a3.8,3.8,0,0,1,.285,1.18c-.016.21-.145,1.955-.237,2.284a1.529,1.529,0,0,0-.075.614.123.123,0,0,1,.016.059s.108.851.135,1.061a2.1,2.1,0,0,1-.28,1.158,2.1,2.1,0,0,0-.4.469,6.29,6.29,0,0,1-.382.835c-.016.065-.048.2-.086.307A.238.238,0,0,1,64.4,57.552ZM62.382,54.3a5.131,5.131,0,0,1,1.266.948A2.939,2.939,0,0,1,64.5,56.54c.081-.178.156-.366.194-.458a2.6,2.6,0,0,1,.506-.609,2.572,2.572,0,0,0,.135-.824c-.022-.156-.108-.856-.129-1a1.85,1.85,0,0,1,.065-.873c.059-.215.167-1.454.221-2.187a3.233,3.233,0,0,0-.237-.964l-.21-.307c-.426-.566-.829-.479-.829-.479-.555.113-1.131.878-1.309,1.163a13.4,13.4,0,0,0-1.363,3.964A1.442,1.442,0,0,1,62.382,54.3Z" transform="translate(-61.066 -48.391)" fill="#010103"/></g><g transform="translate(18.44 16.811)"><g transform="translate(0.036 0.03)"><path d="M59.812,69.223A.8.8,0,0,0,59,68.889a2.329,2.329,0,0,0-1.19.533.673.673,0,0,0-.022.926s.032.259.517-.038c0,0,.28-.237.011-.361,0,0-.156-.124.043-.183,0,0,.323-.005.237.625,0,0-.226-.086-.129.07a.437.437,0,0,0,.539.172l-.189-.555s-.086-.49.162-.038c0,0,.167.447.189.5s.032.043.032.043.329-.178.3-.479c0,0,0-.108-.14.011,0,0-.264-.032-.291-.442,0,0-.038-.237.145-.248,0,0,.178.043.054.2,0,0-.124.452.528.183C59.8,69.8,60.06,69.611,59.812,69.223Z" transform="translate(-57.608 -68.876)" fill="#010103"/></g><path d="M58.806,70.694a.5.5,0,0,1-.4-.232.127.127,0,0,1-.022-.124.092.092,0,0,1,.086-.038.316.316,0,0,1,.07.011.6.6,0,0,0-.075-.447.163.163,0,0,0-.113-.065c-.043.016-.059.027-.059.038a.1.1,0,0,0,.043.059.215.215,0,0,1,.135.156c.016.135-.129.264-.145.28a.8.8,0,0,1-.4.156.183.183,0,0,1-.194-.129.726.726,0,0,1,.027-.98,2.351,2.351,0,0,1,1.217-.549.789.789,0,0,1,.162-.011.847.847,0,0,1,.7.366c.264.415-.022.641-.027.641l-.011.005a1.012,1.012,0,0,1-.355.092h0a.243.243,0,0,1-.2-.086.325.325,0,0,1-.038-.248l.005-.016c.027-.032.043-.065.032-.081s-.038-.038-.054-.043a.105.105,0,0,0-.065.032.256.256,0,0,0-.027.162c.022.307.178.382.232.4.075-.059.135-.065.172-.027a.1.1,0,0,1,.027.07.606.606,0,0,1-.323.522l-.011.005h-.016c-.048,0-.07-.059-.075-.081-.016-.048-.183-.5-.189-.5a.976.976,0,0,0-.081-.129.749.749,0,0,0,.016.145l.2.592-.043.016A.555.555,0,0,1,58.806,70.694Zm-.334-.3c0,.005.005.011.011.022a.421.421,0,0,0,.323.183.48.48,0,0,0,.118-.016l-.172-.512c-.016-.1-.032-.226.005-.269a.058.058,0,0,1,.048-.022c.043,0,.092.038.189.215.011.027.162.431.189.506a.5.5,0,0,0,.242-.409.31.31,0,0,0-.065.043l-.016.016-.022-.005c-.011,0-.3-.043-.329-.485a.355.355,0,0,1,.043-.232.189.189,0,0,1,.145-.07h.011l.005.005a.179.179,0,0,1,.129.108.19.19,0,0,1-.043.167.222.222,0,0,0,.022.151c.022.032.065.043.124.043h0a.858.858,0,0,0,.312-.081c.032-.027.2-.194-.005-.512a.744.744,0,0,0-.619-.323.758.758,0,0,0-.151.016,2.222,2.222,0,0,0-1.163.522.626.626,0,0,0-.016.862l.011.011v.016c0,.011.016.065.1.065a.686.686,0,0,0,.345-.14c.027-.022.113-.113.108-.183a.1.1,0,0,0-.081-.113c-.022-.016-.1-.081-.086-.156a.166.166,0,0,1,.135-.113h.016a.274.274,0,0,1,.189.1.731.731,0,0,1,.092.587l-.011.059-.054-.022A.182.182,0,0,0,58.472,70.393Z" transform="translate(-57.541 -68.82)" fill="#010103"/><g transform="translate(1.519 1.11)"><g transform="translate(0.05 0.039)"><path d="M60.77,72.023c-.022.005-.043.027-.065.032s-.027-.038-.038-.059l-.032-.081a1.421,1.421,0,0,0-.081-.156.659.659,0,0,1-.054-.129c-.011-.054-.005-.118-.022-.172a.3.3,0,0,1-.022-.065.14.14,0,0,1,.011-.092.239.239,0,0,1,.043-.059.27.27,0,0,1,.075-.054,1.243,1.243,0,0,1,.151-.054c.022-.005.043-.016.059-.022s.022.005.038.005c.059,0,.1-.065.14-.1a.131.131,0,0,1,.151-.054c.065.032.038.151.022.21a.962.962,0,0,1-.086.21,1.553,1.553,0,0,0-.108.291.366.366,0,0,0,.038.135s.048.092-.027.135C60.958,71.943,60.883,71.98,60.77,72.023Z" transform="translate(-60.454 -70.953)" fill="#010103"/></g><path d="M60.657,72.07c-.059,0-.07-.059-.075-.075a.02.02,0,0,0-.005-.016l-.011-.027c-.005-.022-.016-.038-.022-.059A.7.7,0,0,0,60.5,71.8c-.011-.022-.022-.038-.032-.059a.586.586,0,0,1-.054-.14.531.531,0,0,1-.011-.092.171.171,0,0,0-.011-.075c-.005-.011-.005-.016-.011-.022s-.011-.032-.016-.054a.16.16,0,0,1,.016-.118.274.274,0,0,1,.048-.07.179.179,0,0,1,.086-.059.719.719,0,0,1,.1-.038.161.161,0,0,0,.054-.022l.027.043-.016-.043a.128.128,0,0,1,.065-.016h.038c.032,0,.059-.032.086-.059.005-.011.016-.016.022-.022a.192.192,0,0,1,.14-.075.144.144,0,0,1,.065.016c.075.038.092.124.048.264a.894.894,0,0,1-.1.226,1.324,1.324,0,0,0-.1.269.4.4,0,0,0,.027.1.145.145,0,0,1-.043.2,1.069,1.069,0,0,1-.194.081c-.005,0-.011.005-.022.011a.1.1,0,0,1-.048.022Zm.1-.943a.127.127,0,0,0-.043.011h-.011a.263.263,0,0,1-.059.022.561.561,0,0,0-.086.032.282.282,0,0,0-.059.043c-.016.016-.027.038-.038.048a.1.1,0,0,0-.005.059.077.077,0,0,0,.011.032.077.077,0,0,1,.011.032.349.349,0,0,1,.011.108.285.285,0,0,0,.005.07.66.66,0,0,0,.048.124c.011.022.022.032.032.054a.337.337,0,0,1,.054.108.371.371,0,0,0,.022.054l.011.027c0,.005.005.011.005.022h0l.038-.022a1.36,1.36,0,0,0,.178-.075c.032-.016.011-.054.005-.07a.529.529,0,0,1-.043-.156,1.346,1.346,0,0,1,.108-.312.6.6,0,0,0,.086-.2c.027-.1.016-.145,0-.156-.032-.016-.054-.005-.1.043l-.016.022a.22.22,0,0,1-.151.1C60.776,71.128,60.77,71.128,60.759,71.128Z" transform="translate(-60.362 -70.88)" fill="#010103"/></g><g transform="translate(0.53 1.528)"><g transform="translate(0.044 0.044)"><path d="M59.556,72.483a.179.179,0,0,0,.075-.005c.022-.011.022-.054.016-.075a.5.5,0,0,0-.022-.086l-.065-.1a.719.719,0,0,1-.038-.1c-.011-.027-.022-.048-.032-.07a.311.311,0,0,1-.027-.075.72.72,0,0,0-.032-.065.44.44,0,0,0-.059-.124c-.011-.011-.016-.038-.032-.043a.12.12,0,0,0-.075,0c-.059.011-.118.016-.178.032-.043.016-.086.022-.129.038-.016.005-.032.022-.048.022s-.038-.005-.059-.005a.475.475,0,0,0-.092.011c-.054.011-.14.027-.151.086-.022.092.151.14.215.162a3.3,3.3,0,0,1,.323.118c.065.027.113.048.129.124.011.054.005.118.059.145A.51.51,0,0,0,59.556,72.483Z" transform="translate(-58.607 -71.738)" fill="#010103"/></g><path d="M59.4,72.5a.358.358,0,0,1-.118-.022.165.165,0,0,1-.081-.145c0-.011-.005-.022-.005-.032-.011-.048-.038-.065-.1-.092-.124-.048-.226-.086-.323-.118l-.016-.005c-.086-.027-.259-.081-.232-.21.016-.086.118-.108.178-.124a.367.367,0,0,1,.1-.011h.016a.068.068,0,0,1,.032.005.134.134,0,0,0,.043-.005l.011-.005A.458.458,0,0,1,59,71.707a.157.157,0,0,0,.048-.011.913.913,0,0,1,.167-.032h.022c.054-.011.075-.011.1.005s.032.032.043.043l.005.011a.273.273,0,0,1,.048.1.263.263,0,0,0,.016.038c.005.005.011.016.016.022s.016.027.022.043.011.027.016.038a.179.179,0,0,0,.016.032c0,.011.011.022.016.032a.1.1,0,0,1,.016.043.872.872,0,0,0,.032.092.5.5,0,0,1,.027.043l.032.048a.285.285,0,0,1,.027.1c.005.065-.011.113-.048.129a.1.1,0,0,1-.054.011H59.5A.543.543,0,0,1,59.4,72.5Zm-.587-.663a.416.416,0,0,0-.081.011c-.043.011-.108.022-.113.048s.048.065.167.1L58.8,72c.1.032.2.07.329.118a.218.218,0,0,1,.156.156c0,.011.005.027.005.038.005.043.011.065.032.07a.358.358,0,0,0,.172.005h.075a.024.024,0,0,0,0-.027c-.005-.016-.011-.048-.016-.065s-.016-.027-.027-.043-.027-.038-.038-.059c-.016-.038-.027-.07-.043-.1a.179.179,0,0,0-.016-.032c-.005-.011-.011-.027-.016-.038s-.005-.022-.011-.032-.011-.027-.016-.043a.118.118,0,0,0-.016-.027l-.016-.032a.192.192,0,0,1-.022-.048.181.181,0,0,0-.032-.065.046.046,0,0,1-.016-.027.1.1,0,0,0-.032-.005l-.032.005a1.253,1.253,0,0,0-.151.027l-.054.016a.267.267,0,0,0-.07.022.176.176,0,0,1-.07.022.105.105,0,0,1-.043-.005C58.829,71.841,58.824,71.841,58.813,71.841Z" transform="translate(-58.525 -71.656)" fill="#010103"/></g></g><g transform="translate(15.233 18.847)"><path d="M53.28,74.006a1.007,1.007,0,0,1-.469-.221c-.032-.022-.059-.043-.081-.054a4.491,4.491,0,0,1-.474-.35,1.911,1.911,0,0,1-.215-.2,1.288,1.288,0,0,0-.124-.118c-.027-.027-.059-.059-.092-.1a.668.668,0,0,0-.162-.151.1.1,0,0,1-.07-.135.109.109,0,0,1,.135-.07.7.7,0,0,1,.253.21.381.381,0,0,0,.081.081l.129.129c.065.065.129.129.2.189a3.92,3.92,0,0,0,.452.334c.027.016.054.038.092.059a1.437,1.437,0,0,0,.312.178.107.107,0,0,1,.1-.038.113.113,0,0,1,.092.124v.022a.117.117,0,0,1-.075.1A.216.216,0,0,1,53.28,74.006Z" transform="translate(-51.588 -72.601)" fill="#010103"/></g><g transform="translate(22.609 15.737)"><path d="M65.491,68.638l-.092-.054-.005.005-.108.016c-.011-.048-.011-.048.162-.285.065-.092.151-.21.172-.248a1.36,1.36,0,0,0,.189-.517,1.334,1.334,0,0,0,.005-.21,1.232,1.232,0,0,1,.048-.452.116.116,0,0,1,.145-.059.109.109,0,0,1,.059.14,1.058,1.058,0,0,0-.032.361c0,.086,0,.172-.005.242a1.55,1.55,0,0,1-.215.6c-.022.043-.086.129-.183.269C65.567,68.536,65.508,68.611,65.491,68.638Z" transform="translate(-65.283 -66.826)" fill="#010103"/></g><g transform="translate(19.43 11.984)"><g transform="translate(0)"><path d="M61.007,60.506a.049.049,0,0,1-.027-.005,1.263,1.263,0,0,1-.377-.178,2.279,2.279,0,0,0-.226-.118,2.228,2.228,0,0,0-.889-.129.108.108,0,0,1,0-.215h0a2.375,2.375,0,0,1,.97.145,1.869,1.869,0,0,1,.248.135,1.2,1.2,0,0,0,.318.151.106.106,0,0,1,.081.129A.091.091,0,0,1,61.007,60.506Z" transform="translate(-59.38 -59.86)" fill="#010103"/></g></g><g transform="translate(19.872 19.611)"><path d="M60.308,74.683a.111.111,0,0,1-.092-.054.117.117,0,0,1,0-.118l.1-.151a2.5,2.5,0,0,1,.792-.329.666.666,0,0,1,.1-.011,1.225,1.225,0,0,1,.291.048.1.1,0,0,1,.075.092.1.1,0,0,1-.054.1,4,4,0,0,1-1.2.409C60.319,74.677,60.313,74.683,60.308,74.683Z" transform="translate(-60.2 -74.02)" fill="#010103"/></g><g transform="translate(20.085 21.04)"><path d="M61.142,77.538a2.368,2.368,0,0,1-.458-.048.11.11,0,0,1-.086-.129.1.1,0,0,1,.129-.081,1.6,1.6,0,0,0,1.664-.566.111.111,0,0,1,.151-.022.117.117,0,0,1,.022.156A1.806,1.806,0,0,1,61.142,77.538Z" transform="translate(-60.597 -76.672)" fill="#010103"/></g><g transform="translate(19.322 15.356)"><path d="M59.18,66.12" transform="translate(-59.18 -66.12)" fill="#010103" stroke="#010204" stroke-linecap="round" stroke-linejoin="round" stroke-miterlimit="10" stroke-width="0.402"/></g><g transform="translate(19.326 15.144)"><path d="M60.756,66.768a2.113,2.113,0,0,1-1.557-.883.106.106,0,0,1,.043-.145.112.112,0,0,1,.145.038,1.725,1.725,0,0,0,1.675.743.107.107,0,0,1,.129.081.115.115,0,0,1-.081.135A2.812,2.812,0,0,1,60.756,66.768Z" transform="translate(-59.186 -65.726)" fill="#010103"/></g><g transform="translate(17.106 15.403)"><path d="M55.176,68.256a.111.111,0,0,1-.1-.065.109.109,0,0,1,.059-.14,1.407,1.407,0,0,0,1.023-1.7.1.1,0,0,1,.07-.135.1.1,0,0,1,.135.07,1.627,1.627,0,0,1-1.147,1.966C55.208,68.256,55.192,68.256,55.176,68.256Z" transform="translate(-55.066 -66.208)" fill="#010103"/></g><g transform="translate(21.946 14.328)"><path d="M65.063,64.695c-.075-.005-.113-.065-.178-.108a1.726,1.726,0,0,0-.178-.086.758.758,0,0,0-.291-.059c-.1-.005-.275.032-.339-.065-.113-.167.172-.167.253-.167A.74.74,0,0,1,65.063,64.695Z" transform="translate(-64.051 -64.21)" fill="#010103"/></g><g transform="translate(21.409 15.039)"><path d="M63.607,66.667a1.165,1.165,0,0,1-.323-.048c-.011-.005-.022-.005-.032-.011-.081-.027-.178-.054-.194-.156a.8.8,0,0,1,.027-.291.034.034,0,0,1,.065.022.68.68,0,0,0-.022.253c.011.054.065.075.151.1.011.005.022.005.032.011a.85.85,0,0,0,.566-.005.82.82,0,0,0,.56-.97.033.033,0,0,1,.027-.043c.016,0,.038.011.038.027a.905.905,0,0,1-.6,1.05A.686.686,0,0,1,63.607,66.667Z" transform="translate(-63.054 -65.53)" fill="#010103"/></g><g transform="translate(20.291 13.598)"><path d="M64.157,64.285a.115.115,0,0,1-.092-.043l-.517-.738a.891.891,0,0,0-.673-.248,7.8,7.8,0,0,1-1.853-.2.108.108,0,0,1,.113-.183,9.288,9.288,0,0,0,1.729.172,1.131,1.131,0,0,1,.846.323l.533.749a.106.106,0,0,1-.027.151A.081.081,0,0,1,64.157,64.285Z" transform="translate(-60.978 -62.856)" fill="#010103"/></g><g transform="translate(18.943 13.693)"><path d="M58.608,63.828a.11.11,0,0,1-.108-.092l-.005-.032a.661.661,0,0,1,.016-.366.462.462,0,0,1,.21-.253.1.1,0,0,1,.07-.048.118.118,0,0,1,.14.059.1.1,0,0,1-.027.129l-.027.016c-.1.059-.129.075-.167.172a.463.463,0,0,0-.005.259l.005.032a.109.109,0,0,1-.092.124Z" transform="translate(-58.476 -63.031)" fill="#010103"/></g><g transform="translate(16.945 14.566)"><g transform="translate(0)"><path d="M55.781,65.093a.1.1,0,0,1-.1-.059.454.454,0,0,0-.463-.162,1.172,1.172,0,0,0-.145.038l-.178.048a.11.11,0,0,1-.129-.081.111.111,0,0,1,.081-.129,1.416,1.416,0,0,0,.162-.043,1.04,1.04,0,0,1,.178-.043.652.652,0,0,1,.689.28.108.108,0,0,1-.048.145A.149.149,0,0,1,55.781,65.093Z" transform="translate(-54.767 -64.652)" fill="#010103"/></g></g><g transform="translate(14.534 13.073)"><g transform="translate(1.315)"><path d="M52.838,63.211a.11.11,0,0,1-.1-.07A.117.117,0,0,1,52.8,63c.113-.038.242-.253.3-.388a1.471,1.471,0,0,0,.092-.382.808.808,0,0,1,.113-.3.106.106,0,0,1,.151-.027.11.11,0,0,1,.027.151.535.535,0,0,0-.075.21,1.862,1.862,0,0,1-.113.436c-.043.1-.2.426-.426.506C52.86,63.206,52.849,63.211,52.838,63.211Z" transform="translate(-52.731 -61.881)" fill="#010103"/></g><g transform="translate(0 2.233)"><path d="M50.608,69.406a.1.1,0,0,1-.1-.081c-.081-.307-.145-.566-.194-.851a1.008,1.008,0,0,1,.194-.829,6.535,6.535,0,0,1,.587-.776,1.808,1.808,0,0,0,.463-.754.11.11,0,1,1,.215.043,2.02,2.02,0,0,1-.512.851,6.781,6.781,0,0,0-.571.754.792.792,0,0,0-.162.668c.048.28.113.539.189.835a.1.1,0,0,1-.075.129A.04.04,0,0,1,50.608,69.406Z" transform="translate(-50.29 -66.027)" fill="#010103"/></g><g transform="translate(0.535 0.661)"><path d="M51.4,64.79a.115.115,0,0,1-.108-.086,1.022,1.022,0,0,1,.016-.339c.011-.048.016-.092.022-.129a1.428,1.428,0,0,1,.14-.56,1.128,1.128,0,0,1,.307-.366,1.254,1.254,0,0,0,.124-.1,1.182,1.182,0,0,0,.1-.075.1.1,0,0,1,.151.022.106.106,0,0,1-.022.151l-.086.07c-.048.038-.092.075-.145.113a1.013,1.013,0,0,0-.248.3,1.133,1.133,0,0,0-.113.469,1.353,1.353,0,0,1-.022.145.726.726,0,0,0-.016.259.11.11,0,0,1-.081.129A.054.054,0,0,1,51.4,64.79Z" transform="translate(-51.283 -63.108)" fill="#010103"/></g><g transform="translate(0.389 4.22)"><path d="M51.2,70.252a.785.785,0,0,0,.005.275.566.566,0,0,1,.038.232.491.491,0,0,1-.162-.2.578.578,0,0,1-.065-.377.87.87,0,0,1,.108-.285c.032-.054.145-.215.226-.172s.005.167-.027.21A.888.888,0,0,0,51.2,70.252Z" transform="translate(-51.012 -69.717)" fill="#010103"/></g></g><g transform="translate(21.344 7.83)"><path d="M64.623,56.813a.5.5,0,0,1-.156-.027.714.714,0,0,1-.312-.253.876.876,0,0,1-.059-.092l-.065-.086a.755.755,0,0,1-.081-.129.21.21,0,0,0-.065-.086l-.113-.1c-.065-.054-.129-.1-.189-.162a2.44,2.44,0,0,1-.388-.522,2.49,2.49,0,0,1-.237-.549A.937.937,0,0,1,63,54.266a5.243,5.243,0,0,1,.576-1.153l.043-.065a2.74,2.74,0,0,1,.743-.792.48.48,0,0,1,.4-.092c.318.118.21.5.178.619s-.075.248-.113.377a4.646,4.646,0,0,0-.183.673c-.048.28-.054.4.124.463a.582.582,0,0,0,.4-.011.6.6,0,0,0,.14-.075.851.851,0,0,1,.183-.1.236.236,0,0,1,.275.081c.151.21-.016.738-.022.743q-.032.081-.065.178a1.5,1.5,0,0,0-.145.614c0,.038,0,.043.113.054a.327.327,0,0,1,.28.145.57.57,0,0,1,.027.431.577.577,0,0,1-.329.237,1.44,1.44,0,0,1-.259.043,1.817,1.817,0,0,0-.194.032c-.07.016-.135.043-.2.065-.038.016-.081.027-.113.043A1.163,1.163,0,0,1,64.623,56.813Zm.032-4.444a.377.377,0,0,0-.178.07,2.5,2.5,0,0,0-.679.727l-.038.065a5.2,5.2,0,0,0-.56,1.1.7.7,0,0,0-.038.415,2.2,2.2,0,0,0,.215.5,2.367,2.367,0,0,0,.355.474,2.152,2.152,0,0,0,.167.145,1.077,1.077,0,0,1,.118.1.442.442,0,0,1,.124.162.524.524,0,0,0,.054.081l.07.1a.382.382,0,0,0,.054.075.517.517,0,0,0,.215.183.405.405,0,0,0,.248-.016c.038-.011.075-.027.108-.038a1.932,1.932,0,0,1,.232-.075c.07-.016.145-.022.215-.032a1.1,1.1,0,0,0,.226-.038.392.392,0,0,0,.189-.118.377.377,0,0,0-.011-.232c-.016-.027-.059-.032-.124-.043-.1-.011-.28-.032-.3-.248a1.516,1.516,0,0,1,.162-.716c.022-.059.043-.113.065-.167.059-.178.1-.5.043-.544a.1.1,0,0,0-.032.005.383.383,0,0,0-.129.07.662.662,0,0,1-.194.1.774.774,0,0,1-.539.011c-.372-.113-.312-.463-.269-.7a5.636,5.636,0,0,1,.189-.706c.038-.124.075-.242.113-.366.075-.275.022-.334-.048-.355C64.677,52.37,64.666,52.37,64.655,52.37Z" transform="translate(-62.934 -52.147)" fill="#010103"/></g><g transform="translate(15.358 17.505)"><path d="M52.477,71.171a.705.705,0,0,1-.652-.339.027.027,0,0,1,.016-.043.028.028,0,0,1,.043.011c.232.415.786.285.792.285a1.032,1.032,0,0,0,.722-.759.132.132,0,0,0-.016-.1.035.035,0,0,0-.027-.016c-.075-.016-.242-.038-.248-.038s-.032-.022-.027-.038a.03.03,0,0,1,.032-.027h.005c.005.005.172.027.242.043,0-.005.038,0,.07.038a.218.218,0,0,1,.032.151,1.114,1.114,0,0,1-.776.819C52.687,71.155,52.6,71.171,52.477,71.171Z" transform="translate(-51.82 -70.11)" fill="#010103"/></g><g transform="translate(13.699 11.34)"><path d="M59.906,65.044c-.032-.194-.065-.388-.092-.576a5.749,5.749,0,0,0-.4-1.632,2.073,2.073,0,0,0-.226-.35,2.029,2.029,0,0,1-.183-.275.984.984,0,0,1-.108-.436,2.49,2.49,0,0,0-.032-.269l-.075-.28c-.022-.048-.032-.1-.048-.14a1.954,1.954,0,0,0-.113-.3,2.409,2.409,0,0,0-.506-.657,5.008,5.008,0,0,0-.813-.684c-.1-.065-.194-.135-.291-.2a6.75,6.75,0,0,0-.668-.426h0a.155.155,0,0,0-.108-.027l-.032-.011a4.469,4.469,0,0,0-1.654-.059l-.129.032a12.712,12.712,0,0,0-2,.614c-.345.162-.7.377-1.045.576-.162.1-.329.194-.485.28a3.386,3.386,0,0,0-1.357,1.217c-.065.113-.135.215-.2.307a2.174,2.174,0,0,0-.431,1.018c-.016.1-.022.215-.032.329a3.521,3.521,0,0,1-.081.625,3.194,3.194,0,0,0-.059.754v.1a1.992,1.992,0,0,0,.162.668,2.471,2.471,0,0,1,.081.237,3.045,3.045,0,0,0,.269.6,1.253,1.253,0,0,1,.178.426A3.081,3.081,0,0,0,50,68.179l.113.2a3.445,3.445,0,0,0,.878,1.029,2.673,2.673,0,0,1,.237.2,1.772,1.772,0,0,0,.5.366.494.494,0,0,1,.259.215,1.8,1.8,0,0,0,.145.189,1.07,1.07,0,0,0,.738.318,1.519,1.519,0,0,0,.528-.038.972.972,0,0,1,.738.092,1.134,1.134,0,0,0,.614.194,1.106,1.106,0,0,0,.21-.022.689.689,0,0,0,.544-.512c.059-.14.1-.226.178-.242a1.472,1.472,0,0,1,.2-.022l.215-.011a.989.989,0,0,0,.684-.237l.1-.081c.167-.145.269-.226.409-.194.086.016.183.038.323.07a.871.871,0,0,0,.4.027.736.736,0,0,0,.668-.765.9.9,0,0,0,.469-.178l.054-.032a.773.773,0,0,0,.264-.264c-.016.016-.032.038-.048.054a.726.726,0,0,1-.566.135,1.661,1.661,0,0,1-.506-.124.221.221,0,0,0-.081.145l-.016.145c-.027.312-.038.4-.318.458a.536.536,0,0,1-.259-.027q-.17-.04-.307-.065a.878.878,0,0,0-.781.3l-.086.075a.561.561,0,0,1-.426.14l-.221.011a1.251,1.251,0,0,0-.28.038.761.761,0,0,0-.479.517c-.048.167-.113.2-.215.232a.684.684,0,0,1-.539-.135,1.415,1.415,0,0,0-.355-.145.965.965,0,0,1-.253.259,1.165,1.165,0,0,1-.56.151,1,1,0,0,1-.932-.619,2.787,2.787,0,0,1-.1-.3,1.378,1.378,0,0,0-.242-.14,1.285,1.285,0,0,1-.361-.275,3.028,3.028,0,0,0-.285-.248,2.948,2.948,0,0,1-.749-.883l-.118-.2a2.758,2.758,0,0,1-.506-1.454,1.416,1.416,0,0,0-.226-.646,2.789,2.789,0,0,1-.237-.517c-.027-.086-.059-.172-.092-.264a1.673,1.673,0,0,1-.135-.517v-.1a3,3,0,0,1,.043-.636,3.655,3.655,0,0,0,.1-.706c.005-.108.016-.215.027-.307A1.842,1.842,0,0,1,49.71,62c.065-.1.135-.2.21-.329a2.976,2.976,0,0,1,1.2-1.056c.162-.092.323-.189.5-.291.334-.2.684-.4,1.007-.56a11.978,11.978,0,0,1,1.923-.587l.129-.032a3.862,3.862,0,0,1,1.449.065c.032.005.054.011.075.016.2.113.388.242.582.377.1.065.194.135.3.2a5.159,5.159,0,0,1,.749.63,2.054,2.054,0,0,1,.426.544,1.436,1.436,0,0,1,.086.237.846.846,0,0,0,.054.145l.059.232c.011.092.022.162.027.226a1.412,1.412,0,0,0,.151.587,1.576,1.576,0,0,0,.232.35,1.456,1.456,0,0,1,.178.269,5.289,5.289,0,0,1,.361,1.508c.027.2.059.393.092.592a2.144,2.144,0,0,1,.005,1.045,4.789,4.789,0,0,0-.151.743l.048.1a2.351,2.351,0,0,1,.264,1.007,4.15,4.15,0,0,0,.059-.479l.011-.081a5.869,5.869,0,0,1,.183-1.163A2.559,2.559,0,0,0,59.906,65.044Z" transform="translate(-48.74 -58.663)" fill="#010103"/></g><g transform="translate(0 26.21)"><g transform="translate(0 1.766)"><path d="M31.372,95.125a9.145,9.145,0,0,0,2.058-1.374A5.3,5.3,0,0,0,34.8,91.839l.054-.108c1,0,2,.038,2.989.108s1.982.172,2.973.3c.926.129,1.847.3,2.752.512a21.006,21.006,0,0,1,2.682.813c.07.032.151.07.248.113a2.622,2.622,0,0,0,.285.113.849.849,0,0,0,.275.065.384.384,0,0,0,.253-.081.833.833,0,0,0,.345-.4.74.74,0,0,0,.016-.458,1.068,1.068,0,0,0-.237-.431,1.221,1.221,0,0,0-.4-.307,17.989,17.989,0,0,0-2.575-.9,24.979,24.979,0,0,0-2.7-.566c-.921-.14-1.842-.248-2.763-.307s-1.831-.108-2.725-.129h-1.3a.979.979,0,0,0-.743-.6c-.269-.059-.436-.022-.5.124a1.171,1.171,0,0,0-.1.49c-.733.027-1.47.07-2.214.145s-1.481.178-2.2.318a17.885,17.885,0,0,0-2.128.555,13.209,13.209,0,0,0-1.977.84,6.249,6.249,0,0,0-.679.426,3.183,3.183,0,0,0-.582.528,2.377,2.377,0,0,0-.4.657,1.878,1.878,0,0,0-.135.808,1.58,1.58,0,0,0,.382,1,2.161,2.161,0,0,0,.835.571,4.193,4.193,0,0,0,1.061.259,8.008,8.008,0,0,0,1.056.043,12.013,12.013,0,0,0,4.729-1.212Zm-3.8-.07c-.307.065-.625.113-.953.151a4.911,4.911,0,0,1-.926.022,2.019,2.019,0,0,1-.759-.194.957.957,0,0,1-.469-.5.832.832,0,0,1,.1-.733,2.094,2.094,0,0,1,.636-.582,4.561,4.561,0,0,1,.964-.431c.366-.113.722-.215,1.077-.3s.673-.145.964-.194.5-.081.641-.108c.733-.118,1.465-.21,2.2-.285s1.476-.124,2.214-.156a.687.687,0,0,1-.038.065.359.359,0,0,0-.032.065,4.74,4.74,0,0,1-.813.959,7.319,7.319,0,0,1-1.013.776,8.777,8.777,0,0,1-1.131.609,9.8,9.8,0,0,1-1.174.442,6.5,6.5,0,0,1-.625.194C28.162,94.92,27.876,94.99,27.569,95.055Z" transform="translate(-23.307 -89.55)" fill="#010103"/></g><g transform="translate(7.207 5.273)"><path d="M43.265,97.429a1.645,1.645,0,0,0,.232-.248.8.8,0,0,0,.135-.291.4.4,0,0,0-.059-.318.891.891,0,0,0-.641-.49.764.764,0,0,0-.754.242,20.08,20.08,0,0,0-2.5,3.436,24.7,24.7,0,0,0-1.8,3.862c-.215.533-.409,1.061-.576,1.589s-.323,1.056-.469,1.594a6.883,6.883,0,0,0-.135.786,1.435,1.435,0,0,0,.145.765,1.357,1.357,0,0,0,.226.323,1,1,0,0,0,.3.221.324.324,0,0,0,.291-.011.5.5,0,0,0,.2-.372,25.223,25.223,0,0,1,1.083-3.776,26.9,26.9,0,0,1,1.632-3.56c.355-.625.727-1.239,1.126-1.837a12.849,12.849,0,0,1,1.325-1.686C43.093,97.585,43.174,97.509,43.265,97.429Z" transform="translate(-36.687 -96.061)" fill="#010103"/></g><g transform="translate(12.48 5.779)"><path d="M72.042,102.7a1.159,1.159,0,0,0-.512.372,7.7,7.7,0,0,1-2.5,2.02,1.945,1.945,0,0,1-1.837-.005.986.986,0,0,1-.388-.415,1.479,1.479,0,0,1-.14-.555,2.254,2.254,0,0,0,1.013.194,3,3,0,0,0,1.066-.226,3.039,3.039,0,0,0,.916-.6,2.1,2.1,0,0,0,.566-.921,1.513,1.513,0,0,0,.011-.819,1.352,1.352,0,0,0-.42-.641,1.768,1.768,0,0,0-.776-.372,2.949,2.949,0,0,0-1.05-.022,2.683,2.683,0,0,0-1.19.485,3.454,3.454,0,0,0-.862.91,3.492,3.492,0,0,0-.442.98A7.568,7.568,0,0,1,63,105.09a1.945,1.945,0,0,1-1.837-.005.986.986,0,0,1-.388-.415,1.479,1.479,0,0,1-.14-.555,2.254,2.254,0,0,0,1.013.194,3,3,0,0,0,1.066-.226,3.132,3.132,0,0,0,.921-.6,2.043,2.043,0,0,0,.56-.921,1.463,1.463,0,0,0,.011-.819,1.287,1.287,0,0,0-.426-.641,1.768,1.768,0,0,0-.776-.372,2.949,2.949,0,0,0-1.05-.022,2.683,2.683,0,0,0-1.19.485,3.659,3.659,0,0,0-.867.91,3.729,3.729,0,0,0-.442.98,9.021,9.021,0,0,1-1.12,1.217,2.313,2.313,0,0,1-1.061.625.66.66,0,0,1-.749-.248.808.808,0,0,1,.043-.813,3.732,3.732,0,0,1,.355-.555c.151-.2.318-.409.5-.609s.355-.388.528-.571a4.506,4.506,0,0,1,.5-.452.547.547,0,0,0,.167-.318.672.672,0,0,0-.016-.388.467.467,0,0,0-.221-.264.479.479,0,0,0-.426.022c-.226.1-.447.2-.668.3s-.431.178-.625.248a3.648,3.648,0,0,1-.539.156.969.969,0,0,1-.4.022.746.746,0,0,0,.011-.539.6.6,0,0,0-.318-.334.722.722,0,0,0-.5-.011,1.212,1.212,0,0,0-.549.426.953.953,0,0,0-.221.657,1.132,1.132,0,0,0,.2.592,1.693,1.693,0,0,1-.124.4,2.022,2.022,0,0,1-.264.431,8.024,8.024,0,0,1-.592.733,7.6,7.6,0,0,1-.636.625,2.72,2.72,0,0,1-.592.4.516.516,0,0,1-.474.027c-.108-.059-.135-.178-.092-.372a3.86,3.86,0,0,1,.248-.663c.118-.253.248-.522.388-.813a7,7,0,0,0,.35-.856,1.709,1.709,0,0,0,.086-.716.781.781,0,0,0-.264-.522.925.925,0,0,0-.619-.253,2.228,2.228,0,0,0-.733.113,3.725,3.725,0,0,0-.749.345,4.922,4.922,0,0,0-.652.452c.388-.663.738-1.266,1.04-1.821.129-.237.264-.469.4-.695s.259-.442.361-.636.2-.361.285-.5a2.1,2.1,0,0,0,.156-.291c.108-.21.1-.372-.016-.474a.922.922,0,0,0-.6-.156,1.633,1.633,0,0,0-.695.129,1.062,1.062,0,0,0-.469.517c-.048.108-.135.291-.264.555s-.28.576-.452.926-.355.738-.555,1.153-.4.829-.6,1.228-.388.781-.566,1.137-.329.663-.458.9c0,.016-.005.022-.016.022-.21.388-.382.733-.512,1.029a1.6,1.6,0,0,0-.178.663A1.732,1.732,0,0,0,46.7,106a1.044,1.044,0,0,0,.377.388.518.518,0,0,0,.415.048.487.487,0,0,0,.307-.269c.07-.14.145-.323.232-.539s.183-.463.307-.727a7.743,7.743,0,0,1,.458-.835,7.235,7.235,0,0,1,.663-.9,2.677,2.677,0,0,1,.485-.474,3.809,3.809,0,0,1,.469-.307,1.048,1.048,0,0,1,.35-.129c.1-.011.156.005.178.054a.458.458,0,0,1-.108.334c-.092.151-.2.334-.334.549s-.259.452-.388.716a3.214,3.214,0,0,0-.28.84,1.4,1.4,0,0,0,.016.733,1.274,1.274,0,0,0,.345.544,1.421,1.421,0,0,0,.582.318,1.9,1.9,0,0,0,.749.043,2.352,2.352,0,0,0,.862-.318,5.425,5.425,0,0,0,.894-.646,8.922,8.922,0,0,0,.808-.819,6.814,6.814,0,0,0,.646-.867.161.161,0,0,0,.022-.043c.005-.011.022-.016.027-.027a2.535,2.535,0,0,0,.253-.5c.065-.162.118-.318.167-.458a1.487,1.487,0,0,0,.522-.054,3.88,3.88,0,0,0,.377-.124c-.07.059-.189.172-.361.329a3.44,3.44,0,0,0-.883,1.347,1.739,1.739,0,0,0-.065.9,1.306,1.306,0,0,0,.436.776,1.849,1.849,0,0,0,.813.409,2.842,2.842,0,0,0,2-.339,6.449,6.449,0,0,0,1.325-1.083,2.872,2.872,0,0,0,.242.663,2.011,2.011,0,0,0,.776.813,2.5,2.5,0,0,0,1.562.372,4.507,4.507,0,0,0,1.643-.474,6.7,6.7,0,0,0,1.519-1.066c.1-.1.2-.194.3-.291a2.79,2.79,0,0,0,.242.652,2.011,2.011,0,0,0,.776.813,2.5,2.5,0,0,0,1.562.372,4.48,4.48,0,0,0,1.637-.474,6.587,6.587,0,0,0,1.519-1.066,6.256,6.256,0,0,0,1.174-1.438,1.244,1.244,0,0,0,.232-.636.457.457,0,0,0-.135-.372A.371.371,0,0,0,72.042,102.7Zm-4.471-.592a1.278,1.278,0,0,1,.873-.382.527.527,0,0,1,.5.242.487.487,0,0,1-.022.517,1.192,1.192,0,0,1-.415.42,1.863,1.863,0,0,1-.544.232,1.62,1.62,0,0,1-.576.038,1.171,1.171,0,0,1-.479-.156A2.828,2.828,0,0,1,67.572,102.106Zm-6.033,0a1.278,1.278,0,0,1,.873-.382.527.527,0,0,1,.5.242.5.5,0,0,1-.016.517,1.239,1.239,0,0,1-.415.42,1.894,1.894,0,0,1-.549.232,1.583,1.583,0,0,1-.571.038,1.12,1.12,0,0,1-.474-.156A2.722,2.722,0,0,1,61.539,102.106Z" transform="translate(-46.478 -97)" fill="#010103"/></g><g transform="translate(40.495)"><path d="M118.64,94.345a9.375,9.375,0,0,0,1.233-1.788,6.084,6.084,0,0,0,.652-1.982,3.812,3.812,0,0,0-.291-2.058,3.007,3.007,0,0,0-.986-1.287,4.49,4.49,0,0,0-1.492-.706,7.621,7.621,0,0,0-1.788-.248,14.6,14.6,0,0,0-1.885.075c-.625.065-1.223.151-1.794.264s-1.066.215-1.492.307q-1.341.3-2.7.716a27.234,27.234,0,0,0-2.672.97,22.766,22.766,0,0,0-2.542,1.26,16.763,16.763,0,0,0-2.3,1.589A7.6,7.6,0,0,0,99.5,92.61a5.271,5.271,0,0,0-.829,1.508,2.906,2.906,0,0,0-.124,1.551,1.993,1.993,0,0,0,1.018,1.287,3.918,3.918,0,0,0,1.578.555,6.968,6.968,0,0,0,1.831-.016,11.2,11.2,0,0,0,1.939-.452,13.3,13.3,0,0,0,1.869-.759,15.731,15.731,0,0,0,1.659-.953,10.294,10.294,0,0,0,1.3-1.007,4.9,4.9,0,0,0,.345-.388,1.32,1.32,0,0,0,.242-.452,1.23,1.23,0,0,0,.065-.485.94.94,0,0,0-.194-.5.591.591,0,0,0-.4-.291.553.553,0,0,0-.372.124,2.206,2.206,0,0,0-.345.334c-.113.135-.21.248-.291.329a8.809,8.809,0,0,1-1.664,1.244A13.187,13.187,0,0,1,105,95.25a10.66,10.66,0,0,1-2.251.582,5.585,5.585,0,0,1-2.063-.043A1.055,1.055,0,0,1,99.75,94.5a2.7,2.7,0,0,1,.689-1.508,7.6,7.6,0,0,1,1.411-1.26,13.36,13.36,0,0,1,1.686-1c.582-.3,1.083-.544,1.508-.743a27.829,27.829,0,0,1,4.153-1.551,24.468,24.468,0,0,1,4.352-.846c.339-.038.765-.075,1.266-.113a10.357,10.357,0,0,1,1.53,0,5.591,5.591,0,0,1,1.438.3,1.987,1.987,0,0,1,1.023.765,2.415,2.415,0,0,1,.469,1.282,3.2,3.2,0,0,1-.237,1.325,5.578,5.578,0,0,1-.743,1.3,10.438,10.438,0,0,1-1.034,1.19c-.366.372-.743.711-1.11,1.018s-.689.549-.959.743c-.4.28-.829.56-1.277.829a15.124,15.124,0,0,1-1.4.743,12.167,12.167,0,0,1-1.492.571,8.265,8.265,0,0,1-1.53.329,6.985,6.985,0,0,1,.479-.566c.162-.178.334-.345.506-.512a1.67,1.67,0,0,1,.329-.237c.135-.075.269-.156.4-.237s.264-.167.388-.259a.949.949,0,0,0,.275-.275.609.609,0,0,0,.1-.5.8.8,0,0,0-.253-.431.971.971,0,0,0-.469-.237.647.647,0,0,0-.5.081,6.892,6.892,0,0,0-1.67,1.379,11.106,11.106,0,0,0-1.293,1.767c-.189-.059-.377-.118-.566-.189a1.25,1.25,0,0,0-.5-.081.7.7,0,0,0-.571.291.659.659,0,0,0-.054.528,1.308,1.308,0,0,0,.318.549,1.213,1.213,0,0,0,.522.345.058.058,0,0,1,.038.011.116.116,0,0,0,.054.011c-.07.14-.151.3-.226.458s-1.487,3.323-1.546,3.5a3.012,3.012,0,0,0-.124.506,1.268,1.268,0,0,0,.022.474,1.82,1.82,0,0,0,.253.625.63.63,0,0,0,.355.275.418.418,0,0,0,.361-.129,1.249,1.249,0,0,0,.285-.571c.081-.318.178-.641.291-.964s1.584-3.63,1.745-3.937a7.752,7.752,0,0,0,2.392-.237,13.246,13.246,0,0,0,2.343-.846,16.293,16.293,0,0,0,2.16-1.223,19.829,19.829,0,0,0,1.853-1.411A19.027,19.027,0,0,0,118.64,94.345Z" transform="translate(-98.489 -86.271)" fill="#010103"/></g><g transform="translate(58.468 5.795)"><path d="M146.348,101a1.224,1.224,0,0,0-.237-.512.784.784,0,0,0-.506-.3,1.385,1.385,0,0,0-.458.043,2.359,2.359,0,0,0-.5.194,2.4,2.4,0,0,0-.458.318,2,2,0,0,0-.35.4c-.038.059-.1.156-.2.3s-.21.3-.334.479-.264.366-.415.571-.3.4-.442.592l-.005.005c-.151.194-.312.377-.479.56a.689.689,0,0,1,.027-.145.742.742,0,0,1,.156-.3.218.218,0,0,0,.1-.183.27.27,0,0,0-.1-.178.513.513,0,0,0-.237-.113.689.689,0,0,0-.329.016,1.405,1.405,0,0,0-.566.4,1.325,1.325,0,0,0-.334.77,2.011,2.011,0,0,0,.065.786,2.605,2.605,0,0,1-.77.35.747.747,0,0,1-.652-.1.558.558,0,0,1-.21-.609,4.109,4.109,0,0,1,.4-1.066c.048-.108.124-.253.221-.442s.21-.4.334-.641.259-.5.415-.786.307-.571.458-.862a5,5,0,0,1,.619-.194,5.741,5.741,0,0,1,.679-.129,1.92,1.92,0,0,1,.609,0,.65.65,0,0,1,.42.2.421.421,0,0,0,.436.156.96.96,0,0,0,.469-.253,1.482,1.482,0,0,0,.334-.474.719.719,0,0,0,.054-.522.772.772,0,0,0-.28-.35,1.388,1.388,0,0,0-.576-.232,2.967,2.967,0,0,0-.856-.016,4.051,4.051,0,0,0-1.11.3l.722-1.374c.108-.21.1-.372-.016-.474a.884.884,0,0,0-.6-.156,1.616,1.616,0,0,0-.695.129,1.062,1.062,0,0,0-.469.517l-.9,1.869a4.517,4.517,0,0,1-1.11.178q-.444,0-.566-.194a.223.223,0,0,0-.3-.1.664.664,0,0,0-.291.269.8.8,0,0,0-.1.458.579.579,0,0,0,.285.442,1.316,1.316,0,0,0,.652.237,4.307,4.307,0,0,0,.792.011c-.259.528-.512,1.04-.749,1.535-.135.269-.253.512-.361.727a7.518,7.518,0,0,1-2.488,2,1.945,1.945,0,0,1-1.837-.005.986.986,0,0,1-.388-.415,1.479,1.479,0,0,1-.14-.555,2.254,2.254,0,0,0,1.013.194,3,3,0,0,0,1.066-.226,3.132,3.132,0,0,0,.921-.6,2.1,2.1,0,0,0,.566-.921,1.413,1.413,0,0,0,.005-.819,1.313,1.313,0,0,0-.42-.641,1.768,1.768,0,0,0-.776-.372,2.949,2.949,0,0,0-1.05-.022,2.683,2.683,0,0,0-1.19.485,3.454,3.454,0,0,0-.862.91,3.562,3.562,0,0,0-.5,1.137,3.805,3.805,0,0,0-.1,1.2,2.945,2.945,0,0,0,.318,1.1,2.011,2.011,0,0,0,.776.813,2.494,2.494,0,0,0,1.562.372,4.537,4.537,0,0,0,1.643-.474,6.446,6.446,0,0,0,1.314-.894,1.149,1.149,0,0,0,.07.232,1.377,1.377,0,0,0,.544.668,1.812,1.812,0,0,0,1.023.259,3.342,3.342,0,0,0,1.233-.232,4.707,4.707,0,0,0,1.061-.571,2.718,2.718,0,0,0,1.034.555,2.773,2.773,0,0,0,1.508.038,2.592,2.592,0,0,0,1.174-.657,2.239,2.239,0,0,0,.42-2.575,3.441,3.441,0,0,0-.269-.485,1.129,1.129,0,0,1-.189-.452.425.425,0,0,1,.054-.259.8.8,0,0,1,.194-.232.668.668,0,0,1,.3-.129.759.759,0,0,1,.388.038c.14.059.237.027.291-.108A.779.779,0,0,0,146.348,101Zm-12.254,1.12a1.278,1.278,0,0,1,.873-.382.527.527,0,0,1,.5.242.5.5,0,0,1-.016.517,1.149,1.149,0,0,1-.415.42,1.894,1.894,0,0,1-.549.232,1.59,1.59,0,0,1-.571.038,1.12,1.12,0,0,1-.474-.156A2.8,2.8,0,0,1,134.094,102.12Zm9.948,2.515a.957.957,0,0,1-.485.323.923.923,0,0,1-.652-.043,1.946,1.946,0,0,1-.382-.189,6.422,6.422,0,0,0,.582-.77.636.636,0,0,0,.14-.151l.6-.867.318.566a.922.922,0,0,1,.113.6A1.068,1.068,0,0,1,144.043,104.635Z" transform="translate(-131.857 -97.03)" fill="#010103"/></g><g transform="translate(6.756 23.209)"><g transform="translate(5.225)"><g transform="translate(0 0.054)"><path d="M47.505,129.735a.982.982,0,0,1,0,1.417,1.12,1.12,0,0,1-.786.275h-.657v1.239H45.55v-3.2h1.169A1.145,1.145,0,0,1,47.505,129.735Zm-1.444.189v1.056h.646a.569.569,0,0,0,.42-.145.511.511,0,0,0,.145-.382.52.52,0,0,0-.145-.382.569.569,0,0,0-.42-.145h-.646Z" transform="translate(-45.55 -129.46)" fill="#010103"/></g><g transform="translate(2.828 0.054)"><path d="M52.809,132.665l-.91-1.239h-.587v1.239H50.8v-3.2h1.169a1.142,1.142,0,0,1,.786.269.9.9,0,0,1,.3.706.973.973,0,0,1-.162.555.915.915,0,0,1-.458.35l.964,1.32h-.592Zm-1.5-1.691h.646a.586.586,0,0,0,.42-.145.511.511,0,0,0,.151-.377.524.524,0,0,0-.151-.382.577.577,0,0,0-.42-.145h-.646Z" transform="translate(-50.8 -129.46)" fill="#010103"/></g><g transform="translate(5.876 0.054)"><path d="M58.571,129.923H56.977v.819h1.2v.447h-1.2V132.2h1.648v.463H56.46v-3.2h2.106v.463Z" transform="translate(-56.46 -129.46)" fill="#010103"/></g><g transform="translate(8.64 0.005)"><path d="M64.628,129.37v3.259h-.512V130.62l-.916,1.2h-.178l-.921-1.2v2.009H61.59V129.37h.183l1.341,1.794,1.341-1.794Z" transform="translate(-61.59 -129.37)" fill="#010103"/></g><g transform="translate(12.48 0.054)"><path d="M69.237,132.665H68.72v-3.2h.517Z" transform="translate(-68.72 -129.46)" fill="#010103"/></g><g transform="translate(13.767 0.059)"><path d="M73.739,131.377a1.333,1.333,0,0,1-.366.986,1.3,1.3,0,0,1-.943.361,1.287,1.287,0,0,1-.953-.361,1.333,1.333,0,0,1-.366-.986V129.47h.517v1.944a.831.831,0,0,0,.226.625.879.879,0,0,0,1.153,0,.828.828,0,0,0,.221-.625V129.47h.517v1.907Z" transform="translate(-71.11 -129.47)" fill="#010103"/></g><g transform="translate(17.166 0.005)"><path d="M80.458,129.37v3.259h-.517V130.62l-.916,1.2h-.172l-.921-1.2v2.009H77.42V129.37H77.6l1.347,1.794,1.341-1.794Z" transform="translate(-77.42 -129.37)" fill="#010103"/></g><g transform="translate(22.369 0.054)"><path d="M89.348,129.907a1.5,1.5,0,0,1,.474,1.153,1.519,1.519,0,0,1-.474,1.158,1.78,1.78,0,0,1-1.266.447h-1v-3.2h1A1.8,1.8,0,0,1,89.348,129.907Zm-1.756.022V132.2h.485a1.218,1.218,0,0,0,.889-.323,1.1,1.1,0,0,0,.329-.824,1.079,1.079,0,0,0-.323-.819,1.26,1.26,0,0,0-.894-.307h-.485Z" transform="translate(-87.08 -129.46)" fill="#010103"/></g><g transform="translate(25.526 0.005)"><path d="M95.811,129.849a1.652,1.652,0,0,1,0,2.348,1.655,1.655,0,0,1-1.19.479,1.638,1.638,0,0,1-1.19-.479,1.59,1.59,0,0,1-.49-1.174,1.561,1.561,0,0,1,.49-1.174,1.638,1.638,0,0,1,1.19-.479A1.655,1.655,0,0,1,95.811,129.849Zm-2.014.323a1.259,1.259,0,0,0,0,1.7,1.088,1.088,0,0,0,.824.339,1.1,1.1,0,0,0,.824-.339,1.26,1.26,0,0,0-.005-1.691,1.17,1.17,0,0,0-1.643-.005Z" transform="translate(-92.94 -129.37)" fill="#010103"/></g><g transform="translate(29.307 0.005)"><path d="M102.971,130.038l-.377.307a1.117,1.117,0,0,0-.953-.506,1.1,1.1,0,0,0-.829.334,1.194,1.194,0,0,0-.318.846,1.165,1.165,0,0,0,.329.856,1.124,1.124,0,0,0,.851.339,1.087,1.087,0,0,0,.959-.485v-.345h-.986v-.452h1.5v.9a1.624,1.624,0,0,1-.609.614,1.718,1.718,0,0,1-.883.232,1.662,1.662,0,0,1-1.2-.474,1.593,1.593,0,0,1-.49-1.18,1.561,1.561,0,0,1,.49-1.174,1.645,1.645,0,0,1,1.2-.479A1.542,1.542,0,0,1,102.971,130.038Z" transform="translate(-99.96 -129.37)" fill="#010103"/></g><g transform="translate(33.907 0.054)"><path d="M111.172,129.923h-1.083v2.742h-.512v-2.742H108.5v-.463h2.672Z" transform="translate(-108.5 -129.46)" fill="#010103"/></g><g transform="translate(37.052 0.054)"><g transform="translate(0)"><path d="M116.354,132.665l-.91-1.239h-.587v1.239h-.517v-3.2h1.169a1.142,1.142,0,0,1,.786.269.9.9,0,0,1,.3.706.973.973,0,0,1-.162.555.949.949,0,0,1-.452.35l.959,1.32h-.587Zm-1.5-1.691h.646a.573.573,0,0,0,.415-.145.491.491,0,0,0,.151-.377.5.5,0,0,0-.151-.382.564.564,0,0,0-.415-.145h-.646Z" transform="translate(-114.34 -129.46)" fill="#010103"/></g></g><g transform="translate(40.112 0.054)"><path d="M122.126,129.923h-1.589v.819h1.2v.447h-1.2V132.2h1.648v.463H120.02v-3.2h2.106v.463Z" transform="translate(-120.02 -129.46)" fill="#010103"/></g><g transform="translate(42.579)"><path d="M126.814,132.085h-1.438l-.226.533H124.6l1.411-3.259h.178l1.411,3.259h-.555Zm-.716-1.772-.533,1.33h1.061Z" transform="translate(-124.6 -129.36)" fill="#010103"/></g><g transform="translate(45.39 0.054)"><path d="M132.5,129.923h-1.083v2.742H130.9v-2.742H129.82v-.463h2.672v.463Z" transform="translate(-129.82 -129.46)" fill="#010103"/></g><g transform="translate(48.315 0.005)"><path d="M137.049,129.526a1.165,1.165,0,0,1,.426.415l-.361.275a.782.782,0,0,0-.673-.388.591.591,0,0,0-.345.1.322.322,0,0,0-.14.291.314.314,0,0,0,.1.253,1.682,1.682,0,0,0,.345.2l.361.167a1.847,1.847,0,0,1,.576.388.734.734,0,0,1,.189.522.834.834,0,0,1-.307.673,1.159,1.159,0,0,1-.765.253,1.371,1.371,0,0,1-.711-.183,1.294,1.294,0,0,1-.5-.512l.361-.275a1.022,1.022,0,0,0,.84.512.589.589,0,0,0,.4-.124.389.389,0,0,0,.151-.323.353.353,0,0,0-.108-.269,1.552,1.552,0,0,0-.361-.21l-.35-.167a1.772,1.772,0,0,1-.549-.366.715.715,0,0,1-.2-.517.782.782,0,0,1,.291-.63,1.088,1.088,0,0,1,.716-.242A1.2,1.2,0,0,1,137.049,129.526Z" transform="translate(-135.25 -129.37)" fill="#010103"/></g></g><g transform="translate(57.17 1.546)"><rect width="3.113" height="0.307" fill="#010103"/></g><g transform="translate(0 1.546)"><rect width="3.113" height="0.307" fill="#010103"/></g></g></g></g></g></svg>